<?xml version="1.0" encoding="UTF-8"?>
<svg xmlns="http://www.w3.org/2000/svg" xmlns:xlink="http://www.w3.org/1999/xlink" version="1.2" >
<font id="RV Harmonia SemiBold">
<font-face  font-family="RV Harmonia" units-per-em="1000" ascent="720" descent="-257" font-style="normal" font-weight="600" font-stretch="normal" cap-height="682" x-height="479" underline-position="-75" underline-thickness="50" />
<missing-glyph  horiz-adv-x="250" d="" />
<glyph glyph-name="nonmarkingreturn" unicode="&#xd;" horiz-adv-x="250" d="" />
<glyph glyph-name="space" unicode="&#x20;" horiz-adv-x="250" d="" />
<glyph glyph-name="numbersign" unicode="&#x23;" horiz-adv-x="603" d="M590 483 L574 413 L458 413 L426 265 L544 265 L530 193 L411 193 L369 0 L289 0 L331 193 L208 193 L165 0 L85 0 L128 193 L13 193 L28 265 L142 265 L175 413 L57 413 L72 483 L190 483 L232 682 L313 682 L269 483 L393 483 L436 682 L516 682 L473 483 L590 483 Z M254 413 L221 265 L346 265 L378 413 L254 413 Z " />
<glyph glyph-name="dollar" unicode="&#x24;" horiz-adv-x="569" d="M382 501 Q377 535 352 555.5 Q327 576 284 576 Q239 576 213.5 556 Q188 536 188 502 Q188 484 194.5 471 Q201 458 215.5 447.5 Q230 437 253.5 427.5 Q277 418 312 407 Q419 374 462.5 324.5 Q506 275 506 207 Q506 177 495 147 Q484 117 462 91.5 Q440 66 407 48 Q374 30 330 23 L330 -60 L240 -60 L240 22 Q164 33 114.5 78 Q65 123 52 203 L168 203 Q178 159 205.5 133 Q233 107 287 107 Q313 107 333 115 Q353 123 366.5 136 Q380 149 387 165.5 Q394 182 394 199 Q394 221 387.5 238.5 Q381 256 365 270 Q349 284 323.5 295.5 Q298 307 260 318 Q209 333 174.5 351.5 Q140 370 118 392.5 Q96 415 86.5 442.5 Q77 470 77 502 Q77 533 89 559.5 Q101 586 123 606.5 Q145 627 174.5 640.5 Q204 654 240 659 L240 730 L330 730 L330 660 Q405 649 446.5 605 Q488 561 494 501 L382 501 Z " />
<glyph glyph-name="percent" unicode="&#x25;" horiz-adv-x="791" d="M41 515 Q41 565 55.5 601 Q70 637 93 659.5 Q116 682 144.5 692.5 Q173 703 202 703 Q228 703 255 693.5 Q282 684 304 662 Q326 640 340 604.5 Q354 569 354 517 Q354 460 338 422.5 Q322 385 299 363.5 Q276 342 248.5 333.5 Q221 325 199 325 Q172 325 144 334.5 Q116 344 93 366 Q70 388 55.5 424.5 Q41 461 41 515 Z M268 515 Q268 570 249.5 598.5 Q231 627 198 627 Q169 627 148.5 601.5 Q128 576 128 516 Q128 456 147.5 428.5 Q167 401 199 401 Q226 401 247 427.5 Q268 454 268 515 Z M437 169 Q437 219 451.5 254.5 Q466 290 488.5 312.5 Q511 335 539.5 345.5 Q568 356 596 356 Q622 356 649.5 346.5 Q677 337 699 315 Q721 293 735 258 Q749 223 749 171 Q749 113 733 75.5 Q717 38 693.5 16.5 Q670 -5 643 -13.5 Q616 -22 593 -22 Q566 -22 538.5 -12.5 Q511 -3 488.5 19 Q466 41 451.5 78 Q437 115 437 169 Z M663 169 Q663 224 644.5 252 Q626 280 593 280 Q564 280 543.5 254.5 Q523 229 523 170 Q523 109 542.5 82 Q562 55 594 55 Q621 55 642 81 Q663 107 663 169 Z M671 682 L210 0 L121 0 L583 682 L671 682 Z " />
<glyph glyph-name="ampersand" unicode="&#x26;" horiz-adv-x="630" d="M480 342 L582 342 L582 333 Q582 273 562.5 218.5 Q543 164 514 126 Q537 98 555 87 Q573 76 590 76 Q598 76 606.5 77 Q615 78 619 80 L619 -10 Q613 -12 598.5 -14 Q584 -16 572 -16 Q537 -16 508.5 -0.5 Q480 15 447 53 Q416 27 368 4.5 Q320 -18 255 -18 Q199 -18 157.5 -1.5 Q116 15 89 43 Q62 71 48.5 107 Q35 143 35 182 Q35 253 74.5 301 Q114 349 183 385 Q173 400 162.5 418 Q152 436 143 456 Q134 476 128.5 498.5 Q123 521 123 544 Q123 574 133.5 602.5 Q144 631 166.5 653 Q189 675 223.5 688.5 Q258 702 305 702 Q342 702 374 691.5 Q406 681 430 661.5 Q454 642 467.5 614 Q481 586 481 550 Q481 518 469.5 492 Q458 466 437.5 443.5 Q417 421 388 401.5 Q359 382 324 363 L450 199 Q465 228 472.5 260 Q480 292 480 331 L480 342 Z M259 73 Q301 73 334 88.5 Q367 104 385 121 L235 315 Q190 288 166 256.5 Q142 225 142 184 Q142 161 150 141 Q158 121 173.5 106 Q189 91 210.5 82 Q232 73 259 73 Z M229 542 Q229 510 240.5 485.5 Q252 461 273 431 Q324 455 352 482 Q380 509 380 547 Q380 572 361 593 Q342 614 304 614 Q284 614 270 607.5 Q256 601 247 590.5 Q238 580 233.5 567 Q229 554 229 542 Z " />
<glyph glyph-name="quoteright" unicode="&#x2019;" horiz-adv-x="256" d="M63 720 L193 720 L193 660 Q193 602 178 556 Q163 510 140 473 L75 473 Q92 499 101.5 531 Q111 563 113 596 L63 596 L63 720 Z " />
<glyph glyph-name="parenleft" unicode="&#x28;" horiz-adv-x="344" d="M219 -215 Q179 -164 150.5 -105 Q122 -46 103.5 16 Q85 78 76 141 Q67 204 67 263 Q67 323 76 386.5 Q85 450 103.5 512 Q122 574 150.5 632.5 Q179 691 219 743 L327 743 Q286 691 257.5 632.5 Q229 574 211 512 Q193 450 185 386.5 Q177 323 177 263 Q177 204 185 141 Q193 78 211 16 Q229 -46 257.5 -105 Q286 -164 327 -215 L219 -215 Z " />
<glyph glyph-name="parenright" unicode="&#x29;" horiz-adv-x="344" d="M16 -215 Q57 -164 85.5 -105 Q114 -46 132 16 Q150 78 158.5 141 Q167 204 167 264 Q167 324 158.5 387 Q150 450 132 512 Q114 574 85.5 633 Q57 692 16 743 L125 743 Q165 692 193.5 633 Q222 574 240.5 512 Q259 450 268 387 Q277 324 277 264 Q277 204 268 141 Q259 78 240.5 16 Q222 -46 193.5 -105 Q165 -164 125 -215 L16 -215 Z " />
<glyph glyph-name="asterisk" unicode="&#x2a;" horiz-adv-x="423" d="M40 627 L173 577 L166 721 L256 721 L248 577 L381 627 L409 544 L271 507 L361 395 L287 344 L211 464 L133 344 L60 395 L150 507 L14 543 L40 627 Z " />
<glyph glyph-name="plus" unicode="&#x2b;" horiz-adv-x="672" d="M381 219 L381 0 L290 0 L290 219 L78 219 L78 310 L290 310 L290 530 L381 530 L381 310 L594 310 L594 219 L381 219 Z " />
<glyph glyph-name="comma" unicode="&#x2c;" horiz-adv-x="256" d="M58 135 L199 135 L199 71 Q199 34 193 3 Q187 -28 178 -53.5 Q169 -79 158.5 -99.5 Q148 -120 138 -135 L69 -135 Q89 -101 99.5 -65.5 Q110 -30 114 0 L58 0 L58 135 Z " />
<glyph glyph-name="hyphen" unicode="&#x2d;" horiz-adv-x="467" d="M76 217 L76 311 L398 311 L398 217 L76 217 Z " />
<glyph glyph-name="period" unicode="&#x2e;" horiz-adv-x="256" d="M58 135 L199 135 L199 0 L58 0 L58 135 Z " />
<glyph glyph-name="slash" unicode="&#x2f;" horiz-adv-x="392" d="M378 720 L79 -114 L-22 -114 L276 720 L378 720 Z " />
<glyph glyph-name="zero" unicode="0" horiz-adv-x="569" d="M33 345 Q33 443 56 511.5 Q79 580 115.5 622.5 Q152 665 197.5 684.5 Q243 704 288 704 Q331 704 375 687 Q419 670 454.5 628.5 Q490 587 512.5 518.5 Q535 450 535 348 Q535 235 509.5 163 Q484 91 446.5 50 Q409 9 365 -6.5 Q321 -22 285 -22 Q242 -22 197 -5 Q152 12 115.5 54 Q79 96 56 167 Q33 238 33 345 Z M418 345 Q418 476 382.5 539.5 Q347 603 285 603 Q259 603 235 589 Q211 575 192.5 544.5 Q174 514 163 465.5 Q152 417 152 348 Q152 275 162 224 Q172 173 190 140.5 Q208 108 232.5 93.5 Q257 79 287 79 Q312 79 335.5 93 Q359 107 377.5 138.5 Q396 170 407 220.5 Q418 271 418 345 Z " />
<glyph glyph-name="one" unicode="1" horiz-adv-x="569" d="M233 579 L136 579 L136 682 L347 682 L347 0 L233 0 L233 579 Z " />
<glyph glyph-name="two" unicode="2" horiz-adv-x="569" d="M74 92 L285 327 Q305 350 323 372.5 Q341 395 354.5 417.5 Q368 440 376 463 Q384 486 384 510 Q384 549 359.5 576 Q335 603 289 603 Q246 603 219 573 Q192 543 192 494 L74 494 Q75 539 90 577 Q105 615 132.5 643.5 Q160 672 200.5 688 Q241 704 292 704 Q343 704 382.5 689 Q422 674 448.5 648.5 Q475 623 489 589 Q503 555 503 516 Q503 481 493.5 450 Q484 419 466 388 Q448 357 422 325.5 Q396 294 363 258 L219 103 L514 103 L514 0 L74 0 L74 92 Z " />
<glyph glyph-name="three" unicode="3" horiz-adv-x="569" d="M78 516 Q80 553 94.5 587.5 Q109 622 136 647.5 Q163 673 202 688.5 Q241 704 292 704 Q341 704 379.5 690.5 Q418 677 445 653 Q472 629 486.5 596.5 Q501 564 501 527 Q501 497 491 472 Q481 447 464.5 427.5 Q448 408 426.5 394.5 Q405 381 383 375 L383 373 Q445 360 484.5 314.5 Q524 269 524 194 Q524 152 509.5 113 Q495 74 465.5 44 Q436 14 392 -3.5 Q348 -21 290 -21 Q234 -21 192.5 -5.5 Q151 10 122 37 Q93 64 77.5 101 Q62 138 59 182 L174 182 Q180 135 210 105.5 Q240 76 293 76 Q344 76 375.5 110.5 Q407 145 407 197 Q407 222 399 243.5 Q391 265 373.5 281.5 Q356 298 330 307.5 Q304 317 268 317 L228 317 L228 413 L268 413 Q320 413 351 440.5 Q382 468 382 517 Q382 533 376.5 549 Q371 565 360 578 Q349 591 331.5 598.5 Q314 606 290 606 Q265 606 247 598.5 Q229 591 217.5 578 Q206 565 199.5 549 Q193 533 192 516 L78 516 Z " />
<glyph glyph-name="four" unicode="4" horiz-adv-x="569" d="M447 142 L447 0 L335 0 L335 142 L32 142 L32 236 L336 682 L447 682 L447 241 L534 241 L534 142 L447 142 Z M140 241 L335 241 L335 451 Q335 481 335 495.5 Q335 510 336 531 L333 531 Q324 513 313.5 495 Q303 477 284 449 L140 241 Z " />
<glyph glyph-name="five" unicode="5" horiz-adv-x="569" d="M211 432 Q225 436 242.5 438 Q260 440 276 440 Q330 440 375 424.5 Q420 409 451.5 380 Q483 351 500.5 309.5 Q518 268 518 216 Q518 172 502.5 129.5 Q487 87 457 53 Q427 19 382.5 -1.5 Q338 -22 280 -22 Q225 -22 183 -6 Q141 10 112 37 Q83 64 67 100 Q51 136 48 175 L169 175 Q174 137 201.5 109 Q229 81 283 81 Q306 81 327 90 Q348 99 363.5 115 Q379 131 388 154 Q397 177 397 206 Q397 269 359.5 303.5 Q322 338 248 338 Q213 338 170.5 332 Q128 326 89 316 L124 682 L471 682 L471 579 L226 579 L211 432 Z " />
<glyph glyph-name="six" unicode="6" horiz-adv-x="569" d="M29 225 Q29 288 53.5 340 Q78 392 113 443 L284 682 L412 682 L254 463 Q264 467 281 469 Q298 471 312 471 Q361 469 402.5 450 Q444 431 474.5 398 Q505 365 522 321 Q539 277 539 225 Q539 174 520 129 Q501 84 466.5 50.5 Q432 17 385 -2.5 Q338 -22 283 -22 Q227 -22 180.5 -3.5 Q134 15 100 47.5 Q66 80 47.5 125.5 Q29 171 29 225 Z M147 224 Q147 192 157.5 165.5 Q168 139 186.5 120 Q205 101 229.5 90 Q254 79 283 79 Q313 79 338 90 Q363 101 381.5 120 Q400 139 410.5 165.5 Q421 192 421 224 Q421 255 411 282 Q401 309 383 328.5 Q365 348 339.5 359.5 Q314 371 283 371 Q253 371 228 360.5 Q203 350 185 330.5 Q167 311 157 284 Q147 257 147 224 Z " />
<glyph glyph-name="seven" unicode="7" horiz-adv-x="569" d="M507 586 L233 0 L107 0 L387 579 L72 579 L72 682 L507 682 L507 586 Z " />
<glyph glyph-name="eight" unicode="8" horiz-adv-x="569" d="M184 508 Q184 485 192.5 466 Q201 447 214.5 433.5 Q228 420 246 412.5 Q264 405 283 405 Q329 405 357 434 Q385 463 385 508 Q385 553 356.5 579.5 Q328 606 284 606 Q243 606 213.5 579.5 Q184 553 184 508 Z M166 195 Q166 143 199 109.5 Q232 76 286 76 Q338 76 371 106.5 Q404 137 404 195 Q404 249 371 282 Q338 315 287 315 Q234 315 200 281.5 Q166 248 166 195 Z M521 190 Q521 149 506.5 110.5 Q492 72 463 43 Q434 14 389.5 -3.5 Q345 -21 285 -21 Q225 -21 180.5 -4 Q136 13 106.5 41.5 Q77 70 62.5 107 Q48 144 48 185 Q48 254 80 298 Q112 342 169 365 L169 367 Q119 388 93.5 426.5 Q68 465 68 518 Q68 556 83 589.5 Q98 623 126 648.5 Q154 674 194.5 689 Q235 704 285 704 Q334 704 374 689 Q414 674 442 649 Q470 624 485 591 Q500 558 500 522 Q500 464 472 423.5 Q444 383 400 367 L400 365 Q460 343 490.5 298 Q521 253 521 190 Z " />
<glyph glyph-name="nine" unicode="9" horiz-adv-x="569" d="M539 457 Q539 394 515 342 Q491 290 455 239 L284 0 L157 0 L314 219 Q305 215 287.5 213 Q270 211 256 211 Q206 212 164.5 231 Q123 250 93 283 Q63 316 46.5 360.5 Q30 405 30 457 Q30 508 49 553 Q68 598 102 631.5 Q136 665 183 684.5 Q230 704 286 704 Q341 704 387.5 685.5 Q434 667 468 634.5 Q502 602 520.5 556.5 Q539 511 539 457 Z M421 458 Q421 489 410.5 516 Q400 543 382 562 Q364 581 339 592 Q314 603 285 603 Q256 603 231 592 Q206 581 187.5 562 Q169 543 158.5 516 Q148 489 148 458 Q148 427 158 400 Q168 373 186 353.5 Q204 334 229 322.5 Q254 311 285 311 Q315 311 340 321.5 Q365 332 383 351.5 Q401 371 411 398 Q421 425 421 458 Z " />
<glyph glyph-name="colon" unicode="&#x3a;" horiz-adv-x="264" d="M62 468 L202 468 L202 333 L62 333 L62 468 Z M62 135 L202 135 L202 0 L62 0 L62 135 Z " />
<glyph glyph-name="semicolon" unicode="&#x3b;" horiz-adv-x="264" d="M62 135 L202 135 L202 71 Q202 34 196 3 Q190 -28 181 -53.5 Q172 -79 161.5 -99.5 Q151 -120 141 -135 L72 -135 Q93 -101 103.5 -65.5 Q114 -30 118 0 L62 0 L62 135 Z M62 468 L202 468 L202 333 L62 333 L62 468 Z " />
<glyph glyph-name="less" unicode="&#x3c;" horiz-adv-x="672" d="M83 226 L83 304 L588 534 L588 432 L210 266 L210 264 L588 99 L588 -4 L83 226 Z " />
<glyph glyph-name="equal" unicode="&#x3d;" horiz-adv-x="672" d="M76 333 L76 423 L595 423 L595 333 L76 333 Z M76 107 L76 197 L595 197 L595 107 L76 107 Z " />
<glyph glyph-name="greater" unicode="&#x3e;" horiz-adv-x="672" d="M83 -4 L83 98 L462 263 L462 266 L83 432 L83 534 L588 304 L588 226 L83 -4 Z " />
<glyph glyph-name="question" unicode="&#x3f;" horiz-adv-x="454" d="M327 325 Q299 298 287 270.5 Q275 243 275 202 L175 202 Q175 229 177 251.5 Q179 274 184.5 293.5 Q190 313 200 330.5 Q210 348 227 367 Q247 389 263 406.5 Q279 424 290.5 440 Q302 456 308 473 Q314 490 314 512 Q314 550 290 576.5 Q266 603 223 603 Q185 603 158 576 Q131 549 131 501 L17 501 Q18 547 33.5 584.5 Q49 622 77 648.5 Q105 675 143 689.5 Q181 704 227 704 Q276 704 314 689.5 Q352 675 378.5 650 Q405 625 418.5 591.5 Q432 558 432 520 Q432 488 423.5 461 Q415 434 401 410 Q387 386 367.5 365 Q348 344 327 325 Z M165 112 L284 112 L284 0 L165 0 L165 112 Z " />
<glyph glyph-name="at" unicode="&#x40;" horiz-adv-x="941" d="M882 356 Q882 297 866.5 248.5 Q851 200 824.5 164.5 Q798 129 762 109.5 Q726 90 685 90 Q633 90 600.5 113.5 Q568 137 563 181 L559 181 Q536 136 495.5 113 Q455 90 416 90 Q379 90 350 104 Q321 118 301.5 142.5 Q282 167 271.5 201 Q261 235 261 274 Q261 321 275 365.5 Q289 410 315.5 445 Q342 480 380 501.5 Q418 523 465 523 Q503 523 531 504 Q559 485 576 455 L578 455 L588 513 L678 513 L640 268 Q638 254 636.5 241 Q635 228 635 217 Q635 194 648 177.5 Q661 161 693 161 Q716 161 735 175 Q754 189 768 214.5 Q782 240 789.5 275 Q797 310 797 351 Q797 483 717.5 558 Q638 633 479 633 Q400 633 338 605 Q276 577 232.5 529.5 Q189 482 166 419.5 Q143 357 143 288 Q143 219 166 162 Q189 105 232 64.5 Q275 24 336 2 Q397 -20 473 -20 Q535 -20 588.5 -10 Q642 0 675 16 L702 -44 Q660 -67 598.5 -79 Q537 -91 465 -91 Q375 -91 300.5 -64.5 Q226 -38 172 11.5 Q118 61 88 131.5 Q58 202 58 289 Q58 376 89 451.5 Q120 527 176 583 Q232 639 310.5 671.5 Q389 704 484 704 Q586 704 661 675 Q736 646 785 598 Q834 550 858 487 Q882 424 882 356 Z M561 345 Q561 393 540 421.5 Q519 450 477 450 Q448 450 425 435 Q402 420 386.5 396 Q371 372 363 340.5 Q355 309 355 276 Q355 224 376.5 193.5 Q398 163 436 163 Q466 163 489 179 Q512 195 528 220.5 Q544 246 552.5 278.5 Q561 311 561 345 Z " />
<glyph glyph-name="A" unicode="A" horiz-adv-x="652" d="M278 682 L386 682 L645 0 L522 0 L461 167 L189 167 L127 0 L7 0 L278 682 Z M220 257 L430 257 L367 432 Q356 461 346.5 492 Q337 523 329 550 L324 550 Q316 522 305.5 490.5 Q295 459 284 431 L220 257 Z " />
<glyph glyph-name="B" unicode="B" horiz-adv-x="554" d="M71 682 L244 682 Q350 682 412 637.5 Q474 593 474 509 Q474 480 464.5 456.5 Q455 433 439 415 Q423 397 402 384.5 Q381 372 357 365 L357 363 Q396 358 426 342.5 Q456 327 476 304 Q496 281 506 252.5 Q516 224 516 193 Q516 145 498 109 Q480 73 448.5 49 Q417 25 374 12.5 Q331 0 282 0 L71 0 L71 682 Z M396 202 Q396 251 363 280 Q330 309 267 309 L184 309 L184 95 L276 95 Q336 95 366 123.5 Q396 152 396 202 Z M356 498 Q356 544 324.5 566 Q293 588 240 588 L184 588 L184 402 L245 402 Q300 402 328 428 Q356 454 356 498 Z " />
<glyph glyph-name="C" unicode="C" horiz-adv-x="764" d="M388 704 Q459 704 514 684 Q569 664 608.5 632 Q648 600 672.5 560.5 Q697 521 708 482 L579 482 Q570 506 553 528 Q536 550 512 566.5 Q488 583 456.5 592.5 Q425 602 387 602 Q339 602 297 584 Q255 566 223.5 532.5 Q192 499 174 450.5 Q156 402 156 342 Q156 288 173 240.5 Q190 193 221 157 Q252 121 295.5 100.5 Q339 80 391 80 Q430 80 461.5 90.5 Q493 101 517.5 119 Q542 137 559.5 161 Q577 185 587 212 L719 212 Q701 162 671.5 119.5 Q642 77 601 45.5 Q560 14 507 -4 Q454 -22 387 -22 Q308 -22 243 6 Q178 34 132 82.5 Q86 131 60.5 198 Q35 265 35 343 Q35 421 61.5 487 Q88 553 135.5 601.5 Q183 650 247.5 677 Q312 704 388 704 Z " />
<glyph glyph-name="D" unicode="D" horiz-adv-x="708" d="M299 682 Q391 682 461 655 Q531 628 578 581.5 Q625 535 649 473 Q673 411 673 341 Q673 272 648 210 Q623 148 575 101.5 Q527 55 457 27.5 Q387 0 297 0 L71 0 L71 682 L299 682 Z M297 105 Q362 105 410 123.5 Q458 142 489.5 174.5 Q521 207 536.5 250 Q552 293 552 341 Q552 393 535.5 436.5 Q519 480 487 511 Q455 542 407.5 559.5 Q360 577 297 577 L189 577 L189 105 L297 105 Z " />
<glyph glyph-name="E" unicode="E" horiz-adv-x="535" d="M464 578 L188 578 L188 403 L454 403 L454 302 L188 302 L188 104 L475 104 L475 0 L70 0 L70 682 L464 682 L464 578 Z " />
<glyph glyph-name="F" unicode="F" horiz-adv-x="508" d="M464 578 L189 578 L189 388 L454 388 L454 288 L189 288 L189 0 L70 0 L70 682 L464 682 L464 578 Z " />
<glyph glyph-name="G" unicode="G" horiz-adv-x="773" d="M738 373 L738 351 Q738 279 716 211.5 Q694 144 650 92.5 Q606 41 541 10 Q476 -21 389 -21 Q310 -21 245 8 Q180 37 133.5 86 Q87 135 61 200.5 Q35 266 35 339 Q35 416 62 482.5 Q89 549 136 598 Q183 647 248 675 Q313 703 389 703 Q451 703 503.5 688 Q556 673 597 646 Q638 619 668 581 Q698 543 715 497 L587 497 Q562 545 511.5 573 Q461 601 392 601 Q340 601 296.5 582 Q253 563 222 528.5 Q191 494 173.5 446.5 Q156 399 156 342 Q156 282 174.5 233.5 Q193 185 225 151.5 Q257 118 301.5 99.5 Q346 81 398 81 Q442 81 479 96 Q516 111 544 136.5 Q572 162 589.5 197 Q607 232 612 273 L355 273 L355 373 L738 373 Z " />
<glyph glyph-name="H" unicode="H" horiz-adv-x="693" d="M504 300 L189 300 L189 0 L71 0 L71 682 L189 682 L189 405 L504 405 L504 682 L622 682 L622 0 L504 0 L504 300 Z " />
<glyph glyph-name="I" unicode="I" horiz-adv-x="259" d="M70 682 L188 682 L188 0 L70 0 L70 682 Z " />
<glyph glyph-name="J" unicode="J" horiz-adv-x="369" d="M189 682 L307 682 L307 195 Q307 136 294.5 95 Q282 54 257 28 Q232 2 196 -9.5 Q160 -21 114 -21 Q88 -21 58 -15 Q28 -9 10 -1 L10 100 Q27 92 53.5 86.5 Q80 81 99 81 Q146 81 167.5 105.5 Q189 130 189 190 L189 682 Z " />
<glyph glyph-name="K" unicode="K" horiz-adv-x="629" d="M243 308 Q231 296 215.5 279.5 Q200 263 189 252 L189 0 L71 0 L71 682 L189 682 L189 396 L461 682 L612 682 L325 388 L645 0 L494 0 L243 308 Z " />
<glyph glyph-name="L" unicode="L" horiz-adv-x="485" d="M70 682 L188 682 L188 104 L475 104 L475 0 L70 0 L70 682 Z " />
<glyph glyph-name="M" unicode="M" horiz-adv-x="819" d="M782 0 L668 0 L632 361 Q630 379 628 401 Q626 423 624 445 Q622 467 620 487.5 Q618 508 617 524 L612 524 Q602 488 589 443 Q576 398 564 360 L451 0 L363 0 L249 368 Q238 403 224.5 444 Q211 485 203 524 L196 524 Q194 487 191 446 Q188 405 184 369 L146 0 L38 0 L117 682 L252 682 L372 311 Q381 283 391 248.5 Q401 214 408 186 L412 186 Q415 200 420 216.5 Q425 233 430 249.5 Q435 266 440 282 Q445 298 449 311 L568 682 L702 682 L782 0 Z " />
<glyph glyph-name="N" unicode="N" horiz-adv-x="675" d="M172 503 Q172 490 172.5 472 Q173 454 173.5 435 Q174 416 174.5 398 Q175 380 175 367 L175 0 L70 0 L70 682 L175 682 L378 374 Q430 295 457.5 249.5 Q485 204 500 176 L502 176 Q502 189 501.5 207 Q501 225 500.5 243.5 Q500 262 500 279.5 Q500 297 500 309 L500 682 L604 682 L604 0 L500 0 L306 293 Q274 341 253 374 Q232 407 217 431 Q202 455 192.5 472 Q183 489 175 503 L172 503 Z " />
<glyph glyph-name="O" unicode="O" horiz-adv-x="793" d="M156 341 Q156 286 174.5 239 Q193 192 225 157.5 Q257 123 301 103.5 Q345 84 396 84 Q447 84 491.5 103.5 Q536 123 568 157.5 Q600 192 618.5 239 Q637 286 637 341 Q637 395 619.5 442 Q602 489 570.5 523.5 Q539 558 495 578 Q451 598 397 598 Q346 598 302 578.5 Q258 559 225.5 525 Q193 491 174.5 443.5 Q156 396 156 341 Z M35 341 Q35 414 62 480 Q89 546 137.5 595.5 Q186 645 252.5 674.5 Q319 704 398 704 Q482 704 548.5 674 Q615 644 661.5 593.5 Q708 543 733 477.5 Q758 412 758 341 Q758 266 730.5 200 Q703 134 654.5 84.5 Q606 35 540 6.5 Q474 -22 397 -22 Q303 -22 235 11 Q167 44 122.5 96 Q78 148 56.5 213 Q35 278 35 341 Z " />
<glyph glyph-name="P" unicode="P" horiz-adv-x="554" d="M415 465 Q415 490 407.5 511.5 Q400 533 384 549 Q368 565 342.5 574 Q317 583 281 583 L188 583 L188 347 L279 347 Q319 347 345.5 356.5 Q372 366 387.5 382.5 Q403 399 409 420.5 Q415 442 415 465 Z M70 682 L280 682 Q335 682 381.5 669 Q428 656 462 629.5 Q496 603 515.5 562.5 Q535 522 535 467 Q535 366 471.5 307.5 Q408 249 274 249 L188 249 L188 0 L70 0 L70 682 Z " />
<glyph glyph-name="Q" unicode="Q" horiz-adv-x="793" d="M553 13 Q518 -4 478.5 -13 Q439 -22 396 -22 Q303 -22 234.5 11 Q166 44 121.5 96 Q77 148 55.5 213 Q34 278 34 341 Q34 414 61 480 Q88 546 136.5 595.5 Q185 645 251.5 674.5 Q318 704 397 704 Q481 704 547.5 674 Q614 644 660.5 593.5 Q707 543 732 477.5 Q757 412 757 341 Q757 260 726 191 Q695 122 640 72 L731 -40 L650 -106 L553 13 Z M155 341 Q155 286 173.5 239 Q192 192 224.5 157.5 Q257 123 300.5 103.5 Q344 84 395 84 Q419 84 440.5 88.5 Q462 93 482 101 L393 211 L474 277 L568 160 Q600 195 618 240.5 Q636 286 636 341 Q636 395 618.5 442 Q601 489 569.5 523.5 Q538 558 494 578 Q450 598 396 598 Q345 598 301 578.5 Q257 559 224.5 525 Q192 491 173.5 443.5 Q155 396 155 341 Z " />
<glyph glyph-name="R" unicode="R" horiz-adv-x="589" d="M589 0 L447 0 L253 275 L188 275 L188 0 L70 0 L70 682 L276 682 Q345 682 392 664.5 Q439 647 468.5 618.5 Q498 590 511 553 Q524 516 524 477 Q524 441 512.5 410 Q501 379 480.5 355 Q460 331 433.5 314 Q407 297 377 290 L589 0 Z M402 474 Q402 526 371.5 554.5 Q341 583 284 583 L188 583 L188 368 L285 368 Q342 368 372 398 Q402 428 402 474 Z " />
<glyph glyph-name="S" unicode="S" horiz-adv-x="555" d="M373 520 Q368 558 343 582 Q318 606 276 606 Q234 606 209 582.5 Q184 559 184 521 Q184 479 216.5 455 Q249 431 306 413 Q361 396 398.5 373 Q436 350 459 322 Q482 294 492.5 260.5 Q503 227 503 188 Q503 150 489.5 112.5 Q476 75 448 45 Q420 15 378 -3.5 Q336 -22 279 -22 Q183 -22 120 30 Q57 82 43 184 L163 184 Q171 135 200 105.5 Q229 76 280 76 Q306 76 325.5 85 Q345 94 358.5 108.5 Q372 123 379 142 Q386 161 386 181 Q386 230 354.5 259.5 Q323 289 254 311 Q155 343 111.5 395 Q68 447 68 520 Q68 560 84 594 Q100 628 128 652.5 Q156 677 194 690.5 Q232 704 277 704 Q323 704 360.5 690.5 Q398 677 425.5 652.5 Q453 628 469.5 594 Q486 560 489 520 L373 520 Z " />
<glyph glyph-name="T" unicode="T" horiz-adv-x="478" d="M180 578 L10 578 L10 682 L468 682 L468 578 L298 578 L298 0 L180 0 L180 578 Z " />
<glyph glyph-name="U" unicode="U" horiz-adv-x="631" d="M316 -22 Q265 -22 219 -6.5 Q173 9 137.5 43.5 Q102 78 81 134 Q60 190 60 271 L60 682 L178 682 L178 260 Q178 178 214 129 Q250 80 316 80 Q354 80 380 93.5 Q406 107 422.5 131 Q439 155 446 188 Q453 221 453 260 L453 682 L570 682 L570 273 Q570 193 550.5 136.5 Q531 80 497 45 Q463 10 416.5 -6 Q370 -22 316 -22 Z " />
<glyph glyph-name="V" unicode="V" horiz-adv-x="615" d="M360 0 L253 0 L1 682 L128 682 L266 280 Q276 251 288.5 211.5 Q301 172 309 140 L311 140 Q320 174 332 212.5 Q344 251 355 281 L494 682 L615 682 L360 0 Z " />
<glyph glyph-name="W" unicode="W" horiz-adv-x="855" d="M457 390 Q447 432 441.5 465 Q436 498 433 535 L429 535 Q424 498 419.5 467 Q415 436 404 393 L314 0 L191 0 L12 682 L129 682 L226 282 Q232 257 236 239 Q240 221 243 206.5 Q246 192 248 179 Q250 166 253 152 L257 152 Q262 184 269 219.5 Q276 255 284 291 L376 682 L489 682 L584 284 Q595 241 600 212 Q605 183 610 152 L614 152 Q619 189 625.5 223 Q632 257 638 283 L728 682 L844 682 L676 0 L550 0 L457 390 Z " />
<glyph glyph-name="X" unicode="X" horiz-adv-x="594" d="M251 518 Q265 496 276.5 477.5 Q288 459 299 439 L302 439 Q314 461 325 480 Q336 499 350 520 L454 682 L580 682 L359 356 L590 0 L457 0 L350 173 Q336 196 322.5 219 Q309 242 295 265 L293 265 Q279 242 264.5 218 Q250 194 236 171 L131 0 L4 0 L233 352 L12 682 L146 682 L251 518 Z " />
<glyph glyph-name="Y" unicode="Y" horiz-adv-x="570" d="M227 274 L9 682 L139 682 L254 459 Q265 437 274 417 Q283 397 290 377 L292 377 Q300 398 309 416.5 Q318 435 329 458 L439 682 L562 682 L345 275 L345 0 L227 0 L227 274 Z " />
<glyph glyph-name="Z" unicode="Z" horiz-adv-x="612" d="M56 682 L556 682 L556 584 L185 104 L572 104 L572 0 L39 0 L39 97 L410 578 L56 578 L56 682 Z " />
<glyph glyph-name="bracketleft" unicode="&#x5b;" horiz-adv-x="365" d="M301 636 L195 636 L195 -108 L301 -108 L301 -200 L92 -200 L92 728 L301 728 L301 636 Z " />
<glyph glyph-name="backslash" unicode="&#x5c;" horiz-adv-x="420" d="M324 -114 L7 720 L108 720 L426 -114 L324 -114 Z " />
<glyph glyph-name="bracketright" unicode="&#x5d;" horiz-adv-x="365" d="M64 728 L273 728 L273 -200 L64 -200 L64 -108 L170 -108 L170 636 L64 636 L64 728 Z " />
<glyph glyph-name="asciicircum" unicode="&#x5e;" horiz-adv-x="668" d="M506 326 L335 607 L332 607 L162 326 L57 326 L289 704 L379 704 L612 326 L506 326 Z " />
<glyph glyph-name="underscore" unicode="&#x5f;" horiz-adv-x="550" d="M0 -151 L550 -151 L550 -238 L0 -238 L0 -151 Z " />
<glyph glyph-name="quoteleft" unicode="&#x2018;" horiz-adv-x="256" d="M194 473 L63 473 L63 533 Q63 591 78 637 Q93 683 116 720 L181 720 Q164 694 154.5 662 Q145 630 143 597 L194 597 L194 473 Z " />
<glyph glyph-name="a" unicode="a" horiz-adv-x="604" d="M538 0 L429 0 L429 61 L426 61 Q401 30 361.5 6.5 Q322 -17 262 -17 Q221 -17 180 -1 Q139 15 106 47.5 Q73 80 52.5 128 Q32 176 32 240 Q32 297 51 344 Q70 391 102.5 424 Q135 457 178 475.5 Q221 494 270 494 Q300 494 324 487 Q348 480 367.5 468.5 Q387 457 401.5 442.5 Q416 428 427 414 L429 414 L429 479 L538 479 L538 0 Z M147 240 Q147 210 155.5 181.5 Q164 153 182 130.5 Q200 108 227.5 94.5 Q255 81 292 81 Q320 81 345.5 92.5 Q371 104 390.5 124.5 Q410 145 422 173.5 Q434 202 434 237 Q434 273 423 303 Q412 333 393 354 Q374 375 348 386.5 Q322 398 293 398 Q256 398 228.5 384.5 Q201 371 183 348.5 Q165 326 156 297.5 Q147 269 147 240 Z " />
<glyph glyph-name="b" unicode="b" horiz-adv-x="604" d="M66 720 L175 720 L175 418 L178 418 Q190 431 205 444.5 Q220 458 240.5 469 Q261 480 286.5 487 Q312 494 345 494 Q387 494 427.5 477 Q468 460 500 427.5 Q532 395 552 347 Q572 299 572 238 Q572 179 552.5 132 Q533 85 500.5 52 Q468 19 426.5 1 Q385 -17 340 -17 Q282 -17 242.5 5.5 Q203 28 179 58 L176 58 L176 0 L66 0 L66 720 Z M457 239 Q457 269 448 297.5 Q439 326 421 347.5 Q403 369 376 382.5 Q349 396 312 396 Q283 396 257 384.5 Q231 373 212 352.5 Q193 332 182 302.5 Q171 273 171 237 Q171 202 182.5 173 Q194 144 213.5 123.5 Q233 103 258.5 91.5 Q284 80 313 80 Q349 80 376 93.5 Q403 107 421 129.5 Q439 152 448 180.5 Q457 209 457 239 Z " />
<glyph glyph-name="c" unicode="c" horiz-adv-x="547" d="M287 495 Q338 495 377 480 Q416 465 443 441.5 Q470 418 486 389.5 Q502 361 508 335 L393 335 Q382 364 355 382 Q328 400 286 400 Q225 400 186 358 Q147 316 147 240 Q147 206 157 176.5 Q167 147 186 125.5 Q205 104 231 91.5 Q257 79 290 79 Q337 79 362.5 101 Q388 123 400 151 L516 151 Q506 118 488 88 Q470 58 442 34.5 Q414 11 376 -3 Q338 -17 288 -17 Q234 -17 187 1.5 Q140 20 105.5 54 Q71 88 51.5 135.5 Q32 183 32 241 Q32 293 50 339.5 Q68 386 101 420.5 Q134 455 181 475 Q228 495 287 495 Z " />
<glyph glyph-name="d" unicode="d" horiz-adv-x="604" d="M538 0 L429 0 L429 57 L426 57 Q402 29 361 6 Q320 -17 260 -17 Q219 -17 178.5 -1 Q138 15 105.5 47.5 Q73 80 52.5 128 Q32 176 32 240 Q32 296 50.5 343 Q69 390 100.5 423.5 Q132 457 175 476 Q218 495 266 495 Q325 495 362 473 Q399 451 425 419 L428 419 L428 720 L538 720 L538 0 Z M147 240 Q147 210 156 181.5 Q165 153 183 130.5 Q201 108 228 94.5 Q255 81 291 81 Q319 81 345 92.5 Q371 104 391 124.5 Q411 145 422.5 173.5 Q434 202 434 237 Q434 273 423 303 Q412 333 392.5 354.5 Q373 376 347.5 387.5 Q322 399 292 399 Q256 399 228.5 385 Q201 371 183 348.5 Q165 326 156 297.5 Q147 269 147 240 Z " />
<glyph glyph-name="e" unicode="e" horiz-adv-x="551" d="M275 495 Q337 495 382.5 472.5 Q428 450 457.5 414.5 Q487 379 501.5 334.5 Q516 290 516 244 Q516 236 516 227.5 Q516 219 514 211 L144 211 Q144 183 155.5 157.5 Q167 132 186.5 113 Q206 94 232 82.5 Q258 71 287 71 Q324 71 349.5 85 Q375 99 394 125 L509 125 Q497 98 478 72 Q459 46 431.5 26.5 Q404 7 368 -5 Q332 -17 287 -17 Q232 -17 185 2.5 Q138 22 104 56.5 Q70 91 51 139 Q32 187 32 244 Q32 295 48.5 340.5 Q65 386 96.5 420.5 Q128 455 173 475 Q218 495 275 495 Z M275 411 Q246 411 223 401 Q200 391 183.5 374.5 Q167 358 157 336.5 Q147 315 145 292 L404 292 Q401 316 391 337.5 Q381 359 364.5 375.5 Q348 392 325 401.5 Q302 411 275 411 Z " />
<glyph glyph-name="f" unicode="f" horiz-adv-x="315" d="M21 479 L89 479 L89 558 Q89 639 130.5 682 Q172 725 252 725 Q295 725 325 716 L325 624 Q311 628 298 630 Q285 632 271 632 Q233 632 217 611.5 Q201 591 201 556 L201 479 L308 479 L308 385 L201 385 L201 0 L89 0 L89 385 L21 385 L21 479 Z " />
<glyph glyph-name="g" unicode="g" horiz-adv-x="604" d="M539 15 Q539 -117 477.5 -187 Q416 -257 286 -257 Q185 -257 123 -206 Q61 -155 47 -69 L159 -69 Q169 -109 199.5 -136.5 Q230 -164 291 -164 Q360 -164 396 -121.5 Q432 -79 432 1 L432 61 L430 61 Q404 32 364.5 9.5 Q325 -13 267 -13 Q220 -13 177.5 4.5 Q135 22 103 55 Q71 88 52 135 Q33 182 33 241 Q33 296 51 342 Q69 388 100.5 422 Q132 456 176 475 Q220 494 271 494 Q302 494 326.5 487 Q351 480 370.5 468.5 Q390 457 404.5 443.5 Q419 430 429 417 L432 417 L432 479 L539 479 L539 15 Z M147 241 Q147 212 156 184 Q165 156 183 134 Q201 112 228 98.5 Q255 85 291 85 Q320 85 346 96.5 Q372 108 391.5 128 Q411 148 422.5 176.5 Q434 205 434 239 Q434 275 423 304.5 Q412 334 393 354.5 Q374 375 348.5 386.5 Q323 398 293 398 Q257 398 229.5 384.5 Q202 371 183.5 348.5 Q165 326 156 298 Q147 270 147 241 Z " />
<glyph glyph-name="h" unicode="h" horiz-adv-x="566" d="M65 720 L177 720 L177 419 L180 419 Q209 460 247 477.5 Q285 495 325 495 Q362 495 395.5 482.5 Q429 470 454.5 443.5 Q480 417 495 375.5 Q510 334 510 276 L510 0 L398 0 L398 270 Q398 332 370.5 364 Q343 396 295 396 Q242 396 209.5 360.5 Q177 325 177 255 L177 0 L65 0 L65 720 Z " />
<glyph glyph-name="i" unicode="i" horiz-adv-x="242" d="M65 479 L177 479 L177 0 L65 0 L65 479 Z M59 699 L183 699 L183 585 L59 585 L59 699 Z " />
<glyph glyph-name="j" unicode="j" horiz-adv-x="242" d="M177 -45 Q177 -152 130 -201.5 Q83 -251 4 -251 Q-26 -251 -48 -246.5 Q-70 -242 -87 -237 L-87 -143 Q-77 -146 -57 -150.5 Q-37 -155 -15 -155 Q23 -155 44 -131 Q65 -107 65 -49 L65 479 L177 479 L177 -45 Z M59 699 L183 699 L183 585 L59 585 L59 699 Z " />
<glyph glyph-name="k" unicode="k" horiz-adv-x="509" d="M214 210 L177 174 L177 0 L65 0 L65 720 L177 720 L177 300 L349 479 L485 479 L291 282 L516 0 L380 0 L214 210 Z " />
<glyph glyph-name="l" unicode="l" horiz-adv-x="242" d="M65 720 L177 720 L177 0 L65 0 L65 720 Z " />
<glyph glyph-name="m" unicode="m" horiz-adv-x="866" d="M65 479 L176 479 L176 419 L178 419 Q201 451 236.5 473 Q272 495 318 495 Q373 495 412 467.5 Q451 440 465 403 Q474 420 489.5 436.5 Q505 453 525.5 466 Q546 479 571 487 Q596 495 625 495 Q707 495 756.5 439.5 Q806 384 806 276 L806 0 L695 0 L695 277 Q695 301 689.5 322.5 Q684 344 672 360.5 Q660 377 642 386.5 Q624 396 599 396 Q578 396 559 388 Q540 380 525 363.5 Q510 347 501 321.5 Q492 296 492 261 L492 0 L380 0 L380 277 Q380 328 355 362 Q330 396 285 396 Q235 396 206 360.5 Q177 325 177 261 L177 0 L65 0 L65 479 Z " />
<glyph glyph-name="n" unicode="n" horiz-adv-x="569" d="M65 479 L176 479 L176 419 L178 419 Q207 460 245.5 477.5 Q284 495 324 495 Q361 495 395 482.5 Q429 470 454.5 443.5 Q480 417 495 375.5 Q510 334 510 276 L510 0 L398 0 L398 270 Q398 332 370.5 364 Q343 396 295 396 Q242 396 209.5 360 Q177 324 177 254 L177 0 L65 0 L65 479 Z " />
<glyph glyph-name="o" unicode="o" horiz-adv-x="577" d="M32 240 Q32 295 51.5 342 Q71 389 105.5 423 Q140 457 187 476 Q234 495 288 495 Q344 495 391 475.5 Q438 456 472 422 Q506 388 525 341 Q544 294 544 240 Q544 187 525 140.5 Q506 94 472 59 Q438 24 391 3.5 Q344 -17 288 -17 Q233 -17 186.5 3 Q140 23 105.5 57.5 Q71 92 51.5 139 Q32 186 32 240 Z M146 240 Q146 205 157.5 176.5 Q169 148 188.5 127 Q208 106 233.5 94.5 Q259 83 288 83 Q320 83 346.5 95 Q373 107 391.5 128 Q410 149 420.5 178 Q431 207 431 240 Q431 272 421 300.5 Q411 329 392.5 350 Q374 371 347.5 383.5 Q321 396 288 396 Q256 396 229.5 384 Q203 372 184.5 351 Q166 330 156 301.5 Q146 273 146 240 Z " />
<glyph glyph-name="p" unicode="p" horiz-adv-x="604" d="M66 479 L175 479 L175 418 L178 418 Q190 431 205 445 Q220 459 239.5 469.5 Q259 480 284.5 487 Q310 494 343 494 Q389 494 430.5 475.5 Q472 457 503.5 423.5 Q535 390 553.5 343 Q572 296 572 238 Q572 182 553.5 135 Q535 88 503 54 Q471 20 428 1.5 Q385 -17 337 -17 Q281 -17 242 5.5 Q203 28 179 58 L176 58 L176 -235 L66 -235 L66 479 Z M457 239 Q457 269 448 297.5 Q439 326 421 347.5 Q403 369 376 382.5 Q349 396 312 396 Q283 396 257 384.5 Q231 373 212 352.5 Q193 332 182 302.5 Q171 273 171 237 Q171 202 182.5 173 Q194 144 213.5 123.5 Q233 103 258.5 91.5 Q284 80 313 80 Q349 80 376 93.5 Q403 107 421 129.5 Q439 152 448 180.5 Q457 209 457 239 Z " />
<glyph glyph-name="q" unicode="q" horiz-adv-x="604" d="M538 -235 L429 -235 L429 57 L426 57 Q402 28 361 5.5 Q320 -17 262 -17 Q222 -17 181 -1 Q140 15 107 47.5 Q74 80 53 128 Q32 176 32 240 Q32 296 50.5 343 Q69 390 101 423.5 Q133 457 176.5 476 Q220 495 270 495 Q299 495 323 488.5 Q347 482 365.5 471 Q384 460 399 446.5 Q414 433 425 419 L428 419 L428 479 L538 479 L538 -235 Z M147 240 Q147 210 156 181.5 Q165 153 183 130.5 Q201 108 228 94.5 Q255 81 291 81 Q319 81 345 92.5 Q371 104 391 124.5 Q411 145 422.5 173.5 Q434 202 434 237 Q434 273 423 303 Q412 333 392.5 354.5 Q373 376 347.5 387.5 Q322 399 292 399 Q256 399 228.5 385 Q201 371 183 348.5 Q165 326 156 297.5 Q147 269 147 240 Z " />
<glyph glyph-name="r" unicode="r" horiz-adv-x="378" d="M354 387 Q343 389 330 390.5 Q317 392 298 392 Q241 392 209 354.5 Q177 317 177 242 L177 0 L65 0 L65 479 L175 479 L175 411 L178 411 Q186 426 199 441 Q212 456 229 468 Q246 480 267 487 Q288 494 312 494 Q326 494 335.5 493.5 Q345 493 354 491 L354 387 Z " />
<glyph glyph-name="s" unicode="s" horiz-adv-x="434" d="M283 356 Q279 382 261.5 398 Q244 414 219 414 Q190 414 174.5 398.5 Q159 383 159 363 Q159 352 162.5 342.5 Q166 333 176.5 324 Q187 315 206.5 305.5 Q226 296 257 286 Q334 261 365 222 Q396 183 396 133 Q396 67 349.5 25 Q303 -17 220 -17 Q134 -17 90.5 25.5 Q47 68 40 135 L144 135 Q148 105 166.5 85 Q185 65 223 65 Q255 65 272 82 Q289 99 289 124 Q289 151 268.5 170.5 Q248 190 189 210 Q121 232 87.5 267 Q54 302 54 358 Q54 388 65.5 413 Q77 438 98 456 Q119 474 149 484.5 Q179 495 217 495 Q256 495 285.5 484 Q315 473 336 454.5 Q357 436 369 410.5 Q381 385 386 356 L283 356 Z " />
<glyph glyph-name="t" unicode="t" horiz-adv-x="334" d="M14 479 L74 479 L74 632 L186 632 L186 479 L305 479 L305 385 L186 385 L186 171 Q186 122 201.5 105 Q217 88 252 88 Q266 88 281.5 90.5 Q297 93 310 96 L310 5 Q291 0 268.5 -3 Q246 -6 225 -6 Q180 -6 151 7 Q122 20 105 42.5 Q88 65 81 96 Q74 127 74 164 L74 385 L14 385 L14 479 Z " />
<glyph glyph-name="u" unicode="u" horiz-adv-x="557" d="M493 0 L382 0 L382 59 L379 59 Q349 17 312 0.5 Q275 -16 237 -16 Q207 -16 175 -5.5 Q143 5 117.5 29.5 Q92 54 75.5 94.5 Q59 135 59 196 L59 479 L171 479 L171 209 Q171 148 197.5 115.5 Q224 83 269 83 Q320 83 350.5 118.5 Q381 154 381 224 L381 479 L493 479 L493 0 Z " />
<glyph glyph-name="v" unicode="v" horiz-adv-x="449" d="M275 0 L173 0 L-4 479 L112 479 L192 241 Q202 211 210.5 178.5 Q219 146 224 121 L228 121 Q235 151 242.5 181.5 Q250 212 260 241 L341 479 L452 479 L275 0 Z " />
<glyph glyph-name="w" unicode="w" horiz-adv-x="710" d="M375 241 Q370 266 364.5 292.5 Q359 319 355 345 L351 345 Q348 319 342 287.5 Q336 256 328 221 L276 0 L142 0 L19 479 L129 479 L193 207 Q201 174 204.5 155 Q208 136 212 112 L216 112 Q221 135 225.5 159.5 Q230 184 237 212 L303 479 L410 479 L477 208 Q485 178 488 156.5 Q491 135 495 112 L498 112 Q502 140 506.5 165 Q511 190 515 207 L581 479 L691 479 L566 0 L433 0 L375 241 Z " />
<glyph glyph-name="x" unicode="x" horiz-adv-x="497" d="M188 243 L23 479 L149 479 L220 372 Q229 358 236 345 Q243 332 249 321 L252 321 Q264 345 279 369 L348 479 L473 479 L308 246 L482 0 L352 0 L276 115 Q267 130 260 143 Q253 156 247 167 L244 167 Q230 142 213 114 L139 0 L13 0 L188 243 Z " />
<glyph glyph-name="y" unicode="y" horiz-adv-x="452" d="M193 -235 L86 -235 L174 2 L-1 479 L114 479 L197 241 Q205 218 214.5 187 Q224 156 229 131 L232 131 Q240 161 247 186.5 Q254 212 264 241 L345 479 L456 479 L193 -235 Z " />
<glyph glyph-name="z" unicode="z" horiz-adv-x="484" d="M48 479 L435 479 L435 390 L178 93 L447 93 L447 0 L36 0 L36 89 L294 386 L48 386 L48 479 Z " />
<glyph glyph-name="braceleft" unicode="&#x7b;" horiz-adv-x="382" d="M320 657 Q282 656 266 635.5 Q250 615 250 578 L250 392 Q250 350 230 315 Q210 280 168 263 L168 261 Q206 248 228 213 Q250 178 250 125 L250 -52 Q250 -89 266 -109 Q282 -129 320 -131 L320 -215 Q230 -214 187.5 -171 Q145 -128 145 -50 L145 138 Q145 172 124 196 Q103 220 62 223 L62 303 Q103 305 124 329.5 Q145 354 145 387 L145 579 Q145 652 186.5 696 Q228 740 320 742 L320 657 Z " />
<glyph glyph-name="bar" unicode="&#x7c;" horiz-adv-x="376" d="M143 -210 L143 790 L232 790 L232 -210 L143 -210 Z " />
<glyph glyph-name="braceright" unicode="&#x7d;" horiz-adv-x="382" d="M62 742 Q153 740 194.5 696 Q236 652 236 579 L236 387 Q236 354 257 329.5 Q278 305 319 303 L319 223 Q278 220 257 196 Q236 172 236 138 L236 -50 Q236 -134 190 -174 Q144 -214 62 -215 L62 -131 Q100 -129 116 -109 Q132 -89 132 -52 L132 125 Q132 178 154 213 Q176 248 214 261 L214 263 Q172 280 152 315 Q132 350 132 392 L132 578 Q132 615 116 635.5 Q100 656 62 657 L62 742 Z " />
<glyph glyph-name="asciitilde" unicode="&#x7e;" horiz-adv-x="668" d="M624 294 Q590 237 549 207.5 Q508 178 448 178 Q416 178 384 188 Q352 198 323 216 Q293 235 269 247 Q245 259 218 259 Q185 259 161.5 240 Q138 221 114 183 L44 229 Q76 287 117.5 316.5 Q159 346 216 346 Q253 346 284.5 334 Q316 322 342 307 Q372 287 398 275.5 Q424 264 450 264 Q484 264 509 285.5 Q534 307 554 339 L624 294 L624 294 Z " />
<glyph glyph-name="fraction" unicode="&#x2044;" horiz-adv-x="192" d="M371 682 L-90 0 L-179 0 L283 682 L371 682 Z " />
<glyph glyph-name="florin" unicode="&#x192;" horiz-adv-x="569" d="M216 388 L137 388 L137 482 L229 482 L238 538 Q252 624 291.5 664 Q331 704 403 704 Q423 704 440.5 701.5 Q458 699 471 697 L471 606 Q460 608 447 609 Q434 610 423 610 Q390 610 372.5 590.5 Q355 571 350 535 L341 482 L429 482 L429 388 L327 388 L252 -86 Q237 -177 196.5 -217 Q156 -257 87 -257 Q42 -257 17 -250 L17 -158 Q28 -160 41.5 -162 Q55 -164 66 -164 Q99 -164 116 -144 Q133 -124 141 -79 L216 388 Z " />
<glyph glyph-name="quotesingle" unicode="&#x27;" horiz-adv-x="217" d="M161 721 L151 489 L65 489 L56 721 L161 721 Z " />
<glyph glyph-name="quotedblleft" unicode="&#x201c;" horiz-adv-x="443" d="M194 473 L63 473 L63 533 Q63 591 78 637 Q93 683 116 720 L181 720 Q164 694 154.5 662 Q145 630 143 597 L194 597 L194 473 Z M380 473 L250 473 L250 533 Q250 591 265 637 Q280 683 303 720 L367 720 Q350 694 341 662 Q332 630 329 597 L380 597 L380 473 Z " />
<glyph glyph-name="guillemotleft" unicode="&#xab;" horiz-adv-x="487" d="M369 455 L439 417 L352 248 L439 79 L369 40 L241 248 L369 455 Z M180 455 L250 417 L162 248 L250 79 L180 40 L52 248 L180 455 Z " />
<glyph glyph-name="guilsinglleft" unicode="&#x2039;" horiz-adv-x="298" d="M180 455 L250 417 L162 248 L250 79 L180 40 L52 248 L180 455 Z " />
<glyph glyph-name="guilsinglright" unicode="&#x203a;" horiz-adv-x="298" d="M118 40 L48 78 L135 247 L48 417 L118 455 L246 247 L118 40 Z " />
<glyph glyph-name="endash" unicode="&#x2013;" horiz-adv-x="556" d="M76 217 L76 311 L480 311 L480 217 L76 217 Z " />
<glyph glyph-name="periodcentered" unicode="&#xb7;" horiz-adv-x="256" d="M61 420 L202 420 L202 285 L61 285 L61 420 Z " />
<glyph glyph-name="paragraph" unicode="&#xb6;" horiz-adv-x="557" d="M431 607 L431 0 L348 0 L348 607 L275 607 L275 0 L193 0 L193 371 Q157 372 127 384 Q97 396 75.5 417 Q54 438 42.5 466.5 Q31 495 31 528 Q31 565 44 594 Q57 623 80 642.5 Q103 662 134 672 Q165 682 200 682 L492 682 L492 607 L431 607 Z " />
<glyph glyph-name="bullet" unicode="&#x2022;" horiz-adv-x="412" d="M66 304 Q66 333 77 358.5 Q88 384 106.5 403 Q125 422 150.5 433 Q176 444 205 444 Q233 444 259 433 Q285 422 304 403 Q323 384 334.5 358.5 Q346 333 346 304 Q346 275 334.5 249.5 Q323 224 304 205 Q285 186 259 175 Q233 164 205 164 Q176 164 150.5 175 Q125 186 106.5 205 Q88 224 77 249.5 Q66 275 66 304 Z " />
<glyph glyph-name="quotesinglbase" unicode="&#x201a;" horiz-adv-x="256" d="M63 124 L193 124 L193 64 Q193 6 178 -40 Q163 -86 140 -123 L75 -123 Q92 -97 101.5 -65 Q111 -33 113 0 L63 0 L63 124 Z " />
<glyph glyph-name="quotedblbase" unicode="&#x201e;" horiz-adv-x="443" d="M249 124 L380 124 L380 64 Q380 6 365 -40 Q350 -86 327 -123 L262 -123 Q279 -97 288.5 -65 Q298 -33 300 0 L249 0 L249 124 Z M63 124 L193 124 L193 64 Q193 6 178 -40 Q163 -86 140 -123 L75 -123 Q92 -97 101.5 -65 Q111 -33 113 0 L63 0 L63 124 Z " />
<glyph glyph-name="quotedblright" unicode="&#x201d;" horiz-adv-x="443" d="M249 720 L380 720 L380 660 Q380 602 365 556 Q350 510 327 473 L262 473 Q279 499 288.5 531 Q298 563 300 596 L249 596 L249 720 Z M63 720 L193 720 L193 660 Q193 602 178 556 Q163 510 140 473 L75 473 Q92 499 101.5 531 Q111 563 113 596 L63 596 L63 720 Z " />
<glyph glyph-name="guillemotright" unicode="&#xbb;" horiz-adv-x="487" d="M118 40 L48 78 L135 247 L48 417 L118 455 L246 247 L118 40 Z M308 40 L237 78 L325 247 L237 417 L308 455 L436 247 L308 40 Z " />
<glyph glyph-name="ellipsis" unicode="&#x2026;" horiz-adv-x="1006" d="M100 135 L240 135 L240 0 L100 0 L100 135 Z M433 135 L573 135 L573 0 L433 0 L433 135 Z M766 135 L906 135 L906 0 L766 0 L766 135 Z " />
<glyph glyph-name="perthousand" unicode="&#x2030;" horiz-adv-x="1144" d="M671 682 L213 0 L121 0 L580 682 L671 682 Z M41 515 Q41 565 55.5 601 Q70 637 93 659.5 Q116 682 144.5 692.5 Q173 703 202 703 Q228 703 255 693.5 Q282 684 304 662 Q326 640 340 604.5 Q354 569 354 517 Q354 460 338 422.5 Q322 385 299 363.5 Q276 342 248.5 333.5 Q221 325 199 325 Q172 325 144 334.5 Q116 344 93 366 Q70 388 55.5 424.5 Q41 461 41 515 Z M268 515 Q268 571 249.5 599 Q231 627 198 627 Q169 627 148.5 601.5 Q128 576 128 516 Q128 456 147.5 428.5 Q167 401 199 401 Q226 401 247 427.5 Q268 454 268 515 Z M437 169 Q437 219 451.5 254.5 Q466 290 488.5 312.5 Q511 335 539.5 345.5 Q568 356 596 356 Q622 356 649.5 346.5 Q677 337 699 315 Q721 293 735 258 Q749 223 749 171 Q749 113 733 75.5 Q717 38 693.5 16.5 Q670 -5 643 -13.5 Q616 -22 593 -22 Q566 -22 538.5 -12.5 Q511 -3 488.5 19 Q466 41 451.5 78 Q437 115 437 169 Z M663 169 Q663 224 644.5 252 Q626 280 593 280 Q564 280 543.5 254.5 Q523 229 523 170 Q523 109 542.5 82 Q562 55 594 55 Q621 55 642 81 Q663 107 663 169 Z M790 169 Q790 219 804.5 254.5 Q819 290 842 312.5 Q865 335 893.5 345.5 Q922 356 950 356 Q976 356 1003.5 346.5 Q1031 337 1053 315 Q1075 293 1089 258 Q1103 223 1103 171 Q1103 113 1087 75.5 Q1071 38 1047.5 16.5 Q1024 -5 997 -13.5 Q970 -22 947 -22 Q920 -22 892.5 -12.5 Q865 -3 842 19 Q819 41 804.5 78 Q790 115 790 169 Z M1016 169 Q1016 280 946 280 Q918 280 897.5 254.5 Q877 229 877 170 Q877 109 896 82 Q915 55 947 55 Q975 55 995.5 81 Q1016 107 1016 169 Z " />
<glyph glyph-name="grave" unicode="&#x60;" horiz-adv-x="324" d="M97 758 L244 616 L194 556 L34 685 L97 758 Z " />
<glyph glyph-name="acute" unicode="&#xb4;" horiz-adv-x="324" d="M228 758 L290 685 L130 556 L80 616 L228 758 Z " />
<glyph glyph-name="circumflex" unicode="&#x2c6;" horiz-adv-x="324" d="M316 613 L271 554 L162 633 L53 554 L8 613 L162 740 L316 613 Z " />
<glyph glyph-name="tilde" unicode="&#x2dc;" horiz-adv-x="324" d="M-7 590 Q-4 645 20 681.5 Q44 718 95 718 Q117 718 133.5 710.5 Q150 703 170 688 Q207 660 230 660 Q242 660 250.5 670 Q259 680 260 709 L331 709 Q329 646 303.5 613.5 Q278 581 228 581 Q205 581 185.5 588.5 Q166 596 147 610 Q127 626 116 632.5 Q105 639 94 639 Q67 639 64 590 L-7 590 Z " />
<glyph glyph-name="macron" unicode="&#xaf;" horiz-adv-x="324" d="M21 597 L21 677 L303 677 L303 597 L21 597 Z " />
<glyph glyph-name="breve" unicode="&#x2d8;" horiz-adv-x="324" d="M325 721 Q323 686 309.5 658 Q296 630 274.5 609.5 Q253 589 224 578 Q195 567 162 567 Q127 567 98 578 Q69 589 47.5 609.5 Q26 630 13.5 658 Q1 686 0 721 L79 721 Q82 689 104 669.5 Q126 650 162 650 Q197 650 220 669.5 Q243 689 245 721 L325 721 Z " />
<glyph glyph-name="dotaccent" unicode="&#x2d9;" horiz-adv-x="324" d="M108 695 L216 695 L216 592 L108 592 L108 695 Z " />
<glyph glyph-name="dieresis" unicode="&#xa8;" horiz-adv-x="324" d="M20 695 L125 695 L125 593 L20 593 L20 695 Z M200 695 L305 695 L305 593 L200 593 L200 695 Z " />
<glyph glyph-name="ring" unicode="&#x2da;" horiz-adv-x="324" d="M102 657 Q102 631 120 613.5 Q138 596 164 596 Q189 596 206 613.5 Q223 631 223 657 Q223 682 206 699 Q189 716 164 716 Q138 716 120 699 Q102 682 102 657 Z M37 657 Q37 683 46.5 705.5 Q56 728 73.5 745 Q91 762 114 772 Q137 782 164 782 Q190 782 212.5 772 Q235 762 252 745 Q269 728 279 705.5 Q289 683 289 657 Q289 630 279 607 Q269 584 252 567 Q235 550 212.5 540 Q190 530 164 530 Q137 530 114 540 Q91 550 73.5 567 Q56 584 46.5 607 Q37 630 37 657 Z " />
<glyph glyph-name="cedilla" unicode="&#xb8;" horiz-adv-x="324" d="M202 0 L186 -39 Q227 -46 249.5 -73.5 Q272 -101 272 -136 Q272 -183 241.5 -213 Q211 -243 148 -243 Q120 -243 91 -238 Q62 -233 42 -226 L66 -159 Q77 -164 98.5 -167.5 Q120 -171 137 -171 Q161 -171 175 -163 Q189 -155 189 -137 Q189 -117 166.5 -105.5 Q144 -94 95 -94 L133 0 L202 0 Z " />
<glyph glyph-name="hungarumlaut" unicode="&#x2dd;" horiz-adv-x="324" d="M193 702 L80 549 L16 590 L112 754 L193 702 Z M364 702 L251 549 L187 590 L283 754 L364 702 Z " />
<glyph glyph-name="ogonek" unicode="&#x2db;" horiz-adv-x="324" d="M242 -215 Q231 -218 215 -220 Q199 -222 184 -222 Q152 -222 130 -213.5 Q108 -205 93.5 -190 Q79 -175 72.5 -155 Q66 -135 66 -113 Q66 -81 85 -50 Q104 -19 139 0 L210 0 Q180 -26 167.5 -49.5 Q155 -73 155 -93 Q155 -117 169 -128 Q183 -139 203 -139 Q212 -139 222 -138 Q232 -137 242 -135 L242 -215 Z " />
<glyph glyph-name="caron" unicode="&#x2c7;" horiz-adv-x="324" d="M8 681 L53 740 L162 661 L271 740 L316 681 L162 554 L8 681 Z " />
<glyph glyph-name="trademark" unicode="&#x2122;" horiz-adv-x="604" d="M527 459 L464 459 L457 569 Q456 586 456 595 Q456 604 456 612 L453 612 Q451 604 449.5 593.5 Q448 583 443 569 L407 459 L359 459 L327 562 Q321 580 318.5 591.5 Q316 603 314 612 L312 612 Q312 604 312 593.5 Q312 583 310 566 L303 459 L239 459 L258 682 L344 682 L374 589 Q379 573 381 566 Q383 559 384 554 L385 554 Q387 562 389 569 Q391 576 396 590 L425 682 L510 682 L527 459 Z M52 682 L230 682 L230 625 L172 625 L172 459 L109 459 L109 625 L52 625 L52 682 Z " />
<glyph glyph-name="Eth" unicode="&#xd0;" horiz-adv-x="732" d="M15 399 L95 399 L95 682 L323 682 Q415 682 485 655 Q555 628 602 581.5 Q649 535 673 473 Q697 411 697 341 Q697 272 672 210 Q647 148 599 101.5 Q551 55 481 27.5 Q411 0 321 0 L95 0 L95 305 L15 305 L15 399 Z M321 103 Q386 103 434 122 Q482 141 513.5 173.5 Q545 206 560.5 249.5 Q576 293 576 341 Q576 393 559.5 437 Q543 481 510.5 512.5 Q478 544 430.5 561.5 Q383 579 321 579 L213 579 L213 399 L382 399 L382 305 L213 305 L213 103 L321 103 Z " />
<glyph glyph-name="onehalf" unicode="&#xbd;" horiz-adv-x="971" d="M163 607 L95 607 L95 684 L255 684 L255 250 L163 250 L163 607 Z M747 682 L286 0 L197 0 L659 682 L747 682 Z M625 62 L763 209 Q789 237 808 262.5 Q827 288 827 317 Q827 341 812 355.5 Q797 370 771 370 Q742 370 728 352.5 Q714 335 712 306 L621 306 Q622 335 632 361 Q642 387 660.5 406 Q679 425 707.5 436 Q736 447 775 447 Q809 447 836 437.5 Q863 428 882.5 410.5 Q902 393 912.5 370 Q923 347 923 320 Q923 299 917 280.5 Q911 262 899 243 Q887 224 869 203 Q851 182 826 156 L751 79 L929 79 L929 0 L625 0 L625 62 Z " />
<glyph glyph-name="onequarter" unicode="&#xbc;" horiz-adv-x="929" d="M163 607 L95 607 L95 684 L255 684 L255 250 L163 250 L163 607 Z M747 682 L286 0 L197 0 L659 682 L747 682 Z M838 75 L838 0 L748 0 L748 75 L548 75 L548 142 L750 434 L838 434 L838 145 L901 145 L901 75 L838 75 Z M627 145 L748 145 L748 276 Q748 295 748.5 302.5 Q749 310 750 324 L747 324 Q741 312 731 295.5 Q721 279 713 268 L627 145 Z " />
<glyph glyph-name="divide" unicode="&#xf7;" horiz-adv-x="672" d="M78 219 L78 309 L594 309 L594 219 L78 219 Z M401 455 Q401 426 381.5 408.5 Q362 391 336 391 Q310 391 290.5 410 Q271 429 271 454 Q271 481 289.5 500.5 Q308 520 336 520 Q365 520 383 501.5 Q401 483 401 455 Z M401 74 Q401 44 381.5 25.5 Q362 7 337 7 Q310 7 290.5 27 Q271 47 271 73 Q271 99 289.5 118 Q308 137 336 137 Q365 137 383 118.5 Q401 100 401 74 Z " />
<glyph glyph-name="threequarters" unicode="&#xbe;" horiz-adv-x="955" d="M50 569 Q52 625 90.5 661 Q129 697 199 697 Q271 697 308.5 665.5 Q346 634 346 584 Q346 548 324.5 522.5 Q303 497 271 489 L271 487 Q313 477 337 448 Q361 419 361 375 Q361 348 351 323 Q341 298 320.5 278.5 Q300 259 269 247.5 Q238 236 197 236 Q119 236 80 273.5 Q41 311 36 375 L126 375 Q134 309 198 309 Q230 309 248.5 329 Q267 349 267 381 Q267 408 248 428 Q229 448 186 448 L156 448 L156 517 L184 517 Q216 517 234 532 Q252 547 252 572 Q252 594 238.5 609 Q225 624 196 624 Q167 624 154 607 Q141 590 139 569 L50 569 Z M774 682 L313 0 L224 0 L686 682 L774 682 Z M864 75 L864 0 L774 0 L774 75 L574 75 L574 142 L776 434 L864 434 L864 145 L927 145 L927 75 L864 75 Z M653 145 L774 145 L774 276 Q774 295 774.5 302.5 Q775 310 776 324 L773 324 Q767 312 757 295.5 Q747 279 739 268 L653 145 Z " />
<glyph glyph-name="registered" unicode="&#xae;" horiz-adv-x="498" d="M35 488 Q35 533 52 572 Q69 611 98 640.5 Q127 670 166.5 687 Q206 704 250 704 Q294 704 333 687 Q372 670 401 640.5 Q430 611 447 572 Q464 533 464 488 Q464 444 447 405 Q430 366 401 337 Q372 308 333 291 Q294 274 250 274 Q206 274 166.5 291 Q127 308 98 337 Q69 366 52 405 Q35 444 35 488 Z M80 488 Q80 453 93.5 422 Q107 391 130 368 Q153 345 184 332 Q215 319 250 319 Q285 319 316 332 Q347 345 370 368 Q393 391 406 422 Q419 453 419 488 Q419 523 406 554 Q393 585 370 608 Q347 631 316 644.5 Q285 658 250 658 Q215 658 184 644.5 Q153 631 130 608 Q107 585 93.5 554 Q80 523 80 488 Z M366 375 L302 375 L242 458 L222 458 L222 375 L163 375 L163 607 L260 607 Q308 607 329.5 584.5 Q351 562 351 533 Q351 507 336.5 488.5 Q322 470 299 464 L366 375 Z M291 531 Q291 544 282 553.5 Q273 563 249 563 L222 563 L222 500 L249 500 Q291 500 291 531 Z " />
<glyph glyph-name="minus" unicode="&#x2212;" horiz-adv-x="672" d="M78 219 L78 309 L594 309 L594 219 L78 219 Z " />
<glyph glyph-name="copyright" unicode="&#xa9;" horiz-adv-x="822" d="M412 554 Q453 554 484 541 Q515 528 537 508 Q559 488 572.5 462.5 Q586 437 592 413 L503 413 Q494 443 469.5 459.5 Q445 476 410 476 Q359 476 328 441 Q297 406 297 346 Q297 290 328 253 Q359 216 414 216 Q448 216 473 235 Q498 254 507 287 L596 287 Q588 256 571.5 229 Q555 202 531.5 181.5 Q508 161 478 149.5 Q448 138 412 138 Q367 138 330 154 Q293 170 266.5 198 Q240 226 226 264.5 Q212 303 212 348 Q212 393 227 430.5 Q242 468 269 495.5 Q296 523 332.5 538.5 Q369 554 412 554 Z M48 341 Q48 416 76.5 482 Q105 548 154.5 597.5 Q204 647 270 675.5 Q336 704 411 704 Q486 704 552.5 675.5 Q619 647 668 597.5 Q717 548 745.5 482 Q774 416 774 341 Q774 266 745.5 200 Q717 134 668 84.5 Q619 35 552.5 6.5 Q486 -22 411 -22 Q336 -22 270 6.5 Q204 35 154.5 84.5 Q105 134 76.5 200 Q48 266 48 341 Z M106 341 Q106 278 130 222.5 Q154 167 195.5 125.5 Q237 84 292.5 60 Q348 36 411 36 Q474 36 530 60 Q586 84 627 125.5 Q668 167 692 222.5 Q716 278 716 341 Q716 404 692 459.5 Q668 515 627 556.5 Q586 598 530 622 Q474 646 411 646 Q348 646 292.5 622 Q237 598 195.5 556.5 Q154 515 130 459.5 Q106 404 106 341 Z " />
<glyph glyph-name="Aacute" unicode="&#xc1;" horiz-adv-x="652" d="M281 682 L389 682 L648 0 L525 0 L464 167 L192 167 L130 0 L10 0 L281 682 Z M223 257 L433 257 L370 432 Q359 461 349.5 492 Q340 523 332 550 L327 550 Q319 522 308.5 490.5 Q298 459 287 431 L223 257 Z M432 966 L494 893 L334 764 L284 824 L432 966 Z " />
<glyph glyph-name="Acircumflex" unicode="&#xc2;" horiz-adv-x="652" d="M281 682 L389 682 L648 0 L525 0 L464 167 L192 167 L130 0 L10 0 L281 682 Z M223 257 L433 257 L370 432 Q359 461 349.5 492 Q340 523 332 550 L327 550 Q319 522 308.5 490.5 Q298 459 287 431 L223 257 Z M489 826 L457 764 L334 823 L211 764 L179 826 L334 927 L489 826 Z " />
<glyph glyph-name="Agrave" unicode="&#xc0;" horiz-adv-x="652" d="M281 682 L389 682 L648 0 L525 0 L464 167 L192 167 L130 0 L10 0 L281 682 Z M223 257 L433 257 L370 432 Q359 461 349.5 492 Q340 523 332 550 L327 550 Q319 522 308.5 490.5 Q298 459 287 431 L223 257 Z M374 824 L324 764 L164 893 L226 966 L374 824 Z " />
<glyph glyph-name="Atilde" unicode="&#xc3;" horiz-adv-x="652" d="M281 682 L389 682 L648 0 L525 0 L464 167 L192 167 L130 0 L10 0 L281 682 Z M223 257 L433 257 L370 432 Q359 461 349.5 492 Q340 523 332 550 L327 550 Q319 522 308.5 490.5 Q298 459 287 431 L223 257 Z M160 773 Q163 828 187 864.5 Q211 901 262 901 Q284 901 300.5 893.5 Q317 886 337 871 Q374 843 397 843 Q409 843 417.5 853 Q426 863 427 892 L498 892 Q493 764 395 764 Q372 764 352.5 771.5 Q333 779 314 793 Q294 809 283 815.5 Q272 822 261 822 Q234 822 231 773 L160 773 Z " />
<glyph glyph-name="Eacute" unicode="&#xc9;" horiz-adv-x="535" d="M467 578 L191 578 L191 403 L457 403 L457 302 L191 302 L191 104 L478 104 L478 0 L73 0 L73 682 L467 682 L467 578 Z M358 966 L420 893 L260 764 L210 824 L358 966 Z " />
<glyph glyph-name="Ecircumflex" unicode="&#xca;" horiz-adv-x="535" d="M467 578 L191 578 L191 403 L457 403 L457 302 L191 302 L191 104 L478 104 L478 0 L73 0 L73 682 L467 682 L467 578 Z M431 826 L399 764 L276 823 L153 764 L121 826 L276 927 L431 826 Z " />
<glyph glyph-name="Egrave" unicode="&#xc8;" horiz-adv-x="535" d="M467 578 L191 578 L191 403 L457 403 L457 302 L191 302 L191 104 L478 104 L478 0 L73 0 L73 682 L467 682 L467 578 Z M330 824 L280 764 L120 893 L182 966 L330 824 Z " />
<glyph glyph-name="Iacute" unicode="&#xcd;" horiz-adv-x="259" d="M73 682 L191 682 L191 0 L73 0 L73 682 Z M221 966 L283 893 L123 764 L73 824 L221 966 Z " />
<glyph glyph-name="Igrave" unicode="&#xcc;" horiz-adv-x="259" d="M73 682 L191 682 L191 0 L73 0 L73 682 Z M191 824 L141 764 L-19 893 L43 966 L191 824 Z " />
<glyph glyph-name="Oacute" unicode="&#xd3;" horiz-adv-x="793" d="M38 341 Q38 414 65 480 Q92 546 140.5 595.5 Q189 645 255.5 674.5 Q322 704 401 704 Q485 704 551.5 674 Q618 644 664.5 593.5 Q711 543 736 477.5 Q761 412 761 341 Q761 266 733.5 200 Q706 134 657.5 84.5 Q609 35 543 6.5 Q477 -22 400 -22 Q306 -22 238 11 Q170 44 125.5 96 Q81 148 59.5 213 Q38 278 38 341 Z M159 341 Q159 286 177.5 239 Q196 192 228 157.5 Q260 123 304 103.5 Q348 84 399 84 Q450 84 494.5 103.5 Q539 123 571 157.5 Q603 192 621.5 239 Q640 286 640 341 Q640 395 622.5 442 Q605 489 573.5 523.5 Q542 558 498 578 Q454 598 400 598 Q349 598 305 578.5 Q261 559 228.5 525 Q196 491 177.5 443.5 Q159 396 159 341 Z M493 966 L555 893 L395 764 L345 824 L493 966 Z " />
<glyph glyph-name="Ocircumflex" unicode="&#xd4;" horiz-adv-x="793" d="M38 341 Q38 414 65 480 Q92 546 140.5 595.5 Q189 645 255.5 674.5 Q322 704 401 704 Q485 704 551.5 674 Q618 644 664.5 593.5 Q711 543 736 477.5 Q761 412 761 341 Q761 266 733.5 200 Q706 134 657.5 84.5 Q609 35 543 6.5 Q477 -22 400 -22 Q306 -22 238 11 Q170 44 125.5 96 Q81 148 59.5 213 Q38 278 38 341 Z M159 341 Q159 286 177.5 239 Q196 192 228 157.5 Q260 123 304 103.5 Q348 84 399 84 Q450 84 494.5 103.5 Q539 123 571 157.5 Q603 192 621.5 239 Q640 286 640 341 Q640 395 622.5 442 Q605 489 573.5 523.5 Q542 558 498 578 Q454 598 400 598 Q349 598 305 578.5 Q261 559 228.5 525 Q196 491 177.5 443.5 Q159 396 159 341 Z M554 826 L522 764 L399 823 L276 764 L244 826 L399 927 L554 826 Z " />
<glyph glyph-name="Ograve" unicode="&#xd2;" horiz-adv-x="793" d="M39 341 Q39 414 66 480 Q93 546 141.5 595.5 Q190 645 256.5 674 Q323 703 402 703 Q486 703 552.5 673 Q619 643 665.5 592.5 Q712 542 737 476.5 Q762 411 762 340 Q762 265 734.5 199 Q707 133 658.5 83.5 Q610 34 544 5.5 Q478 -23 401 -23 Q307 -23 239 10.5 Q171 44 126.5 96 Q82 148 60.5 213 Q39 278 39 341 Z M160 341 Q160 286 178.5 239 Q197 192 229 157.5 Q261 123 305 103 Q349 83 400 83 Q451 83 495.5 102.5 Q540 122 572 156.5 Q604 191 622.5 238 Q641 285 641 340 Q641 394 623.5 441 Q606 488 574.5 522.5 Q543 557 499 577 Q455 597 401 597 Q350 597 306 578 Q262 559 229.5 525 Q197 491 178.5 443.5 Q160 396 160 341 Z M456 824 L406 763 L246 892 L308 965 L456 824 Z " />
<glyph glyph-name="Otilde" unicode="&#xd5;" horiz-adv-x="793" d="M38 342 Q38 415 65 481 Q92 547 140.5 596.5 Q189 646 255.5 675.5 Q322 705 401 705 Q485 705 551.5 675 Q618 645 664.5 594.5 Q711 544 736 478.5 Q761 413 761 342 Q761 267 733.5 201 Q706 135 657.5 85.5 Q609 36 543 7.5 Q477 -21 400 -21 Q306 -21 238 12 Q170 45 125.5 97 Q81 149 59.5 214 Q38 279 38 342 Z M159 342 Q159 287 177.5 240 Q196 193 228 158.5 Q260 124 304 104.5 Q348 85 399 85 Q450 85 494.5 104.5 Q539 124 571 158.5 Q603 193 621.5 240 Q640 287 640 342 Q640 396 622.5 443 Q605 490 573.5 524.5 Q542 559 498 579 Q454 599 400 599 Q349 599 305 579.5 Q261 560 228.5 526 Q196 492 177.5 444.5 Q159 397 159 342 Z M231 774 Q234 829 258 865.5 Q282 902 333 902 Q355 902 371.5 894.5 Q388 887 408 872 Q445 844 468 844 Q480 844 488.5 854 Q497 864 498 893 L569 893 Q564 765 466 765 Q443 765 423.5 772.5 Q404 780 385 794 Q365 810 354 816.5 Q343 823 332 823 Q305 823 302 774 L231 774 Z " />
<glyph glyph-name="Uacute" unicode="&#xda;" horiz-adv-x="631" d="M316 -22 Q265 -22 219 -6.5 Q173 9 137.5 43.5 Q102 78 81 134 Q60 190 60 271 L60 682 L178 682 L178 260 Q178 178 214 129 Q250 80 316 80 Q354 80 380 93.5 Q406 107 422.5 131 Q439 155 446 188 Q453 221 453 260 L453 682 L570 682 L570 273 Q570 193 550.5 136.5 Q531 80 497 45 Q463 10 416.5 -6 Q370 -22 316 -22 Z M408 966 L470 893 L310 764 L260 824 L408 966 Z " />
<glyph glyph-name="Ugrave" unicode="&#xd9;" horiz-adv-x="631" d="M316 -22 Q265 -22 219 -6.5 Q173 9 137.5 43.5 Q102 78 81 134 Q60 190 60 271 L60 682 L178 682 L178 260 Q178 178 214 129 Q250 80 316 80 Q354 80 380 93.5 Q406 107 422.5 131 Q439 155 446 188 Q453 221 453 260 L453 682 L570 682 L570 273 Q570 193 550.5 136.5 Q531 80 497 45 Q463 10 416.5 -6 Q370 -22 316 -22 Z M370 824 L320 764 L160 893 L222 966 L370 824 Z " />
<glyph glyph-name="Yacute" unicode="&#xdd;" horiz-adv-x="570" d="M230 274 L12 682 L142 682 L257 459 Q268 437 277 417 Q286 397 293 377 L295 377 Q303 398 312 416.5 Q321 435 332 458 L442 682 L565 682 L348 275 L348 0 L230 0 L230 274 Z M381 966 L443 893 L283 764 L233 824 L381 966 Z " />
<glyph glyph-name="aacute" unicode="&#xe1;" horiz-adv-x="604" d="M540 -1 L431 -1 L431 60 L428 60 Q403 29 363.5 5.5 Q324 -18 264 -18 Q223 -18 182 -2 Q141 14 108 46.5 Q75 79 54.5 127 Q34 175 34 239 Q34 296 53 343 Q72 390 104.5 423 Q137 456 180 474.5 Q223 493 272 493 Q302 493 326 486 Q350 479 369 467.5 Q388 456 403 441.5 Q418 427 429 413 L431 413 L431 478 L540 478 L540 -1 Z M149 239 Q149 209 157.5 180.5 Q166 152 184 129.5 Q202 107 229 93.5 Q256 80 294 80 Q322 80 347.5 91.5 Q373 103 392.5 123.5 Q412 144 424 172.5 Q436 201 436 236 Q436 272 425 302 Q414 332 395 353 Q376 374 350 385.5 Q324 397 295 397 Q258 397 230.5 383.5 Q203 370 185 347.5 Q167 325 158 296.5 Q149 268 149 239 Z M390 762 L452 689 L292 560 L242 620 L390 762 Z " />
<glyph glyph-name="acircumflex" unicode="&#xe2;" horiz-adv-x="604" d="M541 0 L432 0 L432 61 L429 61 Q404 30 364.5 6.5 Q325 -17 265 -17 Q224 -17 183 -1 Q142 15 109 47.5 Q76 80 55.5 128 Q35 176 35 240 Q35 297 54 344 Q73 391 105.5 424 Q138 457 181 475.5 Q224 494 273 494 Q303 494 327 487 Q351 480 370 468.5 Q389 457 404 442.5 Q419 428 430 414 L432 414 L432 479 L541 479 L541 0 Z M150 240 Q150 210 158.5 181.5 Q167 153 185 130.5 Q203 108 230 94.5 Q257 81 295 81 Q323 81 348.5 92.5 Q374 104 393.5 124.5 Q413 145 425 173.5 Q437 202 437 237 Q437 273 426 303 Q415 333 396 354 Q377 375 351 386.5 Q325 398 296 398 Q259 398 231.5 384.5 Q204 371 186 348.5 Q168 326 159 297.5 Q150 269 150 240 Z M448 623 L416 561 L293 620 L170 561 L138 623 L293 724 L448 623 Z " />
<glyph glyph-name="agrave" unicode="&#xe0;" horiz-adv-x="604" d="M541 0 L432 0 L432 61 L429 61 Q404 30 364.5 6.5 Q325 -17 265 -17 Q224 -17 183 -1 Q142 15 109 47.5 Q76 80 55.5 128 Q35 176 35 240 Q35 297 54 344 Q73 391 105.5 424 Q138 457 181 475.5 Q224 494 273 494 Q303 494 327 487 Q351 480 370 468.5 Q389 457 404 442.5 Q419 428 430 414 L432 414 L432 479 L541 479 L541 0 Z M150 240 Q150 210 158.5 181.5 Q167 153 185 130.5 Q203 108 230 94.5 Q257 81 295 81 Q323 81 348.5 92.5 Q374 104 393.5 124.5 Q413 145 425 173.5 Q437 202 437 237 Q437 273 426 303 Q415 333 396 354 Q377 375 351 386.5 Q325 398 296 398 Q259 398 231.5 384.5 Q204 371 186 348.5 Q168 326 159 297.5 Q150 269 150 240 Z M343 621 L293 561 L133 690 L195 763 L343 621 Z " />
<glyph glyph-name="atilde" unicode="&#xe3;" horiz-adv-x="604" d="M541 0 L432 0 L432 61 L429 61 Q404 30 364.5 6.5 Q325 -17 265 -17 Q224 -17 183 -1 Q142 15 109 47.5 Q76 80 55.5 128 Q35 176 35 240 Q35 297 54 344 Q73 391 105.5 424 Q138 457 181 475.5 Q224 494 273 494 Q303 494 327 487 Q351 480 370 468.5 Q389 457 404 442.5 Q419 428 430 414 L432 414 L432 479 L541 479 L541 0 Z M150 240 Q150 210 158.5 181.5 Q167 153 185 130.5 Q203 108 230 94.5 Q257 81 295 81 Q323 81 348.5 92.5 Q374 104 393.5 124.5 Q413 145 425 173.5 Q437 202 437 237 Q437 273 426 303 Q415 333 396 354 Q377 375 351 386.5 Q325 398 296 398 Q259 398 231.5 384.5 Q204 371 186 348.5 Q168 326 159 297.5 Q150 269 150 240 Z M119 570 Q122 625 146 661.5 Q170 698 221 698 Q243 698 259.5 690.5 Q276 683 296 668 Q333 640 356 640 Q368 640 376.5 650 Q385 660 386 689 L457 689 Q452 561 354 561 Q331 561 311.5 568.5 Q292 576 273 590 Q253 606 242 612.5 Q231 619 220 619 Q193 619 190 570 L119 570 Z " />
<glyph glyph-name="eacute" unicode="&#xe9;" horiz-adv-x="551" d="M278 495 Q340 495 385.5 473 Q431 451 460.5 415 Q490 379 504.5 334 Q519 289 519 244 Q519 236 519 227.5 Q519 219 517 211 L147 211 Q147 183 158.5 157.5 Q170 132 189.5 113 Q209 94 235 82.5 Q261 71 290 71 Q327 71 352.5 85 Q378 99 397 125 L512 125 Q500 98 481 72 Q462 46 434.5 26.5 Q407 7 371 -5 Q335 -17 290 -17 Q234 -17 187.5 2.5 Q141 22 107 56.5 Q73 91 54 139 Q35 187 35 244 Q35 295 51.5 340.5 Q68 386 99.5 420.5 Q131 455 176 475 Q221 495 278 495 Z M278 411 Q249 411 226 401 Q203 391 186.5 374.5 Q170 358 160 336.5 Q150 315 148 292 L407 292 Q404 316 394 337.5 Q384 359 367.5 375.5 Q351 392 328.5 401.5 Q306 411 278 411 Z M370 764 L432 691 L272 562 L222 622 L370 764 Z " />
<glyph glyph-name="ecircumflex" unicode="&#xea;" horiz-adv-x="551" d="M279 495 Q341 495 386.5 473 Q432 451 461.5 415 Q491 379 505.5 334 Q520 289 520 244 Q520 236 520 227.5 Q520 219 518 211 L148 211 Q148 183 159.5 157.5 Q171 132 190.5 113 Q210 94 236 82.5 Q262 71 291 71 Q328 71 353.5 85 Q379 99 398 125 L513 125 Q501 98 482 72 Q463 46 435.5 26.5 Q408 7 372 -5 Q336 -17 291 -17 Q235 -17 188.5 2.5 Q142 22 108 56.5 Q74 91 55 139 Q36 187 36 244 Q36 295 52.5 340.5 Q69 386 100.5 420.5 Q132 455 177 475 Q222 495 279 495 Z M433 624 L401 562 L278 621 L155 562 L123 624 L278 725 L433 624 Z M279 411 Q250 411 227 401 Q204 391 187.5 374.5 Q171 358 161 336.5 Q151 315 149 292 L408 292 Q405 316 395 337.5 Q385 359 368.5 375.5 Q352 392 329.5 401.5 Q307 411 279 411 Z " />
<glyph glyph-name="egrave" unicode="&#xe8;" horiz-adv-x="551" d="M278 495 Q340 495 385.5 473 Q431 451 460.5 415 Q490 379 504.5 334 Q519 289 519 244 Q519 236 519 227.5 Q519 219 517 211 L147 211 Q147 183 158.5 157.5 Q170 132 189.5 113 Q209 94 235 82.5 Q261 71 290 71 Q327 71 352.5 85 Q378 99 397 125 L512 125 Q500 98 481 72 Q462 46 434.5 26.5 Q407 7 371 -5 Q335 -17 290 -17 Q234 -17 187.5 2.5 Q141 22 107 56.5 Q73 91 54 139 Q35 187 35 244 Q35 295 51.5 340.5 Q68 386 99.5 420.5 Q131 455 176 475 Q221 495 278 495 Z M278 411 Q249 411 226 401 Q203 391 186.5 374.5 Q170 358 160 336.5 Q150 315 148 292 L407 292 Q404 316 394 337.5 Q384 359 367.5 375.5 Q351 392 328.5 401.5 Q306 411 278 411 Z M332 622 L282 562 L122 691 L184 764 L332 622 Z " />
<glyph glyph-name="iacute" unicode="&#xed;" horiz-adv-x="242" d="M68 479 L180 479 L180 0 L68 0 L68 479 Z M216 763 L278 690 L118 561 L68 621 L216 763 Z " />
<glyph glyph-name="igrave" unicode="&#xec;" horiz-adv-x="242" d="M68 479 L180 479 L180 0 L68 0 L68 479 Z M180 621 L130 561 L-30 690 L32 763 L180 621 Z " />
<glyph glyph-name="oacute" unicode="&#xf3;" horiz-adv-x="577" d="M35 240 Q35 295 54.5 342 Q74 389 108.5 423 Q143 457 190 476 Q237 495 291 495 Q347 495 394 475.5 Q441 456 475 422 Q509 388 528 341 Q547 294 547 240 Q547 187 528 140.5 Q509 94 475 59 Q441 24 394 3.5 Q347 -17 291 -17 Q236 -17 189.5 3 Q143 23 108.5 57.5 Q74 92 54.5 139 Q35 186 35 240 Z M149 240 Q149 205 160.5 176.5 Q172 148 191.5 127 Q211 106 236.5 94.5 Q262 83 291 83 Q323 83 349.5 95 Q376 107 394.5 128 Q413 149 423.5 178 Q434 207 434 240 Q434 272 424 300.5 Q414 329 395.5 350 Q377 371 350.5 383.5 Q324 396 291 396 Q259 396 232.5 384 Q206 372 187.5 351 Q169 330 159 301.5 Q149 273 149 240 Z M384 763 L446 690 L286 561 L236 621 L384 763 Z " />
<glyph glyph-name="ocircumflex" unicode="&#xf4;" horiz-adv-x="577" d="M35 240 Q35 295 54.5 342 Q74 389 108.5 423 Q143 457 190 476 Q237 495 291 495 Q347 495 394 475.5 Q441 456 475 422 Q509 388 528 341 Q547 294 547 240 Q547 187 528 140.5 Q509 94 475 59 Q441 24 394 3.5 Q347 -17 291 -17 Q236 -17 189.5 3 Q143 23 108.5 57.5 Q74 92 54.5 139 Q35 186 35 240 Z M149 240 Q149 205 160.5 176.5 Q172 148 191.5 127 Q211 106 236.5 94.5 Q262 83 291 83 Q323 83 349.5 95 Q376 107 394.5 128 Q413 149 423.5 178 Q434 207 434 240 Q434 272 424 300.5 Q414 329 395.5 350 Q377 371 350.5 383.5 Q324 396 291 396 Q259 396 232.5 384 Q206 372 187.5 351 Q169 330 159 301.5 Q149 273 149 240 Z M446 622 L414 560 L291 619 L168 560 L136 622 L291 723 L446 622 Z " />
<glyph glyph-name="ograve" unicode="&#xf2;" horiz-adv-x="577" d="M35 240 Q35 295 54.5 342 Q74 389 108.5 423 Q143 457 190 476 Q237 495 291 495 Q347 495 394 475.5 Q441 456 475 422 Q509 388 528 341 Q547 294 547 240 Q547 187 528 140.5 Q509 94 475 59 Q441 24 394 3.5 Q347 -17 291 -17 Q236 -17 189.5 3 Q143 23 108.5 57.5 Q74 92 54.5 139 Q35 186 35 240 Z M149 240 Q149 205 160.5 176.5 Q172 148 191.5 127 Q211 106 236.5 94.5 Q262 83 291 83 Q323 83 349.5 95 Q376 107 394.5 128 Q413 149 423.5 178 Q434 207 434 240 Q434 272 424 300.5 Q414 329 395.5 350 Q377 371 350.5 383.5 Q324 396 291 396 Q259 396 232.5 384 Q206 372 187.5 351 Q169 330 159 301.5 Q149 273 149 240 Z M346 621 L296 561 L136 690 L198 763 L346 621 Z " />
<glyph glyph-name="otilde" unicode="&#xf5;" horiz-adv-x="577" d="M35 240 Q35 295 54.5 342 Q74 389 108.5 423 Q143 457 190 476 Q237 495 291 495 Q347 495 394 475.5 Q441 456 475 422 Q509 388 528 341 Q547 294 547 240 Q547 187 528 140.5 Q509 94 475 59 Q441 24 394 3.5 Q347 -17 291 -17 Q236 -17 189.5 3 Q143 23 108.5 57.5 Q74 92 54.5 139 Q35 186 35 240 Z M149 240 Q149 205 160.5 176.5 Q172 148 191.5 127 Q211 106 236.5 94.5 Q262 83 291 83 Q323 83 349.5 95 Q376 107 394.5 128 Q413 149 423.5 178 Q434 207 434 240 Q434 272 424 300.5 Q414 329 395.5 350 Q377 371 350.5 383.5 Q324 396 291 396 Q259 396 232.5 384 Q206 372 187.5 351 Q169 330 159 301.5 Q149 273 149 240 Z M122 569 Q125 624 149 660.5 Q173 697 224 697 Q246 697 262.5 689.5 Q279 682 299 667 Q336 639 359 639 Q371 639 379.5 649 Q388 659 389 688 L460 688 Q455 560 357 560 Q334 560 314.5 567.5 Q295 575 276 589 Q256 605 245 611.5 Q234 618 223 618 Q196 618 193 569 L122 569 Z " />
<glyph glyph-name="uacute" unicode="&#xfa;" horiz-adv-x="557" d="M497 0 L386 0 L386 59 L383 59 Q353 17 316 0.5 Q279 -16 241 -16 Q211 -16 179 -5.5 Q147 5 121.5 29.5 Q96 54 79.5 94.5 Q63 135 63 196 L63 479 L175 479 L175 209 Q175 148 201.5 115.5 Q228 83 273 83 Q324 83 354.5 118.5 Q385 154 385 224 L385 479 L497 479 L497 0 Z M373 763 L435 690 L275 561 L225 621 L373 763 Z " />
<glyph glyph-name="ugrave" unicode="&#xf9;" horiz-adv-x="557" d="M496 0 L385 0 L385 59 L382 59 Q352 17 315 0.5 Q278 -16 240 -16 Q210 -16 178 -5.5 Q146 5 120.5 29.5 Q95 54 78.5 94.5 Q62 135 62 196 L62 479 L174 479 L174 209 Q174 148 200.5 115.5 Q227 83 272 83 Q323 83 353.5 118.5 Q384 154 384 224 L384 479 L496 479 L496 0 Z M334 621 L284 561 L124 690 L186 763 L334 621 Z " />
<glyph glyph-name="yacute" unicode="&#xfd;" horiz-adv-x="452" d="M196 -235 L89 -235 L177 2 L2 479 L117 479 L200 241 Q208 218 217.5 187 Q227 156 232 131 L235 131 Q243 161 250 186.5 Q257 212 267 241 L348 479 L459 479 L196 -235 Z M324 763 L386 690 L226 561 L176 621 L324 763 Z " />
<glyph glyph-name="oneeighth" unicode="&#x215b;" horiz-adv-x="971" d="M163 607 L95 607 L95 684 L255 684 L255 250 L163 250 L163 607 Z M747 682 L286 0 L197 0 L659 682 L747 682 Z M707 321 Q707 292 725.5 275.5 Q744 259 770 259 Q799 259 816.5 276 Q834 293 834 321 Q834 349 815.5 364.5 Q797 380 770 380 Q743 380 725 364.5 Q707 349 707 321 Z M698 127 Q698 94 718 74.5 Q738 55 772 55 Q804 55 824.5 74 Q845 93 845 127 Q845 159 824.5 179.5 Q804 200 772 200 Q740 200 719 180 Q698 160 698 127 Z M931 121 Q931 94 921 70 Q911 46 891.5 27 Q872 8 841.5 -3 Q811 -14 771 -14 Q730 -14 700 -3.5 Q670 7 650 25 Q630 43 620 67 Q610 91 610 119 Q610 161 630.5 190 Q651 219 688 233 L688 234 Q657 247 640 271 Q623 295 623 327 Q623 378 662 412.5 Q701 447 771 447 Q840 447 878.5 414 Q917 381 917 333 Q917 298 899 272.5 Q881 247 851 236 L851 234 Q891 220 911 191 Q931 162 931 121 Z " />
<glyph glyph-name="threeeighths" unicode="&#x215c;" horiz-adv-x="998" d="M50 569 Q52 625 90.5 661 Q129 697 199 697 Q271 697 308.5 665.5 Q346 634 346 584 Q346 548 324.5 522.5 Q303 497 271 489 L271 487 Q313 477 337 448 Q361 419 361 375 Q361 348 351 323 Q341 298 320.5 278.5 Q300 259 269 247.5 Q238 236 197 236 Q119 236 80 273.5 Q41 311 36 375 L126 375 Q134 309 198 309 Q230 309 248.5 329 Q267 349 267 381 Q267 408 248 428 Q229 448 186 448 L156 448 L156 517 L184 517 Q216 517 234 532 Q252 547 252 572 Q252 594 238.5 609 Q225 624 196 624 Q167 624 154 607 Q141 590 139 569 L50 569 Z M774 682 L313 0 L224 0 L686 682 L774 682 Z M733 321 Q733 292 751.5 275.5 Q770 259 796 259 Q825 259 842.5 276 Q860 293 860 321 Q860 349 841.5 364.5 Q823 380 796 380 Q769 380 751 364.5 Q733 349 733 321 Z M724 127 Q724 94 744 74.5 Q764 55 798 55 Q830 55 850.5 74 Q871 93 871 127 Q871 159 850.5 179.5 Q830 200 798 200 Q766 200 745 180 Q724 160 724 127 Z M957 121 Q957 94 947 70 Q937 46 917.5 27 Q898 8 867.5 -3 Q837 -14 797 -14 Q756 -14 726 -3.5 Q696 7 676 25 Q656 43 646 67 Q636 91 636 119 Q636 161 656.5 190 Q677 219 714 233 L714 234 Q683 247 666 271 Q649 295 649 327 Q649 378 688 412.5 Q727 447 797 447 Q866 447 904.5 414 Q943 381 943 333 Q943 298 925 272.5 Q907 247 877 236 L877 234 Q917 220 937 191 Q957 162 957 121 Z " />
<glyph glyph-name="fiveeighths" unicode="&#x215d;" horiz-adv-x="998" d="M160 532 Q166 534 177.5 535 Q189 536 197 536 Q270 536 312 495 Q354 454 354 388 Q354 359 343.5 331.5 Q333 304 312.5 283 Q292 262 262.5 249 Q233 236 195 236 Q157 236 128.5 246.5 Q100 257 81 275 Q62 293 52 316.5 Q42 340 40 366 L133 366 Q135 343 150.5 329 Q166 315 195 315 Q221 315 238.5 333.5 Q256 352 256 384 Q256 419 235 439.5 Q214 460 168 460 Q120 460 68 448 L90 684 L320 684 L320 606 L169 606 L160 532 Z M774 682 L313 0 L224 0 L686 682 L774 682 Z M733 321 Q733 292 751.5 275.5 Q770 259 796 259 Q825 259 842.5 276 Q860 293 860 321 Q860 349 841.5 364.5 Q823 380 796 380 Q769 380 751 364.5 Q733 349 733 321 Z M724 127 Q724 94 744 74.5 Q764 55 798 55 Q830 55 850.5 74 Q871 93 871 127 Q871 159 850.5 179.5 Q830 200 798 200 Q766 200 745 180 Q724 160 724 127 Z M957 121 Q957 94 947 70 Q937 46 917.5 27 Q898 8 867.5 -3 Q837 -14 797 -14 Q756 -14 726 -3.5 Q696 7 676 25 Q656 43 646 67 Q636 91 636 119 Q636 161 656.5 190 Q677 219 714 233 L714 234 Q683 247 666 271 Q649 295 649 327 Q649 378 688 412.5 Q727 447 797 447 Q866 447 904.5 414 Q943 381 943 333 Q943 298 925 272.5 Q907 247 877 236 L877 234 Q917 220 937 191 Q957 162 957 121 Z " />
<glyph glyph-name="seveneighths" unicode="&#x215e;" horiz-adv-x="952" d="M351 614 L179 250 L78 250 L254 606 L53 606 L53 684 L351 684 L351 614 Z M725 682 L264 0 L175 0 L637 682 L725 682 Z M688 321 Q688 292 706.5 275.5 Q725 259 751 259 Q780 259 797.5 276 Q815 293 815 321 Q815 349 796.5 364.5 Q778 380 751 380 Q724 380 706 364.5 Q688 349 688 321 Z M679 127 Q679 94 699 74.5 Q719 55 753 55 Q785 55 805.5 74 Q826 93 826 127 Q826 159 805.5 179.5 Q785 200 753 200 Q721 200 700 180 Q679 160 679 127 Z M912 121 Q912 94 902 70 Q892 46 872.5 27 Q853 8 822.5 -3 Q792 -14 752 -14 Q711 -14 681 -3.5 Q651 7 631 25 Q611 43 601 67 Q591 91 591 119 Q591 161 611.5 190 Q632 219 669 233 L669 234 Q638 247 621 271 Q604 295 604 327 Q604 378 643 412.5 Q682 447 752 447 Q821 447 859.5 414 Q898 381 898 333 Q898 298 880 272.5 Q862 247 832 236 L832 234 Q872 220 892 191 Q912 162 912 121 Z " />
<glyph glyph-name="onethird" unicode="&#x2153;" horiz-adv-x="971" d="M163 607 L95 607 L95 684 L255 684 L255 250 L163 250 L163 607 Z M747 682 L286 0 L197 0 L659 682 L747 682 Z M619 319 Q621 375 659.5 411 Q698 447 768 447 Q840 447 877.5 415.5 Q915 384 915 334 Q915 298 893.5 272.5 Q872 247 840 239 L840 237 Q882 227 906 198 Q930 169 930 125 Q930 98 920 73 Q910 48 889.5 28.5 Q869 9 838 -2.5 Q807 -14 766 -14 Q688 -14 649 23.5 Q610 61 605 125 L695 125 Q703 59 767 59 Q799 59 817.5 79 Q836 99 836 131 Q836 158 817 178 Q798 198 755 198 L725 198 L725 267 L753 267 Q785 267 803 282 Q821 297 821 322 Q821 344 807.5 359 Q794 374 765 374 Q736 374 723 357 Q710 340 708 319 L619 319 Z " />
<glyph glyph-name="twothirds" unicode="&#x2154;" horiz-adv-x="1005" d="M56 312 L194 459 Q220 487 239 512.5 Q258 538 258 567 Q258 591 243 605.5 Q228 620 202 620 Q173 620 159 602.5 Q145 585 143 556 L52 556 Q53 585 63 611 Q73 637 91.5 656 Q110 675 138.5 686 Q167 697 206 697 Q240 697 267 687.5 Q294 678 313.5 660.5 Q333 643 343.5 620 Q354 597 354 570 Q354 549 348 530.5 Q342 512 330 493 Q318 474 300 453 Q282 432 257 406 L182 329 L360 329 L360 250 L56 250 L56 312 Z M781 682 L320 0 L231 0 L693 682 L781 682 Z M652 319 Q654 375 692.5 411 Q731 447 801 447 Q873 447 910.5 415.5 Q948 384 948 334 Q948 298 926.5 272.5 Q905 247 873 239 L873 237 Q915 227 939 198 Q963 169 963 125 Q963 98 953 73 Q943 48 922.5 28.5 Q902 9 871 -2.5 Q840 -14 799 -14 Q721 -14 682 23.5 Q643 61 638 125 L728 125 Q736 59 800 59 Q832 59 850.5 79 Q869 99 869 131 Q869 158 850 178 Q831 198 788 198 L758 198 L758 267 L786 267 Q818 267 836 282 Q854 297 854 322 Q854 344 840.5 359 Q827 374 798 374 Q769 374 756 357 Q743 340 741 319 L652 319 Z " />
<glyph glyph-name="Abreve" unicode="&#x102;" horiz-adv-x="652" d="M278 682 L386 682 L645 0 L522 0 L461 167 L189 167 L127 0 L7 0 L278 682 Z M220 257 L430 257 L367 432 Q356 461 346.5 492 Q337 523 329 550 L324 550 Q316 522 305.5 490.5 Q295 459 284 431 L220 257 Z M488 903 Q484 840 439 802 Q394 764 325 764 Q286 764 256.5 774.5 Q227 785 206.5 804 Q186 823 175 848 Q164 873 163 903 L242 903 Q244 877 265.5 861 Q287 845 325 845 Q365 845 385.5 861.5 Q406 878 408 903 L488 903 Z " />
<glyph glyph-name="Dcroat" unicode="&#x110;" horiz-adv-x="732" d="M15 399 L95 399 L95 682 L323 682 Q415 682 485 655 Q555 628 602 581.5 Q649 535 673 473 Q697 411 697 341 Q697 272 672 210 Q647 148 599 101.5 Q551 55 481 27.5 Q411 0 321 0 L95 0 L95 305 L15 305 L15 399 Z M321 103 Q386 103 434 122 Q482 141 513.5 173.5 Q545 206 560.5 249.5 Q576 293 576 341 Q576 393 559.5 437 Q543 481 510.5 512.5 Q478 544 430.5 561.5 Q383 579 321 579 L213 579 L213 399 L382 399 L382 305 L213 305 L213 103 L321 103 Z " />
<glyph glyph-name="Itilde" unicode="&#x128;" horiz-adv-x="259" d="M69 682 L187 682 L187 0 L69 0 L69 682 Z M-41 773 Q-38 828 -14 864.5 Q10 901 61 901 Q83 901 99.5 893.5 Q116 886 136 871 Q173 843 196 843 Q208 843 216.5 853 Q225 863 226 892 L297 892 Q292 764 194 764 Q171 764 151.5 771.5 Q132 779 113 793 Q93 809 82 815.5 Q71 822 60 822 Q33 822 30 773 L-41 773 Z " />
<glyph glyph-name="Utilde" unicode="&#x168;" horiz-adv-x="631" d="M316 -22 Q265 -22 219 -6.5 Q173 9 137.5 43.5 Q102 78 81 134 Q60 190 60 271 L60 682 L178 682 L178 260 Q178 178 214 129 Q250 80 316 80 Q354 80 380 93.5 Q406 107 422.5 131 Q439 155 446 188 Q453 221 453 260 L453 682 L570 682 L570 273 Q570 193 550.5 136.5 Q531 80 497 45 Q463 10 416.5 -6 Q370 -22 316 -22 Z M146 773 Q149 828 173 864.5 Q197 901 248 901 Q270 901 286.5 893.5 Q303 886 323 871 Q360 843 383 843 Q395 843 403.5 853 Q412 863 413 892 L484 892 Q479 764 381 764 Q358 764 338.5 771.5 Q319 779 300 793 Q280 809 269 815.5 Q258 822 247 822 Q220 822 217 773 L146 773 Z " />
<glyph glyph-name="Ygrave" unicode="&#x1ef2;" horiz-adv-x="570" d="M227 274 L9 682 L139 682 L254 459 Q265 437 274 417 Q283 397 290 377 L292 377 Q300 398 309 416.5 Q318 435 329 458 L439 682 L562 682 L345 275 L345 0 L227 0 L227 274 Z M361 824 L311 764 L151 893 L213 966 L361 824 Z " />
<glyph glyph-name="abreve" unicode="&#x103;" horiz-adv-x="604" d="M538 0 L429 0 L429 61 L426 61 Q401 30 361.5 6.5 Q322 -17 262 -17 Q221 -17 180 -1 Q139 15 106 47.5 Q73 80 52.5 128 Q32 176 32 240 Q32 297 51 344 Q70 391 102.5 424 Q135 457 178 475.5 Q221 494 270 494 Q300 494 324 487 Q348 480 367 468.5 Q386 457 401 442.5 Q416 428 427 414 L429 414 L429 479 L538 479 L538 0 Z M147 240 Q147 210 155.5 181.5 Q164 153 182 130.5 Q200 108 227 94.5 Q254 81 292 81 Q320 81 345.5 92.5 Q371 104 390.5 124.5 Q410 145 422 173.5 Q434 202 434 237 Q434 273 423 303 Q412 333 393 354 Q374 375 348 386.5 Q322 398 293 398 Q256 398 228.5 384.5 Q201 371 183 348.5 Q165 326 156 297.5 Q147 269 147 240 Z M447 700 Q443 637 398 599 Q353 561 284 561 Q245 561 215.5 571.5 Q186 582 165.5 601 Q145 620 134 645 Q123 670 122 700 L201 700 Q203 674 224.5 658 Q246 642 284 642 Q324 642 344.5 658.5 Q365 675 367 700 L447 700 Z " />
<glyph glyph-name="dcroat" unicode="&#x111;" horiz-adv-x="604" d="M538 564 L538 0 L429 0 L429 57 L426 57 Q402 29 361 6 Q320 -17 260 -17 Q219 -17 178.5 -1 Q138 15 105.5 47.5 Q73 80 52.5 128 Q32 176 32 240 Q32 296 50.5 343 Q69 390 100.5 423.5 Q132 457 175 476 Q218 495 266 495 Q325 495 362 473 Q399 451 425 419 L428 419 L428 564 L251 564 L251 644 L428 644 L428 720 L538 720 L538 644 L604 644 L604 564 L538 564 Z M147 240 Q147 210 156 181.5 Q165 153 183 130.5 Q201 108 228 94.5 Q255 81 291 81 Q319 81 345 92.5 Q371 104 391 124.5 Q411 145 422.5 173.5 Q434 202 434 237 Q434 273 423 303 Q412 333 392.5 354.5 Q373 376 347.5 387.5 Q322 399 292 399 Q256 399 228.5 385 Q201 371 183 348.5 Q165 326 156 297.5 Q147 269 147 240 Z " />
<glyph glyph-name="itilde" unicode="&#x129;" horiz-adv-x="242" d="M65 479 L177 479 L177 0 L65 0 L65 479 Z M-48 570 Q-45 625 -21 661.5 Q3 698 54 698 Q76 698 92.5 690.5 Q109 683 129 668 Q166 640 189 640 Q201 640 209.5 650 Q218 660 219 689 L290 689 Q285 561 187 561 Q164 561 144.5 568.5 Q125 576 106 590 Q86 606 75 612.5 Q64 619 53 619 Q26 619 23 570 L-48 570 Z " />
<glyph glyph-name="utilde" unicode="&#x169;" horiz-adv-x="557" d="M493 0 L382 0 L382 59 L379 59 Q349 17 312 0.5 Q275 -16 237 -16 Q207 -16 175 -5.5 Q143 5 117.5 29.5 Q92 54 75.5 94.5 Q59 135 59 196 L59 479 L171 479 L171 209 Q171 148 197.5 115.5 Q224 83 269 83 Q320 83 350.5 118.5 Q381 154 381 224 L381 479 L493 479 L493 0 Z M107 570 Q110 625 134 661.5 Q158 698 209 698 Q231 698 247.5 690.5 Q264 683 284 668 Q321 640 344 640 Q356 640 364.5 650 Q373 660 374 689 L445 689 Q440 561 342 561 Q319 561 299.5 568.5 Q280 576 261 590 Q241 606 230 612.5 Q219 619 208 619 Q181 619 178 570 L107 570 Z " />
<glyph glyph-name="ygrave" unicode="&#x1ef3;" horiz-adv-x="452" d="M193 -235 L86 -235 L174 2 L-1 479 L114 479 L197 241 Q205 218 214.5 187 Q224 156 229 131 L232 131 Q240 161 247 186.5 Q254 212 264 241 L345 479 L456 479 L193 -235 Z M303 621 L253 561 L93 690 L155 763 L303 621 Z " />
<glyph glyph-name="quotereversed" unicode="&#x201b;" horiz-adv-x="256" d="M194 596 L143 596 Q145 563 154.5 531 Q164 499 181 473 L116 473 Q93 510 78 556 Q63 602 63 660 L63 720 L194 720 L194 596 Z " />
<glyph glyph-name="minute" unicode="&#x2032;" horiz-adv-x="237" d="M194 672 L104 421 L43 439 L116 698 L194 672 Z " />
<glyph glyph-name="second" unicode="&#x2033;" horiz-adv-x="432" d="M194 672 L104 421 L43 439 L116 698 L194 672 Z M389 672 L299 421 L238 439 L311 698 L389 672 Z " />
<glyph glyph-name="Euro" unicode="&#x20ac;" horiz-adv-x="569" d="M549 -2 Q521 -11 490.5 -16.5 Q460 -22 422 -22 Q354 -22 302 -4 Q250 14 211.5 46.5 Q173 79 148 124 Q123 169 110 222 L19 222 L43 305 L96 305 Q95 313 95 323.5 Q95 334 95 342 Q95 353 95.5 366.5 Q96 380 97 391 L30 391 L54 475 L114 475 Q129 527 157 569 Q185 611 223.5 641 Q262 671 311 687.5 Q360 704 418 704 Q450 704 483.5 698.5 Q517 693 544 684 L518 589 Q498 596 471.5 600.5 Q445 605 418 605 Q361 605 311 574.5 Q261 544 235 475 L488 475 L464 391 L215 391 Q212 368 212 342 Q212 334 212.5 323.5 Q213 313 214 305 L443 305 L419 222 L232 222 Q255 154 305 116 Q355 78 430 78 Q462 78 494.5 84.5 Q527 91 549 99 L549 -2 Z " />
<glyph glyph-name="radical" unicode="&#x221a;" horiz-adv-x="587" d="M581 720 Q526 535 471.5 354 Q417 173 363 -12 L282 -12 Q246 69 210 149 Q174 229 138 310 Q123 302 108.5 293 Q94 284 79 275 Q71 289 63 303 Q55 317 47 331 Q81 352 115 373.5 Q149 395 183 416 Q218 338 252.5 260.5 Q287 183 322 105 Q367 260 412.5 412.5 Q458 565 504 720 L581 720 L581 720 Z " />
<glyph glyph-name="approxequal" unicode="&#x2248;" horiz-adv-x="672" d="M619 390 Q587 348 547 322.5 Q507 297 450 297 Q420 297 388.5 305 Q357 313 326 330 Q299 346 273.5 356 Q248 366 221 366 Q188 366 162.5 345.5 Q137 325 118 300 L53 367 Q68 386 84.5 402.5 Q101 419 121 432 Q141 445 165 452.5 Q189 460 219 460 Q254 460 286 450 Q318 440 342 426 Q371 410 397 400.5 Q423 391 449 391 Q481 391 507 410 Q533 429 553 457 L619 390 Z M619 161 Q587 119 547 94 Q507 69 450 69 Q420 69 388.5 77 Q357 85 326 102 Q299 117 273.5 127 Q248 137 221 137 Q188 137 163 117.5 Q138 98 118 72 L53 138 Q83 177 121.5 204.5 Q160 232 219 232 Q255 232 285.5 222 Q316 212 342 198 Q368 184 395 173.5 Q422 163 449 163 Q481 163 507 182.5 Q533 202 553 229 L619 161 Z " />
<glyph glyph-name="uni00AD" unicode="&#xad;" horiz-adv-x="467" d="M79 217 L79 311 L401 311 L401 217 L79 217 Z " />
<glyph glyph-name="uni2215" unicode="&#x2215;" horiz-adv-x="192" d="M371 682 L-90 0 L-179 0 L283 682 L371 682 Z " />
<glyph glyph-name="uni2219" unicode="&#x2219;" horiz-adv-x="256" d="M61 420 L202 420 L202 285 L61 285 L61 420 Z " />
<glyph glyph-name="uni2010" unicode="&#x2010;" horiz-adv-x="467" d="M76 217 L76 311 L398 311 L398 217 L76 217 Z " />
<glyph glyph-name="Delta" unicode="&#x2206;" horiz-adv-x="652" d="M278 682 L386 682 L645 0 L7 0 L278 682 Z M161 97 L488 97 L367 432 Q356 461 346.5 492 Q337 523 329 550 L324 550 Q316 522 305.5 490.5 Q295 459 284 431 L161 97 Z " />
<glyph glyph-name="uni1EA0" unicode="&#x1ea0;" horiz-adv-x="652" d="M279 682 L387 682 L646 0 L523 0 L462 167 L190 167 L128 0 L8 0 L279 682 Z M221 257 L431 257 L368 432 Q357 461 347.5 492 Q338 523 330 550 L325 550 Q317 522 306.5 490.5 Q296 459 285 431 L221 257 Z M273 -82 L381 -82 L381 -186 L273 -186 L273 -82 Z " />
<glyph glyph-name="uni1EA1" unicode="&#x1ea1;" horiz-adv-x="604" d="M538 0 L429 0 L429 61 L426 61 Q401 30 361.5 6.5 Q322 -17 262 -17 Q221 -17 180 -1 Q139 15 106 47.5 Q73 80 52.5 128 Q32 176 32 240 Q32 297 51 344 Q70 391 102.5 424 Q135 457 178 475.5 Q221 494 270 494 Q300 494 324 487 Q348 480 367 468.5 Q386 457 401 442.5 Q416 428 427 414 L429 414 L429 479 L538 479 L538 0 Z M147 240 Q147 210 155.5 181.5 Q164 153 182 130.5 Q200 108 227 94.5 Q254 81 292 81 Q320 81 345.5 92.5 Q371 104 390.5 124.5 Q410 145 422 173.5 Q434 202 434 237 Q434 273 423 303 Q412 333 393 354 Q374 375 348 386.5 Q322 398 293 398 Q256 398 228.5 384.5 Q201 371 183 348.5 Q165 326 156 297.5 Q147 269 147 240 Z M231 -82 L339 -82 L339 -186 L231 -186 L231 -82 Z " />
<glyph glyph-name="uni1EA2" unicode="&#x1ea2;" horiz-adv-x="652" d="M278 682 L386 682 L645 0 L522 0 L461 167 L189 167 L127 0 L7 0 L278 682 Z M220 257 L430 257 L367 432 Q356 461 346.5 492 Q337 523 329 550 L324 550 Q316 522 305.5 490.5 Q295 459 284 431 L220 257 Z M298 764 L291 844 L302 846 Q342 852 355 862 Q370 874 370 889 Q370 897 368 903.5 Q366 910 358 915 Q353 918 343.5 920.5 Q334 923 315 923 Q286 923 273 920 L259 918 L259 976 L268 978 Q278 981 291 982 Q304 983 321 983 Q353 983 377 978 Q401 973 417 960 Q431 949 441.5 934.5 Q452 920 452 898 Q452 862 429 836 Q409 816 374 807 L369 764 L298 764 Z " />
<glyph glyph-name="uni1EA3" unicode="&#x1ea3;" horiz-adv-x="604" d="M539 0 L430 0 L430 61 L427 61 Q402 30 362.5 6.5 Q323 -17 263 -17 Q222 -17 181 -1 Q140 15 107 47.5 Q74 80 53.5 128 Q33 176 33 240 Q33 297 52 344 Q71 391 103.5 424 Q136 457 179 475.5 Q222 494 271 494 Q301 494 325 487 Q349 480 368 468.5 Q387 457 402 442.5 Q417 428 428 414 L430 414 L430 479 L539 479 L539 0 Z M148 240 Q148 210 156.5 181.5 Q165 153 183 130.5 Q201 108 228 94.5 Q255 81 293 81 Q321 81 346.5 92.5 Q372 104 391.5 124.5 Q411 145 423 173.5 Q435 202 435 237 Q435 273 424 303 Q413 333 394 354 Q375 375 349 386.5 Q323 398 294 398 Q257 398 229.5 384.5 Q202 371 184 348.5 Q166 326 157 297.5 Q148 269 148 240 Z M258 563 L251 643 L262 645 Q302 651 315 661 Q330 673 330 688 Q330 696 328 702.5 Q326 709 318 714 Q313 717 303.5 719.5 Q294 722 275 722 Q246 722 233 719 L219 717 L219 775 L228 777 Q238 780 251 781 Q264 782 281 782 Q313 782 337 777 Q361 772 377 759 Q391 748 401.5 733.5 Q412 719 412 697 Q412 661 389 635 Q369 615 334 606 L329 563 L258 563 Z " />
<glyph glyph-name="uni1EA4" unicode="&#x1ea4;" horiz-adv-x="652" d="M281 682 L389 682 L648 0 L525 0 L464 167 L192 167 L130 0 L10 0 L281 682 Z M223 257 L433 257 L370 432 Q359 461 349.5 492 Q340 523 332 550 L327 550 Q319 522 308.5 490.5 Q298 459 287 431 L223 257 Z M484 826 L452 764 L329 823 L206 764 L174 826 L329 927 L484 826 Z M528 1133 L590 1060 L430 931 L380 991 L528 1133 Z " />
<glyph glyph-name="uni1EA5" unicode="&#x1ea5;" horiz-adv-x="604" d="M541 0 L432 0 L432 61 L429 61 Q404 30 364.5 6.5 Q325 -17 265 -17 Q224 -17 183 -1 Q142 15 109 47.5 Q76 80 55.5 128 Q35 176 35 240 Q35 297 54 344 Q73 391 105.5 424 Q138 457 181 475.5 Q224 494 273 494 Q303 494 327 487 Q351 480 370 468.5 Q389 457 404 442.5 Q419 428 430 414 L432 414 L432 479 L541 479 L541 0 Z M150 240 Q150 210 158.5 181.5 Q167 153 185 130.5 Q203 108 230 94.5 Q257 81 295 81 Q323 81 348.5 92.5 Q374 104 393.5 124.5 Q413 145 425 173.5 Q437 202 437 237 Q437 273 426 303 Q415 333 396 354 Q377 375 351 386.5 Q325 398 296 398 Q259 398 231.5 384.5 Q204 371 186 348.5 Q168 326 159 297.5 Q150 269 150 240 Z M463 625 L431 563 L308 622 L185 563 L153 625 L308 726 L463 625 Z M506 932 L568 859 L408 730 L358 790 L506 932 Z " />
<glyph glyph-name="uni1EA6" unicode="&#x1ea6;" horiz-adv-x="652" d="M281 682 L389 682 L648 0 L525 0 L464 167 L192 167 L130 0 L10 0 L281 682 Z M223 257 L433 257 L370 432 Q359 461 349.5 492 Q340 523 332 550 L327 550 Q319 522 308.5 490.5 Q298 459 287 431 L223 257 Z M484 826 L452 764 L329 823 L206 764 L174 826 L329 927 L484 826 Z M479 991 L429 931 L269 1060 L331 1133 L479 991 Z " />
<glyph glyph-name="uni1EA7" unicode="&#x1ea7;" horiz-adv-x="604" d="M541 0 L432 0 L432 61 L429 61 Q404 30 364.5 6.5 Q325 -17 265 -17 Q224 -17 183 -1 Q142 15 109 47.5 Q76 80 55.5 128 Q35 176 35 240 Q35 297 54 344 Q73 391 105.5 424 Q138 457 181 475.5 Q224 494 273 494 Q303 494 327 487 Q351 480 370 468.5 Q389 457 404 442.5 Q419 428 430 414 L432 414 L432 479 L541 479 L541 0 Z M150 240 Q150 210 158.5 181.5 Q167 153 185 130.5 Q203 108 230 94.5 Q257 81 295 81 Q323 81 348.5 92.5 Q374 104 393.5 124.5 Q413 145 425 173.5 Q437 202 437 237 Q437 273 426 303 Q415 333 396 354 Q377 375 351 386.5 Q325 398 296 398 Q259 398 231.5 384.5 Q204 371 186 348.5 Q168 326 159 297.5 Q150 269 150 240 Z M463 625 L431 563 L308 622 L185 563 L153 625 L308 726 L463 625 Z M458 790 L408 730 L248 859 L310 932 L458 790 Z " />
<glyph glyph-name="uni1EA8" unicode="&#x1ea8;" horiz-adv-x="652" d="M277 682 L385 682 L644 0 L521 0 L460 167 L188 167 L126 0 L6 0 L277 682 Z M219 257 L429 257 L366 432 Q355 461 345.5 492 Q336 523 328 550 L323 550 Q315 522 304.5 490.5 Q294 459 283 431 L219 257 Z M480 826 L448 764 L325 823 L202 764 L170 826 L325 927 L480 826 Z M405 931 L398 1011 L409 1013 Q449 1019 462 1029 Q477 1041 477 1056 Q477 1064 475 1070.5 Q473 1077 465 1082 Q460 1085 450.5 1087.5 Q441 1090 422 1090 Q393 1090 380 1087 L366 1085 L366 1143 L375 1145 Q385 1148 398 1149 Q411 1150 428 1150 Q460 1150 484 1145 Q508 1140 524 1127 Q538 1116 548.5 1101.5 Q559 1087 559 1065 Q559 1029 536 1003 Q516 983 481 974 L476 931 L405 931 Z " />
<glyph glyph-name="uni1EA9" unicode="&#x1ea9;" horiz-adv-x="604" d="M541 0 L432 0 L432 61 L429 61 Q404 30 364.5 6.5 Q325 -17 265 -17 Q224 -17 183 -1 Q142 15 109 47.5 Q76 80 55.5 128 Q35 176 35 240 Q35 297 54 344 Q73 391 105.5 424 Q138 457 181 475.5 Q224 494 273 494 Q303 494 327 487 Q351 480 370 468.5 Q389 457 404 442.5 Q419 428 430 414 L432 414 L432 479 L541 479 L541 0 Z M150 240 Q150 210 158.5 181.5 Q167 153 185 130.5 Q203 108 230 94.5 Q257 81 295 81 Q323 81 348.5 92.5 Q374 104 393.5 124.5 Q413 145 425 173.5 Q437 202 437 237 Q437 273 426 303 Q415 333 396 354 Q377 375 351 386.5 Q325 398 296 398 Q259 398 231.5 384.5 Q204 371 186 348.5 Q168 326 159 297.5 Q150 269 150 240 Z M463 625 L431 563 L308 622 L185 563 L153 625 L308 726 L463 625 Z M388 730 L381 810 L392 812 Q432 818 445 828 Q460 840 460 855 Q460 863 458 869.5 Q456 876 448 881 Q443 884 433.5 886.5 Q424 889 405 889 Q376 889 363 886 L349 884 L349 942 L358 944 Q368 947 381 948 Q394 949 411 949 Q443 949 467 944 Q491 939 507 926 Q521 915 531.5 900.5 Q542 886 542 864 Q542 828 519 802 Q499 782 464 773 L459 730 L388 730 Z " />
<glyph glyph-name="uni1EAA" unicode="&#x1eaa;" horiz-adv-x="652" d="M281 682 L389 682 L648 0 L525 0 L464 167 L192 167 L130 0 L10 0 L281 682 Z M223 257 L433 257 L370 432 Q359 461 349.5 492 Q340 523 332 550 L327 550 Q319 522 308.5 490.5 Q298 459 287 431 L223 257 Z M160 990 Q163 1045 187 1081.5 Q211 1118 262 1118 Q284 1118 300.5 1110.5 Q317 1103 337 1088 Q374 1060 397 1060 Q409 1060 417.5 1070 Q426 1080 427 1109 L498 1109 Q493 981 395 981 Q372 981 352.5 988.5 Q333 996 314 1010 Q294 1026 283 1032.5 Q272 1039 261 1039 Q234 1039 231 990 L160 990 Z M484 826 L452 764 L329 823 L206 764 L174 826 L329 927 L484 826 Z " />
<glyph glyph-name="uni1EAB" unicode="&#x1eab;" horiz-adv-x="604" d="M541 0 L432 0 L432 61 L429 61 Q404 30 364.5 6.5 Q325 -17 265 -17 Q224 -17 183 -1 Q142 15 109 47.5 Q76 80 55.5 128 Q35 176 35 240 Q35 297 54 344 Q73 391 105.5 424 Q138 457 181 475.5 Q224 494 273 494 Q303 494 327 487 Q351 480 370 468.5 Q389 457 404 442.5 Q419 428 430 414 L432 414 L432 479 L541 479 L541 0 Z M150 240 Q150 210 158.5 181.5 Q167 153 185 130.5 Q203 108 230 94.5 Q257 81 295 81 Q323 81 348.5 92.5 Q374 104 393.5 124.5 Q413 145 425 173.5 Q437 202 437 237 Q437 273 426 303 Q415 333 396 354 Q377 375 351 386.5 Q325 398 296 398 Q259 398 231.5 384.5 Q204 371 186 348.5 Q168 326 159 297.5 Q150 269 150 240 Z M139 789 Q142 844 166 880.5 Q190 917 241 917 Q263 917 279.5 909.5 Q296 902 316 887 Q353 859 376 859 Q388 859 396.5 869 Q405 879 406 908 L477 908 Q472 780 374 780 Q351 780 331.5 787.5 Q312 795 293 809 Q273 825 262 831.5 Q251 838 240 838 Q213 838 210 789 L139 789 Z M463 625 L431 563 L308 622 L185 563 L153 625 L308 726 L463 625 Z " />
<glyph glyph-name="uni1EAC" unicode="&#x1eac;" horiz-adv-x="652" d="M279 682 L387 682 L646 0 L523 0 L462 167 L190 167 L128 0 L8 0 L279 682 Z M221 257 L431 257 L368 432 Q357 461 347.5 492 Q338 523 330 550 L325 550 Q317 522 306.5 490.5 Q296 459 285 431 L221 257 Z M482 826 L450 764 L327 823 L204 764 L172 826 L327 927 L482 826 Z M273 -82 L381 -82 L381 -186 L273 -186 L273 -82 Z " />
<glyph glyph-name="uni1EAD" unicode="&#x1ead;" horiz-adv-x="604" d="M538 0 L429 0 L429 61 L426 61 Q401 30 361.5 6.5 Q322 -17 262 -17 Q221 -17 180 -1 Q139 15 106 47.5 Q73 80 52.5 128 Q32 176 32 240 Q32 297 51 344 Q70 391 102.5 424 Q135 457 178 475.5 Q221 494 270 494 Q300 494 324 487 Q348 480 367 468.5 Q386 457 401 442.5 Q416 428 427 414 L429 414 L429 479 L538 479 L538 0 Z M147 240 Q147 210 155.5 181.5 Q164 153 182 130.5 Q200 108 227 94.5 Q254 81 292 81 Q320 81 345.5 92.5 Q371 104 390.5 124.5 Q410 145 422 173.5 Q434 202 434 237 Q434 273 423 303 Q412 333 393 354 Q374 375 348 386.5 Q322 398 293 398 Q256 398 228.5 384.5 Q201 371 183 348.5 Q165 326 156 297.5 Q147 269 147 240 Z M460 625 L428 563 L305 622 L182 563 L150 625 L305 726 L460 625 Z M251 -81 L359 -81 L359 -185 L251 -185 L251 -81 Z " />
<glyph glyph-name="uni1EAE" unicode="&#x1eae;" horiz-adv-x="652" d="M278 682 L386 682 L645 0 L522 0 L461 167 L189 167 L127 0 L7 0 L278 682 Z M220 257 L430 257 L367 432 Q356 461 346.5 492 Q337 523 329 550 L324 550 Q316 522 305.5 490.5 Q295 459 284 431 L220 257 Z M488 903 Q484 840 439 802 Q394 764 325 764 Q286 764 256.5 774.5 Q227 785 206.5 804 Q186 823 175 848 Q164 873 163 903 L242 903 Q244 877 265.5 861 Q287 845 325 845 Q365 845 385.5 861.5 Q406 878 408 903 L488 903 Z M429 1133 L491 1060 L331 931 L281 991 L429 1133 Z " />
<glyph glyph-name="uni1EAF" unicode="&#x1eaf;" horiz-adv-x="604" d="M538 -1 L429 -1 L429 60 L426 60 Q401 29 361.5 5.5 Q322 -18 262 -18 Q221 -18 180 -2 Q139 14 106 46.5 Q73 79 52.5 127 Q32 175 32 239 Q32 296 51 343 Q70 390 102.5 423 Q135 456 178 474.5 Q221 493 270 493 Q300 493 324 486 Q348 479 367 467.5 Q386 456 401 441.5 Q416 427 427 413 L429 413 L429 478 L538 478 L538 -1 Z M147 239 Q147 209 155.5 180.5 Q164 152 182 129.5 Q200 107 227 93.5 Q254 80 292 80 Q320 80 345.5 91.5 Q371 103 390.5 123.5 Q410 144 422 172.5 Q434 201 434 236 Q434 272 423 302 Q412 332 393 353 Q374 374 348 385.5 Q322 397 293 397 Q256 397 228.5 383.5 Q201 370 183 347.5 Q165 325 156 296.5 Q147 268 147 239 Z M447 700 Q443 637 398 599 Q353 561 284 561 Q245 561 215.5 571.5 Q186 582 165.5 601 Q145 620 134 645 Q123 670 122 700 L201 700 Q203 674 224.5 658 Q246 642 284 642 Q324 642 344.5 658.5 Q365 675 367 700 L447 700 Z M388 930 L450 857 L290 728 L240 788 L388 930 Z " />
<glyph glyph-name="uni1EB0" unicode="&#x1eb0;" horiz-adv-x="652" d="M278 682 L386 682 L645 0 L522 0 L461 167 L189 167 L127 0 L7 0 L278 682 Z M220 257 L430 257 L367 432 Q356 461 346.5 492 Q337 523 329 550 L324 550 Q316 522 305.5 490.5 Q295 459 284 431 L220 257 Z M489 903 Q485 840 440 802 Q395 764 326 764 Q287 764 257.5 774.5 Q228 785 207.5 804 Q187 823 176 848 Q165 873 164 903 L243 903 Q245 877 266.5 861 Q288 845 326 845 Q366 845 386.5 861.5 Q407 878 409 903 L489 903 Z M381 991 L331 931 L171 1060 L233 1133 L381 991 Z " />
<glyph glyph-name="uni1EB1" unicode="&#x1eb1;" horiz-adv-x="604" d="M538 0 L429 0 L429 61 L426 61 Q401 30 361.5 6.5 Q322 -17 262 -17 Q221 -17 180 -1 Q139 15 106 47.5 Q73 80 52.5 128 Q32 176 32 240 Q32 297 51 344 Q70 391 102.5 424 Q135 457 178 475.5 Q221 494 270 494 Q300 494 324 487 Q348 480 367 468.5 Q386 457 401 442.5 Q416 428 427 414 L429 414 L429 479 L538 479 L538 0 Z M147 240 Q147 210 155.5 181.5 Q164 153 182 130.5 Q200 108 227 94.5 Q254 81 292 81 Q320 81 345.5 92.5 Q371 104 390.5 124.5 Q410 145 422 173.5 Q434 202 434 237 Q434 273 423 303 Q412 333 393 354 Q374 375 348 386.5 Q322 398 293 398 Q256 398 228.5 384.5 Q201 371 183 348.5 Q165 326 156 297.5 Q147 269 147 240 Z M448 701 Q444 638 399 600 Q354 562 285 562 Q246 562 216.5 572.5 Q187 583 166.5 602 Q146 621 135 646 Q124 671 123 701 L202 701 Q204 675 225.5 659 Q247 643 285 643 Q325 643 345.5 659.5 Q366 676 368 701 L448 701 Z M340 789 L290 729 L130 858 L192 931 L340 789 Z " />
<glyph glyph-name="uni1EB2" unicode="&#x1eb2;" horiz-adv-x="652" d="M278 682 L386 682 L645 0 L522 0 L461 167 L189 167 L127 0 L7 0 L278 682 Z M220 257 L430 257 L367 432 Q356 461 346.5 492 Q337 523 329 550 L324 550 Q316 522 305.5 490.5 Q295 459 284 431 L220 257 Z M488 903 Q484 840 439 802 Q394 764 325 764 Q286 764 256.5 774.5 Q227 785 206.5 804 Q186 823 175 848 Q164 873 163 903 L242 903 Q244 877 265.5 861 Q287 845 325 845 Q365 845 385.5 861.5 Q406 878 408 903 L488 903 Z M288 931 L281 1011 L292 1013 Q332 1019 345 1029 Q360 1041 360 1056 Q360 1064 358 1070.5 Q356 1077 348 1082 Q343 1085 333.5 1087.5 Q324 1090 305 1090 Q276 1090 263 1087 L249 1085 L249 1143 L258 1145 Q268 1148 281 1149 Q294 1150 311 1150 Q343 1150 367 1145 Q391 1140 407 1127 Q421 1116 431.5 1101.5 Q442 1087 442 1065 Q442 1029 419 1003 Q399 983 364 974 L359 931 L288 931 Z " />
<glyph glyph-name="uni1EB3" unicode="&#x1eb3;" horiz-adv-x="604" d="M538 0 L429 0 L429 61 L426 61 Q401 30 361.5 6.5 Q322 -17 262 -17 Q221 -17 180 -1 Q139 15 106 47.5 Q73 80 52.5 128 Q32 176 32 240 Q32 297 51 344 Q70 391 102.5 424 Q135 457 178 475.5 Q221 494 270 494 Q300 494 324 487 Q348 480 367 468.5 Q386 457 401 442.5 Q416 428 427 414 L429 414 L429 479 L538 479 L538 0 Z M147 240 Q147 210 155.5 181.5 Q164 153 182 130.5 Q200 108 227 94.5 Q254 81 292 81 Q320 81 345.5 92.5 Q371 104 390.5 124.5 Q410 145 422 173.5 Q434 202 434 237 Q434 273 423 303 Q412 333 393 354 Q374 375 348 386.5 Q322 398 293 398 Q256 398 228.5 384.5 Q201 371 183 348.5 Q165 326 156 297.5 Q147 269 147 240 Z M447 701 Q443 638 398 600 Q353 562 284 562 Q245 562 215.5 572.5 Q186 583 165.5 602 Q145 621 134 646 Q123 671 122 701 L201 701 Q203 675 224.5 659 Q246 643 284 643 Q324 643 344.5 659.5 Q365 676 367 701 L447 701 Z M247 729 L240 809 L251 811 Q291 817 304 827 Q319 839 319 854 Q319 862 317 868.5 Q315 875 307 880 Q302 883 292.5 885.5 Q283 888 264 888 Q235 888 222 885 L208 883 L208 941 L217 943 Q227 946 240 947 Q253 948 270 948 Q302 948 326 943 Q350 938 366 925 Q380 914 390.5 899.5 Q401 885 401 863 Q401 827 378 801 Q358 781 323 772 L318 729 L247 729 Z " />
<glyph glyph-name="uni1EB4" unicode="&#x1eb4;" horiz-adv-x="652" d="M278 682 L386 682 L645 0 L522 0 L461 167 L189 167 L127 0 L7 0 L278 682 Z M220 257 L430 257 L367 432 Q356 461 346.5 492 Q337 523 329 550 L324 550 Q316 522 305.5 490.5 Q295 459 284 431 L220 257 Z M157 990 Q160 1045 184 1081.5 Q208 1118 259 1118 Q281 1118 297.5 1110.5 Q314 1103 334 1088 Q371 1060 394 1060 Q406 1060 414.5 1070 Q423 1080 424 1109 L495 1109 Q490 981 392 981 Q369 981 349.5 988.5 Q330 996 311 1010 Q291 1026 280 1032.5 Q269 1039 258 1039 Q231 1039 228 990 L157 990 Z M488 903 Q484 840 439 802 Q394 764 325 764 Q286 764 256.5 774.5 Q227 785 206.5 804 Q186 823 175 848 Q164 873 163 903 L242 903 Q244 877 265.5 861 Q287 845 325 845 Q365 845 385.5 861.5 Q406 878 408 903 L488 903 Z " />
<glyph glyph-name="uni1EB5" unicode="&#x1eb5;" horiz-adv-x="604" d="M538 0 L429 0 L429 61 L426 61 Q401 30 361.5 6.5 Q322 -17 262 -17 Q221 -17 180 -1 Q139 15 106 47.5 Q73 80 52.5 128 Q32 176 32 240 Q32 297 51 344 Q70 391 102.5 424 Q135 457 178 475.5 Q221 494 270 494 Q300 494 324 487 Q348 480 367 468.5 Q386 457 401 442.5 Q416 428 427 414 L429 414 L429 479 L538 479 L538 0 Z M147 240 Q147 210 155.5 181.5 Q164 153 182 130.5 Q200 108 227 94.5 Q254 81 292 81 Q320 81 345.5 92.5 Q371 104 390.5 124.5 Q410 145 422 173.5 Q434 202 434 237 Q434 273 423 303 Q412 333 393 354 Q374 375 348 386.5 Q322 398 293 398 Q256 398 228.5 384.5 Q201 371 183 348.5 Q165 326 156 297.5 Q147 269 147 240 Z M116 788 Q119 843 143 879.5 Q167 916 218 916 Q240 916 256.5 908.5 Q273 901 293 886 Q330 858 353 858 Q365 858 373.5 868 Q382 878 383 907 L454 907 Q449 779 351 779 Q328 779 308.5 786.5 Q289 794 270 808 Q250 824 239 830.5 Q228 837 217 837 Q190 837 187 788 L116 788 Z M447 701 Q443 638 398 600 Q353 562 284 562 Q245 562 215.5 572.5 Q186 583 165.5 602 Q145 621 134 646 Q123 671 122 701 L201 701 Q203 675 224.5 659 Q246 643 284 643 Q324 643 344.5 659.5 Q365 676 367 701 L447 701 Z " />
<glyph glyph-name="uni1EB6" unicode="&#x1eb6;" horiz-adv-x="652" d="M279 682 L387 682 L646 0 L523 0 L462 167 L190 167 L128 0 L8 0 L279 682 Z M221 257 L431 257 L368 432 Q357 461 347.5 492 Q338 523 330 550 L325 550 Q317 522 306.5 490.5 Q296 459 285 431 L221 257 Z M489 903 Q485 840 440 802 Q395 764 326 764 Q287 764 257.5 774.5 Q228 785 207.5 804 Q187 823 176 848 Q165 873 164 903 L243 903 Q245 877 266.5 861 Q288 845 326 845 Q366 845 386.5 861.5 Q407 878 409 903 L489 903 Z M273 -82 L381 -82 L381 -186 L273 -186 L273 -82 Z " />
<glyph glyph-name="uni1EB7" unicode="&#x1eb7;" horiz-adv-x="604" d="M538 0 L429 0 L429 61 L426 61 Q401 30 361.5 6.5 Q322 -17 262 -17 Q221 -17 180 -1 Q139 15 106 47.5 Q73 80 52.5 128 Q32 176 32 240 Q32 297 51 344 Q70 391 102.5 424 Q135 457 178 475.5 Q221 494 270 494 Q300 494 324 487 Q348 480 367 468.5 Q386 457 401 442.5 Q416 428 427 414 L429 414 L429 479 L538 479 L538 0 Z M147 240 Q147 210 155.5 181.5 Q164 153 182 130.5 Q200 108 227 94.5 Q254 81 292 81 Q320 81 345.5 92.5 Q371 104 390.5 124.5 Q410 145 422 173.5 Q434 202 434 237 Q434 273 423 303 Q412 333 393 354 Q374 375 348 386.5 Q322 398 293 398 Q256 398 228.5 384.5 Q201 371 183 348.5 Q165 326 156 297.5 Q147 269 147 240 Z M447 701 Q443 638 398 600 Q353 562 284 562 Q245 562 215.5 572.5 Q186 583 165.5 602 Q145 621 134 646 Q123 671 122 701 L201 701 Q203 675 224.5 659 Q246 643 284 643 Q324 643 344.5 659.5 Q365 676 367 701 L447 701 Z M231 -82 L339 -82 L339 -186 L231 -186 L231 -82 Z " />
<glyph glyph-name="uni1EB8" unicode="&#x1eb8;" horiz-adv-x="535" d="M464 578 L188 578 L188 403 L454 403 L454 302 L188 302 L188 104 L475 104 L475 0 L70 0 L70 682 L464 682 L464 578 Z M219 -82 L327 -82 L327 -186 L219 -186 L219 -82 Z " />
<glyph glyph-name="uni1EB9" unicode="&#x1eb9;" horiz-adv-x="551" d="M275 495 Q337 495 382.5 473 Q428 451 457.5 415 Q487 379 501.5 334 Q516 289 516 244 Q516 236 516 227.5 Q516 219 514 211 L144 211 Q144 183 155.5 157.5 Q167 132 186.5 113 Q206 94 232 82.5 Q258 71 287 71 Q324 71 349.5 85 Q375 99 394 125 L509 125 Q497 98 478 72 Q459 46 431.5 26.5 Q404 7 368 -5 Q332 -17 287 -17 Q231 -17 184.5 2.5 Q138 22 104 56.5 Q70 91 51 139 Q32 187 32 244 Q32 295 48.5 340.5 Q65 386 96.5 420.5 Q128 455 173 475 Q218 495 275 495 Z M275 411 Q246 411 223 401 Q200 391 183.5 374.5 Q167 358 157 336.5 Q147 315 145 292 L404 292 Q401 316 391 337.5 Q381 359 364.5 375.5 Q348 392 325.5 401.5 Q303 411 275 411 Z M220 -80 L328 -80 L328 -184 L220 -184 L220 -80 Z " />
<glyph glyph-name="uni1EBA" unicode="&#x1eba;" horiz-adv-x="535" d="M464 578 L188 578 L188 403 L454 403 L454 302 L188 302 L188 104 L475 104 L475 0 L70 0 L70 682 L464 682 L464 578 Z M235 764 L228 844 L239 846 Q279 852 292 862 Q307 874 307 889 Q307 897 305 903.5 Q303 910 295 915 Q290 918 280.5 920.5 Q271 923 252 923 Q223 923 210 920 L196 918 L196 976 L205 978 Q215 981 228 982 Q241 983 258 983 Q290 983 314 978 Q338 973 354 960 Q368 949 378.5 934.5 Q389 920 389 898 Q389 862 366 836 Q346 816 311 807 L306 764 L235 764 Z " />
<glyph glyph-name="uni1EBB" unicode="&#x1ebb;" horiz-adv-x="551" d="M275 495 Q337 495 382.5 473 Q428 451 457.5 415 Q487 379 501.5 334 Q516 289 516 244 Q516 236 516 227.5 Q516 219 514 211 L144 211 Q144 183 155.5 157.5 Q167 132 186.5 113 Q206 94 232 82.5 Q258 71 287 71 Q324 71 349.5 85 Q375 99 394 125 L509 125 Q497 98 478 72 Q459 46 431.5 26.5 Q404 7 368 -5 Q332 -17 287 -17 Q231 -17 184.5 2.5 Q138 22 104 56.5 Q70 91 51 139 Q32 187 32 244 Q32 295 48.5 340.5 Q65 386 96.5 420.5 Q128 455 173 475 Q218 495 275 495 Z M246 564 L239 644 L250 646 Q290 652 303 662 Q318 674 318 689 Q318 697 316 703.5 Q314 710 306 715 Q301 718 291.5 720.5 Q282 723 263 723 Q234 723 221 720 L207 718 L207 776 L216 778 Q226 781 239 782 Q252 783 269 783 Q301 783 325 778 Q349 773 365 760 Q379 749 389.5 734.5 Q400 720 400 698 Q400 662 377 636 Q357 616 322 607 L317 564 L246 564 Z M275 411 Q246 411 223 401 Q200 391 183.5 374.5 Q167 358 157 336.5 Q147 315 145 292 L404 292 Q401 316 391 337.5 Q381 359 364.5 375.5 Q348 392 325.5 401.5 Q303 411 275 411 Z " />
<glyph glyph-name="uni1EBC" unicode="&#x1ebc;" horiz-adv-x="535" d="M464 578 L188 578 L188 403 L454 403 L454 302 L188 302 L188 104 L475 104 L475 0 L70 0 L70 682 L464 682 L464 578 Z M104 773 Q107 828 131 864.5 Q155 901 206 901 Q228 901 244.5 893.5 Q261 886 281 871 Q318 843 341 843 Q353 843 361.5 853 Q370 863 371 892 L442 892 Q437 764 339 764 Q316 764 296.5 771.5 Q277 779 258 793 Q238 809 227 815.5 Q216 822 205 822 Q178 822 175 773 L104 773 Z " />
<glyph glyph-name="uni1EBD" unicode="&#x1ebd;" horiz-adv-x="551" d="M275 495 Q337 495 382.5 473 Q428 451 457.5 415 Q487 379 501.5 334 Q516 289 516 244 Q516 236 516 227.5 Q516 219 514 211 L144 211 Q144 183 155.5 157.5 Q167 132 186.5 113 Q206 94 232 82.5 Q258 71 287 71 Q324 71 349.5 85 Q375 99 394 125 L509 125 Q497 98 478 72 Q459 46 431.5 26.5 Q404 7 368 -5 Q332 -17 287 -17 Q231 -17 184.5 2.5 Q138 22 104 56.5 Q70 91 51 139 Q32 187 32 244 Q32 295 48.5 340.5 Q65 386 96.5 420.5 Q128 455 173 475 Q218 495 275 495 Z M105 573 Q108 628 132 664.5 Q156 701 207 701 Q229 701 245.5 693.5 Q262 686 282 671 Q319 643 342 643 Q354 643 362.5 653 Q371 663 372 692 L443 692 Q438 564 340 564 Q317 564 297.5 571.5 Q278 579 259 593 Q239 609 228 615.5 Q217 622 206 622 Q179 622 176 573 L105 573 Z M275 411 Q246 411 223 401 Q200 391 183.5 374.5 Q167 358 157 336.5 Q147 315 145 292 L404 292 Q401 316 391 337.5 Q381 359 364.5 375.5 Q348 392 325.5 401.5 Q303 411 275 411 Z " />
<glyph glyph-name="uni1EBE" unicode="&#x1ebe;" horiz-adv-x="535" d="M467 578 L191 578 L191 403 L457 403 L457 302 L191 302 L191 104 L478 104 L478 0 L73 0 L73 682 L467 682 L467 578 Z M431 826 L399 764 L276 823 L153 764 L121 826 L276 927 L431 826 Z M474 1133 L536 1060 L376 931 L326 991 L474 1133 Z " />
<glyph glyph-name="uni1EBF" unicode="&#x1ebf;" horiz-adv-x="551" d="M279 495 Q341 495 386.5 473 Q432 451 461.5 415 Q491 379 505.5 334 Q520 289 520 244 Q520 236 520 227.5 Q520 219 518 211 L148 211 Q148 183 159.5 157.5 Q171 132 190.5 113 Q210 94 236 82.5 Q262 71 291 71 Q328 71 353.5 85 Q379 99 398 125 L513 125 Q501 98 482 72 Q463 46 435.5 26.5 Q408 7 372 -5 Q336 -17 291 -17 Q235 -17 188.5 2.5 Q142 22 108 56.5 Q74 91 55 139 Q36 187 36 244 Q36 295 52.5 340.5 Q69 386 100.5 420.5 Q132 455 177 475 Q222 495 279 495 Z M433 626 L401 564 L278 623 L155 564 L123 626 L278 727 L433 626 Z M279 411 Q250 411 227 401 Q204 391 187.5 374.5 Q171 358 161 336.5 Q151 315 149 292 L408 292 Q405 316 395 337.5 Q385 359 368.5 375.5 Q352 392 329.5 401.5 Q307 411 279 411 Z M476 933 L538 860 L378 731 L328 791 L476 933 Z " />
<glyph glyph-name="uni1EC0" unicode="&#x1ec0;" horiz-adv-x="535" d="M467 578 L191 578 L191 403 L457 403 L457 302 L191 302 L191 104 L478 104 L478 0 L73 0 L73 682 L467 682 L467 578 Z M422 826 L390 764 L267 823 L144 764 L112 826 L267 927 L422 826 Z M417 991 L367 931 L207 1060 L269 1133 L417 991 Z " />
<glyph glyph-name="uni1EC1" unicode="&#x1ec1;" horiz-adv-x="551" d="M279 495 Q341 495 386.5 473 Q432 451 461.5 415 Q491 379 505.5 334 Q520 289 520 244 Q520 236 520 227.5 Q520 219 518 211 L148 211 Q148 183 159.5 157.5 Q171 132 190.5 113 Q210 94 236 82.5 Q262 71 291 71 Q328 71 353.5 85 Q379 99 398 125 L513 125 Q501 98 482 72 Q463 46 435.5 26.5 Q408 7 372 -5 Q336 -17 291 -17 Q235 -17 188.5 2.5 Q142 22 108 56.5 Q74 91 55 139 Q36 187 36 244 Q36 295 52.5 340.5 Q69 386 100.5 420.5 Q132 455 177 475 Q222 495 279 495 Z M424 626 L392 564 L269 623 L146 564 L114 626 L269 727 L424 626 Z M279 411 Q250 411 227 401 Q204 391 187.5 374.5 Q171 358 161 336.5 Q151 315 149 292 L408 292 Q405 316 395 337.5 Q385 359 368.5 375.5 Q352 392 329.5 401.5 Q307 411 279 411 Z M419 791 L369 731 L209 860 L271 933 L419 791 Z " />
<glyph glyph-name="uni1EC2" unicode="&#x1ec2;" horiz-adv-x="535" d="M467 578 L191 578 L191 403 L457 403 L457 302 L191 302 L191 104 L478 104 L478 0 L73 0 L73 682 L467 682 L467 578 Z M431 826 L399 764 L276 823 L153 764 L121 826 L276 927 L431 826 Z M356 931 L349 1011 L360 1013 Q400 1019 413 1029 Q428 1041 428 1056 Q428 1064 426 1070.5 Q424 1077 416 1082 Q411 1085 401.5 1087.5 Q392 1090 373 1090 Q344 1090 331 1087 L317 1085 L317 1143 L326 1145 Q336 1148 349 1149 Q362 1150 379 1150 Q411 1150 435 1145 Q459 1140 475 1127 Q489 1116 499.5 1101.5 Q510 1087 510 1065 Q510 1029 487 1003 Q467 983 432 974 L427 931 L356 931 Z " />
<glyph glyph-name="uni1EC3" unicode="&#x1ec3;" horiz-adv-x="551" d="M278 495 Q340 495 385.5 473 Q431 451 460.5 415 Q490 379 504.5 334 Q519 289 519 244 Q519 236 519 227.5 Q519 219 517 211 L147 211 Q147 183 158.5 157.5 Q170 132 189.5 113 Q209 94 235 82.5 Q261 71 290 71 Q327 71 352.5 85 Q378 99 397 125 L512 125 Q500 98 481 72 Q462 46 434.5 26.5 Q407 7 371 -5 Q335 -17 290 -17 Q234 -17 187.5 2.5 Q141 22 107 56.5 Q73 91 54 139 Q35 187 35 244 Q35 295 51.5 340.5 Q68 386 99.5 420.5 Q131 455 176 475 Q221 495 278 495 Z M432 626 L400 564 L277 623 L154 564 L122 626 L277 727 L432 626 Z M357 731 L350 811 L361 813 Q401 819 414 829 Q429 841 429 856 Q429 864 427 870.5 Q425 877 417 882 Q412 885 402.5 887.5 Q393 890 374 890 Q345 890 332 887 L318 885 L318 943 L327 945 Q337 948 350 949 Q363 950 380 950 Q412 950 436 945 Q460 940 476 927 Q490 916 500.5 901.5 Q511 887 511 865 Q511 829 488 803 Q468 783 433 774 L428 731 L357 731 Z M278 411 Q249 411 226 401 Q203 391 186.5 374.5 Q170 358 160 336.5 Q150 315 148 292 L407 292 Q404 316 394 337.5 Q384 359 367.5 375.5 Q351 392 328.5 401.5 Q306 411 278 411 Z " />
<glyph glyph-name="uni1EC4" unicode="&#x1ec4;" horiz-adv-x="535" d="M467 578 L191 578 L191 403 L457 403 L457 302 L191 302 L191 104 L478 104 L478 0 L73 0 L73 682 L467 682 L467 578 Z M106 990 Q109 1045 133 1081.5 Q157 1118 208 1118 Q230 1118 246.5 1110.5 Q263 1103 283 1088 Q320 1060 343 1060 Q355 1060 363.5 1070 Q372 1080 373 1109 L444 1109 Q439 981 341 981 Q318 981 298.5 988.5 Q279 996 260 1010 Q240 1026 229 1032.5 Q218 1039 207 1039 Q180 1039 177 990 L106 990 Z M430 826 L398 764 L275 823 L152 764 L120 826 L275 927 L430 826 Z " />
<glyph glyph-name="uni1EC5" unicode="&#x1ec5;" horiz-adv-x="551" d="M279 495 Q341 495 386.5 473 Q432 451 461.5 415 Q491 379 505.5 334 Q520 289 520 244 Q520 236 520 227.5 Q520 219 518 211 L148 211 Q148 183 159.5 157.5 Q171 132 190.5 113 Q210 94 236 82.5 Q262 71 291 71 Q328 71 353.5 85 Q379 99 398 125 L513 125 Q501 98 482 72 Q463 46 435.5 26.5 Q408 7 372 -5 Q336 -17 291 -17 Q235 -17 188.5 2.5 Q142 22 108 56.5 Q74 91 55 139 Q36 187 36 244 Q36 295 52.5 340.5 Q69 386 100.5 420.5 Q132 455 177 475 Q222 495 279 495 Z M109 790 Q112 845 136 881.5 Q160 918 211 918 Q233 918 249.5 910.5 Q266 903 286 888 Q323 860 346 860 Q358 860 366.5 870 Q375 880 376 909 L447 909 Q442 781 344 781 Q321 781 301.5 788.5 Q282 796 263 810 Q243 826 232 832.5 Q221 839 210 839 Q183 839 180 790 L109 790 Z M433 626 L401 564 L278 623 L155 564 L123 626 L278 727 L433 626 Z M279 411 Q250 411 227 401 Q204 391 187.5 374.5 Q171 358 161 336.5 Q151 315 149 292 L408 292 Q405 316 395 337.5 Q385 359 368.5 375.5 Q352 392 329.5 401.5 Q307 411 279 411 Z " />
<glyph glyph-name="uni1EC6" unicode="&#x1ec6;" horiz-adv-x="535" d="M467 578 L191 578 L191 403 L457 403 L457 302 L191 302 L191 104 L478 104 L478 0 L73 0 L73 682 L467 682 L467 578 Z M430 826 L398 764 L275 823 L152 764 L120 826 L275 927 L430 826 Z M221 -82 L329 -82 L329 -186 L221 -186 L221 -82 Z " />
<glyph glyph-name="uni1EC7" unicode="&#x1ec7;" horiz-adv-x="551" d="M278 495 Q340 495 385.5 473 Q431 451 460.5 415 Q490 379 504.5 334 Q519 289 519 244 Q519 236 519 227.5 Q519 219 517 211 L147 211 Q147 183 158.5 157.5 Q170 132 189.5 113 Q209 94 235 82.5 Q261 71 290 71 Q327 71 352.5 85 Q378 99 397 125 L512 125 Q500 98 481 72 Q462 46 434.5 26.5 Q407 7 371 -5 Q335 -17 290 -17 Q234 -17 187.5 2.5 Q141 22 107 56.5 Q73 91 54 139 Q35 187 35 244 Q35 295 51.5 340.5 Q68 386 99.5 420.5 Q131 455 176 475 Q221 495 278 495 Z M432 626 L400 564 L277 623 L154 564 L122 626 L277 727 L432 626 Z M278 411 Q249 411 226 401 Q203 391 186.5 374.5 Q170 358 160 336.5 Q150 315 148 292 L407 292 Q404 316 394 337.5 Q384 359 367.5 375.5 Q351 392 328.5 401.5 Q306 411 278 411 Z M223 -80 L331 -80 L331 -184 L223 -184 L223 -80 Z " />
<glyph glyph-name="uni1EC8" unicode="&#x1ec8;" horiz-adv-x="259" d="M70 682 L188 682 L188 0 L70 0 L70 682 Z M91 764 L84 844 L95 846 Q135 852 148 862 Q163 874 163 889 Q163 897 161 903.5 Q159 910 151 915 Q146 918 136.5 920.5 Q127 923 108 923 Q79 923 66 920 L52 918 L52 976 L61 978 Q71 981 84 982 Q97 983 114 983 Q146 983 170 978 Q194 973 210 960 Q224 949 234.5 934.5 Q245 920 245 898 Q245 862 222 836 Q202 816 167 807 L162 764 L91 764 Z " />
<glyph glyph-name="uni1EC9" unicode="&#x1ec9;" horiz-adv-x="242" d="M65 479 L177 479 L177 0 L65 0 L65 479 Z M83 562 L76 642 L87 644 Q127 650 140 660 Q155 672 155 687 Q155 695 153 701.5 Q151 708 143 713 Q138 716 128.5 718.5 Q119 721 100 721 Q71 721 58 718 L44 716 L44 774 L53 776 Q63 779 76 780 Q89 781 106 781 Q138 781 162 776 Q186 771 202 758 Q216 747 226.5 732.5 Q237 718 237 696 Q237 660 214 634 Q194 614 159 605 L154 562 L83 562 Z " />
<glyph glyph-name="uni1ECA" unicode="&#x1eca;" horiz-adv-x="259" d="M71 681 L189 681 L189 -1 L71 -1 L71 681 Z M76 -83 L184 -83 L184 -187 L76 -187 L76 -83 Z " />
<glyph glyph-name="uni1ECB" unicode="&#x1ecb;" horiz-adv-x="242" d="M67 -82 L175 -82 L175 -186 L67 -186 L67 -82 Z M65 479 L177 479 L177 0 L65 0 L65 479 Z M59 699 L183 699 L183 585 L59 585 L59 699 Z " />
<glyph glyph-name="uni1ECC" unicode="&#x1ecc;" horiz-adv-x="793" d="M35 341 Q35 414 62 480 Q89 546 137.5 595.5 Q186 645 252.5 674.5 Q319 704 398 704 Q482 704 548.5 674 Q615 644 661.5 593.5 Q708 543 733 477.5 Q758 412 758 341 Q758 266 730.5 200 Q703 134 654.5 84.5 Q606 35 540 6.5 Q474 -22 397 -22 Q303 -22 235 11 Q167 44 122.5 96 Q78 148 56.5 213 Q35 278 35 341 Z M156 341 Q156 286 174.5 239 Q193 192 225 157.5 Q257 123 301 103.5 Q345 84 396 84 Q447 84 491.5 103.5 Q536 123 568 157.5 Q600 192 618.5 239 Q637 286 637 341 Q637 395 619.5 442 Q602 489 570.5 523.5 Q539 558 495 578 Q451 598 397 598 Q346 598 302 578.5 Q258 559 225.5 525 Q193 491 174.5 443.5 Q156 396 156 341 Z M343 -82 L451 -82 L451 -186 L343 -186 L343 -82 Z " />
<glyph glyph-name="uni1ECD" unicode="&#x1ecd;" horiz-adv-x="577" d="M32 240 Q32 295 51.5 342 Q71 389 105.5 423 Q140 457 187 476 Q234 495 288 495 Q344 495 391 475.5 Q438 456 472 422 Q506 388 525 341 Q544 294 544 240 Q544 187 525 140.5 Q506 94 472 59 Q438 24 391 3.5 Q344 -17 288 -17 Q233 -17 186.5 3 Q140 23 105.5 57.5 Q71 92 51.5 139 Q32 186 32 240 Z M146 240 Q146 205 157.5 176.5 Q169 148 188.5 127 Q208 106 233.5 94.5 Q259 83 288 83 Q320 83 346.5 95 Q373 107 391.5 128 Q410 149 420.5 178 Q431 207 431 240 Q431 272 421 300.5 Q411 329 392.5 350 Q374 371 347.5 383.5 Q321 396 288 396 Q256 396 229.5 384 Q203 372 184.5 351 Q166 330 156 301.5 Q146 273 146 240 Z M234 -82 L342 -82 L342 -186 L234 -186 L234 -82 Z " />
<glyph glyph-name="uni1ECE" unicode="&#x1ece;" horiz-adv-x="793" d="M35 340 Q35 413 62 479 Q89 545 137.5 594.5 Q186 644 252.5 673.5 Q319 703 398 703 Q482 703 548.5 673 Q615 643 661.5 592.5 Q708 542 733 476.5 Q758 411 758 340 Q758 265 730.5 199 Q703 133 654.5 83.5 Q606 34 540 5.5 Q474 -23 397 -23 Q303 -23 235 10 Q167 43 122.5 95 Q78 147 56.5 212 Q35 277 35 340 Z M156 340 Q156 285 174.5 238 Q193 191 225 156.5 Q257 122 301 102.5 Q345 83 396 83 Q447 83 491.5 102.5 Q536 122 568 156.5 Q600 191 618.5 238 Q637 285 637 340 Q637 394 619.5 441 Q602 488 570.5 522.5 Q539 557 495 577 Q451 597 397 597 Q346 597 302 577.5 Q258 558 225.5 524 Q193 490 174.5 442.5 Q156 395 156 340 Z M369 763 L362 843 L373 845 Q413 851 426 861 Q441 873 441 888 Q441 896 439 902.5 Q437 909 429 914 Q424 917 414.5 919.5 Q405 922 386 922 Q357 922 344 919 L330 917 L330 975 L339 977 Q349 980 362 981 Q375 982 392 982 Q424 982 448 977 Q472 972 488 959 Q502 948 512.5 933.5 Q523 919 523 897 Q523 861 500 835 Q480 815 445 806 L440 763 L369 763 Z " />
<glyph glyph-name="uni1ECF" unicode="&#x1ecf;" horiz-adv-x="577" d="M32 240 Q32 295 51.5 342 Q71 389 105.5 423 Q140 457 187 476 Q234 495 288 495 Q344 495 391 475.5 Q438 456 472 422 Q506 388 525 341 Q544 294 544 240 Q544 187 525 140.5 Q506 94 472 59 Q438 24 391 3.5 Q344 -17 288 -17 Q233 -17 186.5 3 Q140 23 105.5 57.5 Q71 92 51.5 139 Q32 186 32 240 Z M146 240 Q146 205 157.5 176.5 Q169 148 188.5 127 Q208 106 233.5 94.5 Q259 83 288 83 Q320 83 346.5 95 Q373 107 391.5 128 Q410 149 420.5 178 Q431 207 431 240 Q431 272 421 300.5 Q411 329 392.5 350 Q374 371 347.5 383.5 Q321 396 288 396 Q256 396 229.5 384 Q203 372 184.5 351 Q166 330 156 301.5 Q146 273 146 240 Z M251 561 L244 641 L255 643 Q295 649 308 659 Q323 671 323 686 Q323 694 321 700.5 Q319 707 311 712 Q306 715 296.5 717.5 Q287 720 268 720 Q239 720 226 717 L212 715 L212 773 L221 775 Q231 778 244 779 Q257 780 274 780 Q306 780 330 775 Q354 770 370 757 Q384 746 394.5 731.5 Q405 717 405 695 Q405 659 382 633 Q362 613 327 604 L322 561 L251 561 Z " />
<glyph glyph-name="uni1ED0" unicode="&#x1ed0;" horiz-adv-x="793" d="M38 341 Q38 414 65 480 Q92 546 140.5 595.5 Q189 645 255.5 674.5 Q322 704 401 704 Q485 704 551.5 674 Q618 644 664.5 593.5 Q711 543 736 477.5 Q761 412 761 341 Q761 266 733.5 200 Q706 134 657.5 84.5 Q609 35 543 6.5 Q477 -22 400 -22 Q306 -22 238 11 Q170 44 125.5 96 Q81 148 59.5 213 Q38 278 38 341 Z M159 341 Q159 286 177.5 239 Q196 192 228 157.5 Q260 123 304 103.5 Q348 84 399 84 Q450 84 494.5 103.5 Q539 123 571 157.5 Q603 192 621.5 239 Q640 286 640 341 Q640 395 622.5 442 Q605 489 573.5 523.5 Q542 558 498 578 Q454 598 400 598 Q349 598 305 578.5 Q261 559 228.5 525 Q196 491 177.5 443.5 Q159 396 159 341 Z M555 826 L523 764 L400 823 L277 764 L245 826 L400 927 L555 826 Z M598 1133 L660 1060 L500 931 L450 991 L598 1133 Z " />
<glyph glyph-name="uni1ED1" unicode="&#x1ed1;" horiz-adv-x="577" d="M35 240 Q35 295 54.5 342 Q74 389 108.5 423 Q143 457 190 476 Q237 495 291 495 Q347 495 394 475.5 Q441 456 475 422 Q509 388 528 341 Q547 294 547 240 Q547 187 528 140.5 Q509 94 475 59 Q441 24 394 3.5 Q347 -17 291 -17 Q236 -17 189.5 3 Q143 23 108.5 57.5 Q74 92 54.5 139 Q35 186 35 240 Z M149 240 Q149 205 160.5 176.5 Q172 148 191.5 127 Q211 106 236.5 94.5 Q262 83 291 83 Q323 83 349.5 95 Q376 107 394.5 128 Q413 149 423.5 178 Q434 207 434 240 Q434 272 424 300.5 Q414 329 395.5 350 Q377 371 350.5 383.5 Q324 396 291 396 Q259 396 232.5 384 Q206 372 187.5 351 Q169 330 159 301.5 Q149 273 149 240 Z M446 626 L414 564 L291 623 L168 564 L136 626 L291 727 L446 626 Z M489 933 L551 860 L391 731 L341 791 L489 933 Z " />
<glyph glyph-name="uni1ED2" unicode="&#x1ed2;" horiz-adv-x="793" d="M38 341 Q38 414 65 480 Q92 546 140.5 595.5 Q189 645 255.5 674.5 Q322 704 401 704 Q485 704 551.5 674 Q618 644 664.5 593.5 Q711 543 736 477.5 Q761 412 761 341 Q761 266 733.5 200 Q706 134 657.5 84.5 Q609 35 543 6.5 Q477 -22 400 -22 Q306 -22 238 11 Q170 44 125.5 96 Q81 148 59.5 213 Q38 278 38 341 Z M159 341 Q159 286 177.5 239 Q196 192 228 157.5 Q260 123 304 103.5 Q348 84 399 84 Q450 84 494.5 103.5 Q539 123 571 157.5 Q603 192 621.5 239 Q640 286 640 341 Q640 395 622.5 442 Q605 489 573.5 523.5 Q542 558 498 578 Q454 598 400 598 Q349 598 305 578.5 Q261 559 228.5 525 Q196 491 177.5 443.5 Q159 396 159 341 Z M554 826 L522 764 L399 823 L276 764 L244 826 L399 927 L554 826 Z M549 991 L499 931 L339 1060 L401 1133 L549 991 Z " />
<glyph glyph-name="uni1ED3" unicode="&#x1ed3;" horiz-adv-x="577" d="M35 240 Q35 295 54.5 342 Q74 389 108.5 423 Q143 457 190 476 Q237 495 291 495 Q347 495 394 475.5 Q441 456 475 422 Q509 388 528 341 Q547 294 547 240 Q547 187 528 140.5 Q509 94 475 59 Q441 24 394 3.5 Q347 -17 291 -17 Q236 -17 189.5 3 Q143 23 108.5 57.5 Q74 92 54.5 139 Q35 186 35 240 Z M149 240 Q149 205 160.5 176.5 Q172 148 191.5 127 Q211 106 236.5 94.5 Q262 83 291 83 Q323 83 349.5 95 Q376 107 394.5 128 Q413 149 423.5 178 Q434 207 434 240 Q434 272 424 300.5 Q414 329 395.5 350 Q377 371 350.5 383.5 Q324 396 291 396 Q259 396 232.5 384 Q206 372 187.5 351 Q169 330 159 301.5 Q149 273 149 240 Z M446 626 L414 564 L291 623 L168 564 L136 626 L291 727 L446 626 Z M441 791 L391 731 L231 860 L293 933 L441 791 Z " />
<glyph glyph-name="uni1ED4" unicode="&#x1ed4;" horiz-adv-x="793" d="M38 341 Q38 414 65 480 Q92 546 140.5 595.5 Q189 645 255.5 674.5 Q322 704 401 704 Q485 704 551.5 674 Q618 644 664.5 593.5 Q711 543 736 477.5 Q761 412 761 341 Q761 266 733.5 200 Q706 134 657.5 84.5 Q609 35 543 6.5 Q477 -22 400 -22 Q306 -22 238 11 Q170 44 125.5 96 Q81 148 59.5 213 Q38 278 38 341 Z M159 341 Q159 286 177.5 239 Q196 192 228 157.5 Q260 123 304 103.5 Q348 84 399 84 Q450 84 494.5 103.5 Q539 123 571 157.5 Q603 192 621.5 239 Q640 286 640 341 Q640 395 622.5 442 Q605 489 573.5 523.5 Q542 558 498 578 Q454 598 400 598 Q349 598 305 578.5 Q261 559 228.5 525 Q196 491 177.5 443.5 Q159 396 159 341 Z M555 826 L523 764 L400 823 L277 764 L245 826 L400 927 L555 826 Z M480 931 L473 1011 L484 1013 Q524 1019 537 1029 Q552 1041 552 1056 Q552 1064 550 1070.5 Q548 1077 540 1082 Q535 1085 525.5 1087.5 Q516 1090 497 1090 Q468 1090 455 1087 L441 1085 L441 1143 L450 1145 Q460 1148 473 1149 Q486 1150 503 1150 Q535 1150 559 1145 Q583 1140 599 1127 Q613 1116 623.5 1101.5 Q634 1087 634 1065 Q634 1029 611 1003 Q591 983 556 974 L551 931 L480 931 Z " />
<glyph glyph-name="uni1ED5" unicode="&#x1ed5;" horiz-adv-x="577" d="M35 240 Q35 295 54.5 342 Q74 389 108.5 423 Q143 457 190 476 Q237 495 291 495 Q347 495 394 475.5 Q441 456 475 422 Q509 388 528 341 Q547 294 547 240 Q547 187 528 140.5 Q509 94 475 59 Q441 24 394 3.5 Q347 -17 291 -17 Q236 -17 189.5 3 Q143 23 108.5 57.5 Q74 92 54.5 139 Q35 186 35 240 Z M149 240 Q149 205 160.5 176.5 Q172 148 191.5 127 Q211 106 236.5 94.5 Q262 83 291 83 Q323 83 349.5 95 Q376 107 394.5 128 Q413 149 423.5 178 Q434 207 434 240 Q434 272 424 300.5 Q414 329 395.5 350 Q377 371 350.5 383.5 Q324 396 291 396 Q259 396 232.5 384 Q206 372 187.5 351 Q169 330 159 301.5 Q149 273 149 240 Z M446 626 L414 564 L291 623 L168 564 L136 626 L291 727 L446 626 Z M371 731 L364 811 L375 813 Q415 819 428 829 Q443 841 443 856 Q443 864 441 870.5 Q439 877 431 882 Q426 885 416.5 887.5 Q407 890 388 890 Q359 890 346 887 L332 885 L332 943 L341 945 Q351 948 364 949 Q377 950 394 950 Q426 950 450 945 Q474 940 490 927 Q504 916 514.5 901.5 Q525 887 525 865 Q525 829 502 803 Q482 783 447 774 L442 731 L371 731 Z " />
<glyph glyph-name="uni1ED6" unicode="&#x1ed6;" horiz-adv-x="793" d="M40 341 Q40 414 67 480 Q94 546 142.5 595.5 Q191 645 257.5 674.5 Q324 704 403 704 Q487 704 553.5 674 Q620 644 666.5 593.5 Q713 543 738 477.5 Q763 412 763 341 Q763 266 735.5 200 Q708 134 659.5 84.5 Q611 35 545 6.5 Q479 -22 402 -22 Q308 -22 240 11 Q172 44 127.5 96 Q83 148 61.5 213 Q40 278 40 341 Z M161 341 Q161 286 179.5 239 Q198 192 230 157.5 Q262 123 306 103.5 Q350 84 401 84 Q452 84 496.5 103.5 Q541 123 573 157.5 Q605 192 623.5 239 Q642 286 642 341 Q642 395 624.5 442 Q607 489 575.5 523.5 Q544 558 500 578 Q456 598 402 598 Q351 598 307 578.5 Q263 559 230.5 525 Q198 491 179.5 443.5 Q161 396 161 341 Z M232 990 Q235 1045 259 1081.5 Q283 1118 334 1118 Q356 1118 372.5 1110.5 Q389 1103 409 1088 Q446 1060 469 1060 Q481 1060 489.5 1070 Q498 1080 499 1109 L570 1109 Q565 981 467 981 Q444 981 424.5 988.5 Q405 996 386 1010 Q366 1026 355 1032.5 Q344 1039 333 1039 Q306 1039 303 990 L232 990 Z M556 826 L524 764 L401 823 L278 764 L246 826 L401 927 L556 826 Z " />
<glyph glyph-name="uni1ED7" unicode="&#x1ed7;" horiz-adv-x="577" d="M35 240 Q35 295 54.5 342 Q74 389 108.5 423 Q143 457 190 476 Q237 495 291 495 Q347 495 394 475.5 Q441 456 475 422 Q509 388 528 341 Q547 294 547 240 Q547 187 528 140.5 Q509 94 475 59 Q441 24 394 3.5 Q347 -17 291 -17 Q236 -17 189.5 3 Q143 23 108.5 57.5 Q74 92 54.5 139 Q35 186 35 240 Z M149 240 Q149 205 160.5 176.5 Q172 148 191.5 127 Q211 106 236.5 94.5 Q262 83 291 83 Q323 83 349.5 95 Q376 107 394.5 128 Q413 149 423.5 178 Q434 207 434 240 Q434 272 424 300.5 Q414 329 395.5 350 Q377 371 350.5 383.5 Q324 396 291 396 Q259 396 232.5 384 Q206 372 187.5 351 Q169 330 159 301.5 Q149 273 149 240 Z M122 790 Q125 845 149 881.5 Q173 918 224 918 Q246 918 262.5 910.5 Q279 903 299 888 Q336 860 359 860 Q371 860 379.5 870 Q388 880 389 909 L460 909 Q455 781 357 781 Q334 781 314.5 788.5 Q295 796 276 810 Q256 826 245 832.5 Q234 839 223 839 Q196 839 193 790 L122 790 Z M446 626 L414 564 L291 623 L168 564 L136 626 L291 727 L446 626 Z " />
<glyph glyph-name="uni1ED8" unicode="&#x1ed8;" horiz-adv-x="793" d="M38 341 Q38 414 65 480 Q92 546 140.5 595.5 Q189 645 255.5 674.5 Q322 704 401 704 Q485 704 551.5 674 Q618 644 664.5 593.5 Q711 543 736 477.5 Q761 412 761 341 Q761 266 733.5 200 Q706 134 657.5 84.5 Q609 35 543 6.5 Q477 -22 400 -22 Q306 -22 238 11 Q170 44 125.5 96 Q81 148 59.5 213 Q38 278 38 341 Z M159 341 Q159 286 177.5 239 Q196 192 228 157.5 Q260 123 304 103.5 Q348 84 399 84 Q450 84 494.5 103.5 Q539 123 571 157.5 Q603 192 621.5 239 Q640 286 640 341 Q640 395 622.5 442 Q605 489 573.5 523.5 Q542 558 498 578 Q454 598 400 598 Q349 598 305 578.5 Q261 559 228.5 525 Q196 491 177.5 443.5 Q159 396 159 341 Z M554 826 L522 764 L399 823 L276 764 L244 826 L399 927 L554 826 Z M345 -82 L453 -82 L453 -186 L345 -186 L345 -82 Z " />
<glyph glyph-name="uni1ED9" unicode="&#x1ed9;" horiz-adv-x="577" d="M35 240 Q35 295 54.5 342 Q74 389 108.5 423 Q143 457 190 476 Q237 495 291 495 Q347 495 394 475.5 Q441 456 475 422 Q509 388 528 341 Q547 294 547 240 Q547 187 528 140.5 Q509 94 475 59 Q441 24 394 3.5 Q347 -17 291 -17 Q236 -17 189.5 3 Q143 23 108.5 57.5 Q74 92 54.5 139 Q35 186 35 240 Z M149 240 Q149 205 160.5 176.5 Q172 148 191.5 127 Q211 106 236.5 94.5 Q262 83 291 83 Q323 83 349.5 95 Q376 107 394.5 128 Q413 149 423.5 178 Q434 207 434 240 Q434 272 424 300.5 Q414 329 395.5 350 Q377 371 350.5 383.5 Q324 396 291 396 Q259 396 232.5 384 Q206 372 187.5 351 Q169 330 159 301.5 Q149 273 149 240 Z M446 626 L414 564 L291 623 L168 564 L136 626 L291 727 L446 626 Z M237 -80 L345 -80 L345 -184 L237 -184 L237 -80 Z " />
<glyph glyph-name="uni1EDA" unicode="&#x1eda;" horiz-adv-x="799" d="M634 623 Q695 571 727.5 498 Q760 425 760 341 Q760 266 732.5 200 Q705 134 656.5 84.5 Q608 35 542 6.5 Q476 -22 399 -22 Q305 -22 237 11 Q169 44 124.5 96 Q80 148 58.5 213 Q37 278 37 341 Q37 414 64 480 Q91 546 139.5 595.5 Q188 645 254.5 674.5 Q321 704 400 704 Q498 704 574 664 Q603 669 615 677 Q630 689 630 704 Q630 712 628 718.5 Q626 725 618 730 Q613 733 603.5 735.5 Q594 738 575 738 Q546 738 533 735 L519 733 L519 791 L528 793 Q538 796 551 797 Q564 798 581 798 Q613 798 637 793 Q661 788 677 775 Q691 764 701.5 749.5 Q712 735 712 713 Q712 677 689 651 Q666 630 634 623 Z M398 84 Q449 84 493.5 103.5 Q538 123 570 157.5 Q602 192 620.5 239 Q639 286 639 341 Q639 395 621.5 442 Q604 489 572.5 523.5 Q541 558 497 578 Q453 598 399 598 Q348 598 304 578.5 Q260 559 227.5 525 Q195 491 176.5 443.5 Q158 396 158 341 Q158 286 176.5 239 Q195 192 227 157.5 Q259 123 303 103.5 Q347 84 398 84 Z M442 966 L504 893 L344 764 L294 824 L442 966 Z " />
<glyph glyph-name="uni1EDB" unicode="&#x1edb;" horiz-adv-x="589" d="M536 444 Q513 423 481 416 Q511 382 528 337.5 Q545 293 545 242 Q545 189 526 142.5 Q507 96 473 61 Q439 26 392 5.5 Q345 -15 289 -15 Q234 -15 187.5 5 Q141 25 106.5 59.5 Q72 94 52.5 141 Q33 188 33 242 Q33 297 52.5 344 Q72 391 106.5 425 Q141 459 188 478 Q235 497 289 497 Q331 497 366 487 Q401 477 430 459 Q440 461 448 463.5 Q456 466 462 470 Q477 482 477 497 Q477 505 475 511.5 Q473 518 465 523 Q460 526 450.5 528.5 Q441 531 422 531 Q393 531 380 528 L366 526 L366 584 L375 586 Q385 589 398 590 Q411 591 428 591 Q460 591 484 586 Q508 581 524 568 Q538 557 548.5 542.5 Q559 528 559 506 Q559 470 536 444 Z M289 85 Q321 85 347.5 97 Q374 109 392.5 130 Q411 151 421.5 180 Q432 209 432 242 Q432 274 422 302.5 Q412 331 393.5 352 Q375 373 348.5 385.5 Q322 398 289 398 Q257 398 230.5 386 Q204 374 185.5 353 Q167 332 157 303.5 Q147 275 147 242 Q147 207 158.5 178.5 Q170 150 189.5 129 Q209 108 234.5 96.5 Q260 85 289 85 Z M339 775 L401 702 L241 573 L191 633 L339 775 Z " />
<glyph glyph-name="Ohorn" unicode="&#x1a0;" horiz-adv-x="793" d="M634 623 Q695 571 727.5 497.5 Q760 424 760 341 Q760 266 732.5 200 Q705 134 656.5 84.5 Q608 35 542 6.5 Q476 -22 399 -22 Q305 -22 237 11 Q169 44 124.5 96 Q80 148 58.5 213 Q37 278 37 341 Q37 414 64 480 Q91 546 139.5 595.5 Q188 645 254.5 674.5 Q321 704 400 704 Q497 704 574 664 Q601 668 615 677 Q622 682 626 689.5 Q630 697 630 704 Q630 712 628 718.5 Q626 725 618 730 Q613 733 603.5 735.5 Q594 738 575 738 Q546 738 533 735 L519 733 L519 791 L528 793 Q538 796 551 797 Q564 798 581 798 Q613 798 637 793 Q661 788 677 775 Q691 764 701.5 749.5 Q712 735 712 713 Q712 676 689 651 Q668 631 634 623 Z M398 84 Q449 84 493.5 103.5 Q538 123 570 157.5 Q602 192 620.5 239 Q639 286 639 341 Q639 395 621.5 442 Q604 489 572.5 523.5 Q541 558 497 578 Q453 598 399 598 Q348 598 304 578.5 Q260 559 227.5 525 Q195 491 176.5 443.5 Q158 396 158 341 Q158 286 176.5 239 Q195 192 227 157.5 Q259 123 303 103.5 Q347 84 398 84 Z " />
<glyph glyph-name="ohorn" unicode="&#x1a1;" horiz-adv-x="577" d="M536 444 Q515 424 481 416 Q511 382 528 337.5 Q545 293 545 242 Q545 189 526 142.5 Q507 96 473 61 Q439 26 392 5.5 Q345 -15 289 -15 Q234 -15 187.5 5 Q141 25 106.5 59.5 Q72 94 52.5 141 Q33 188 33 242 Q33 297 52.5 344 Q72 391 106.5 425 Q141 459 188 478 Q235 497 289 497 Q330 497 365.5 487 Q401 477 430 459 Q450 463 462 470 Q469 475 473 482.5 Q477 490 477 497 Q477 505 475 511.5 Q473 518 465 523 Q460 526 450.5 528.5 Q441 531 422 531 Q393 531 380 528 L366 526 L366 584 L375 586 Q385 589 398 590 Q411 591 428 591 Q460 591 484 586 Q508 581 524 568 Q538 557 548.5 542.5 Q559 528 559 506 Q559 469 536 444 Z M289 85 Q321 85 347.5 97 Q374 109 392.5 130 Q411 151 421.5 180 Q432 209 432 242 Q432 274 422 302.5 Q412 331 393.5 352 Q375 373 348.5 385.5 Q322 398 289 398 Q257 398 230.5 386 Q204 374 185.5 353 Q167 332 157 303.5 Q147 275 147 242 Q147 207 158.5 178.5 Q170 150 189.5 129 Q209 108 234.5 96.5 Q260 85 289 85 Z " />
<glyph glyph-name="Uhorn" unicode="&#x1af;" horiz-adv-x="631" d="M651 712 Q651 675 628 650 Q607 630 573 622 L573 272 Q573 192 553.5 135.5 Q534 79 500 44 Q466 9 419.5 -7 Q373 -23 319 -23 Q268 -23 222 -7.5 Q176 8 140.5 42.5 Q105 77 84 133 Q63 189 63 270 L63 681 L181 681 L181 259 Q181 177 217 128 Q253 79 319 79 Q357 79 383 92.5 Q409 106 425.5 130 Q442 154 449 187 Q456 220 456 259 L456 681 L560 681 Q564 686 566.5 692 Q569 698 569 703 Q569 711 567 717.5 Q565 724 557 729 Q552 732 542.5 734.5 Q533 737 514 737 Q485 737 472 734 L458 732 L458 790 L467 792 Q477 795 490 796 Q503 797 520 797 Q552 797 576 792 Q600 787 616 774 Q630 763 640.5 748.5 Q651 734 651 712 Z " />
<glyph glyph-name="uhorn" unicode="&#x1b0;" horiz-adv-x="557" d="M571 510 Q571 473 548 448 Q527 429 494 420 L494 0 L383 0 L383 59 L380 59 Q350 17 313 0.5 Q276 -16 238 -16 Q208 -16 176 -5.5 Q144 5 118.5 29.5 Q93 54 76.5 94.5 Q60 135 60 196 L60 479 L172 479 L172 209 Q172 148 198.5 115.5 Q225 83 270 83 Q321 83 351.5 118.5 Q382 154 382 224 L382 479 L480 479 Q485 484 487 490 Q489 496 489 501 Q489 509 487 515.5 Q485 522 477 527 Q472 530 462.5 532.5 Q453 535 434 535 Q405 535 392 532 L378 530 L378 588 L387 590 Q397 593 410 594 Q423 595 440 595 Q472 595 496 590 Q520 585 536 572 Q550 561 560.5 546.5 Q571 532 571 510 Z " />
<glyph glyph-name="uni1EDC" unicode="&#x1edc;" horiz-adv-x="793" d="M635 623 Q696 571 728.5 498 Q761 425 761 341 Q761 266 733.5 200 Q706 134 657.5 84.5 Q609 35 543 6.5 Q477 -22 400 -22 Q306 -22 238 11 Q170 44 125.5 96 Q81 148 59.5 213 Q38 278 38 341 Q38 414 65 480 Q92 546 140.5 595.5 Q189 645 255.5 674.5 Q322 704 401 704 Q499 704 575 664 Q604 669 616 677 Q631 689 631 704 Q631 712 629 718.5 Q627 725 619 730 Q614 733 604.5 735.5 Q595 738 576 738 Q547 738 534 735 L520 733 L520 791 L529 793 Q539 796 552 797 Q565 798 582 798 Q614 798 638 793 Q662 788 678 775 Q692 764 702.5 749.5 Q713 735 713 713 Q713 677 690 651 Q667 630 635 623 Z M399 84 Q450 84 494.5 103.5 Q539 123 571 157.5 Q603 192 621.5 239 Q640 286 640 341 Q640 395 622.5 442 Q605 489 573.5 523.5 Q542 558 498 578 Q454 598 400 598 Q349 598 305 578.5 Q261 559 228.5 525 Q196 491 177.5 443.5 Q159 396 159 341 Q159 286 177.5 239 Q196 192 228 157.5 Q260 123 304 103.5 Q348 84 399 84 Z M464 824 L414 764 L254 893 L316 966 L464 824 Z " />
<glyph glyph-name="uni1EDD" unicode="&#x1edd;" horiz-adv-x="577" d="M536 444 Q513 423 481 416 Q511 382 528 337.5 Q545 293 545 242 Q545 189 526 142.5 Q507 96 473 61 Q439 26 392 5.5 Q345 -15 289 -15 Q234 -15 187.5 5 Q141 25 106.5 59.5 Q72 94 52.5 141 Q33 188 33 242 Q33 297 52.5 344 Q72 391 106.5 425 Q141 459 188 478 Q235 497 289 497 Q331 497 366 487 Q401 477 430 459 Q440 461 448 463.5 Q456 466 462 470 Q477 482 477 497 Q477 505 475 511.5 Q473 518 465 523 Q460 526 450.5 528.5 Q441 531 422 531 Q393 531 380 528 L366 526 L366 584 L375 586 Q385 589 398 590 Q411 591 428 591 Q460 591 484 586 Q508 581 524 568 Q538 557 548.5 542.5 Q559 528 559 506 Q559 470 536 444 Z M289 85 Q321 85 347.5 97 Q374 109 392.5 130 Q411 151 421.5 180 Q432 209 432 242 Q432 274 422 302.5 Q412 331 393.5 352 Q375 373 348.5 385.5 Q322 398 289 398 Q257 398 230.5 386 Q204 374 185.5 353 Q167 332 157 303.5 Q147 275 147 242 Q147 207 158.5 178.5 Q170 150 189.5 129 Q209 108 234.5 96.5 Q260 85 289 85 Z M341 623 L291 563 L131 692 L193 765 L341 623 Z " />
<glyph glyph-name="uni1EDE" unicode="&#x1ede;" horiz-adv-x="793" d="M634 622 Q695 570 727.5 497 Q760 424 760 340 Q760 265 732.5 199 Q705 133 656.5 83.5 Q608 34 542 5.5 Q476 -23 399 -23 Q305 -23 237 10 Q169 43 124.5 95 Q80 147 58.5 212 Q37 277 37 340 Q37 413 64 479 Q91 545 139.5 594.5 Q188 644 254.5 673.5 Q321 703 400 703 Q498 703 574 663 Q603 668 615 676 Q630 688 630 703 Q630 711 628 717.5 Q626 724 618 729 Q613 732 603.5 734.5 Q594 737 575 737 Q546 737 533 734 L519 732 L519 790 L528 792 Q538 795 551 796 Q564 797 581 797 Q613 797 637 792 Q661 787 677 774 Q691 763 701.5 748.5 Q712 734 712 712 Q712 676 689 650 Q666 629 634 622 Z M398 83 Q449 83 493.5 102.5 Q538 122 570 156.5 Q602 191 620.5 238 Q639 285 639 340 Q639 394 621.5 441 Q604 488 572.5 522.5 Q541 557 497 577 Q453 597 399 597 Q348 597 304 577.5 Q260 558 227.5 524 Q195 490 176.5 442.5 Q158 395 158 340 Q158 285 176.5 238 Q195 191 227 156.5 Q259 122 303 102.5 Q347 83 398 83 Z M341 763 L334 843 L345 845 Q385 851 398 861 Q413 873 413 888 Q413 896 411 902.5 Q409 909 401 914 Q396 917 386.5 919.5 Q377 922 358 922 Q329 922 316 919 L302 917 L302 975 L311 977 Q321 980 334 981 Q347 982 364 982 Q396 982 420 977 Q444 972 460 959 Q474 948 484.5 933.5 Q495 919 495 897 Q495 861 472 835 Q452 815 417 806 L412 763 L341 763 Z " />
<glyph glyph-name="uni1EDF" unicode="&#x1edf;" horiz-adv-x="577" d="M536 444 Q513 423 481 416 Q511 382 528 337.5 Q545 293 545 242 Q545 189 526 142.5 Q507 96 473 61 Q439 26 392 5.5 Q345 -15 289 -15 Q234 -15 187.5 5 Q141 25 106.5 59.5 Q72 94 52.5 141 Q33 188 33 242 Q33 297 52.5 344 Q72 391 106.5 425 Q141 459 188 478 Q235 497 289 497 Q331 497 366 487 Q401 477 430 459 Q440 461 448 463.5 Q456 466 462 470 Q477 482 477 497 Q477 505 475 511.5 Q473 518 465 523 Q460 526 450.5 528.5 Q441 531 422 531 Q393 531 380 528 L366 526 L366 584 L375 586 Q385 589 398 590 Q411 591 428 591 Q460 591 484 586 Q508 581 524 568 Q538 557 548.5 542.5 Q559 528 559 506 Q559 470 536 444 Z M289 85 Q321 85 347.5 97 Q374 109 392.5 130 Q411 151 421.5 180 Q432 209 432 242 Q432 274 422 302.5 Q412 331 393.5 352 Q375 373 348.5 385.5 Q322 398 289 398 Q257 398 230.5 386 Q204 374 185.5 353 Q167 332 157 303.5 Q147 275 147 242 Q147 207 158.5 178.5 Q170 150 189.5 129 Q209 108 234.5 96.5 Q260 85 289 85 Z M238 563 L231 643 L242 645 Q282 651 295 661 Q310 673 310 688 Q310 696 308 702.5 Q306 709 298 714 Q293 717 283.5 719.5 Q274 722 255 722 Q226 722 213 719 L199 717 L199 775 L208 777 Q218 780 231 781 Q244 782 261 782 Q293 782 317 777 Q341 772 357 759 Q371 748 381.5 733.5 Q392 719 392 697 Q392 661 369 635 Q349 615 314 606 L309 563 L238 563 Z " />
<glyph glyph-name="uni1EE0" unicode="&#x1ee0;" horiz-adv-x="793" d="M634 623 Q695 571 727.5 498 Q760 425 760 341 Q760 266 732.5 200 Q705 134 656.5 84.5 Q608 35 542 6.5 Q476 -22 399 -22 Q305 -22 237 11 Q169 44 124.5 96 Q80 148 58.5 213 Q37 278 37 341 Q37 414 64 480 Q91 546 139.5 595.5 Q188 645 254.5 674.5 Q321 704 400 704 Q498 704 574 664 Q603 669 615 677 Q630 689 630 704 Q630 712 628 718.5 Q626 725 618 730 Q613 733 603.5 735.5 Q594 738 575 738 Q546 738 533 735 L519 733 L519 791 L528 793 Q538 796 551 797 Q564 798 581 798 Q613 798 637 793 Q661 788 677 775 Q691 764 701.5 749.5 Q712 735 712 713 Q712 677 689 651 Q666 630 634 623 Z M398 84 Q449 84 493.5 103.5 Q538 123 570 157.5 Q602 192 620.5 239 Q639 286 639 341 Q639 395 621.5 442 Q604 489 572.5 523.5 Q541 558 497 578 Q453 598 399 598 Q348 598 304 578.5 Q260 559 227.5 525 Q195 491 176.5 443.5 Q158 396 158 341 Q158 286 176.5 239 Q195 192 227 157.5 Q259 123 303 103.5 Q347 84 398 84 Z M229 855 Q232 910 256 946.5 Q280 983 331 983 Q353 983 369.5 975.5 Q386 968 406 953 Q443 925 466 925 Q478 925 486.5 935 Q495 945 496 974 L567 974 Q562 846 464 846 Q441 846 421.5 853.5 Q402 861 383 875 Q363 891 352 897.5 Q341 904 330 904 Q303 904 300 855 L229 855 Z " />
<glyph glyph-name="uni1EE1" unicode="&#x1ee1;" horiz-adv-x="577" d="M536 444 Q513 423 481 416 Q511 382 528 337.5 Q545 293 545 242 Q545 189 526 142.5 Q507 96 473 61 Q439 26 392 5.5 Q345 -15 289 -15 Q234 -15 187.5 5 Q141 25 106.5 59.5 Q72 94 52.5 141 Q33 188 33 242 Q33 297 52.5 344 Q72 391 106.5 425 Q141 459 188 478 Q235 497 289 497 Q331 497 366 487 Q401 477 430 459 Q440 461 448 463.5 Q456 466 462 470 Q477 482 477 497 Q477 505 475 511.5 Q473 518 465 523 Q460 526 450.5 528.5 Q441 531 422 531 Q393 531 380 528 L366 526 L366 584 L375 586 Q385 589 398 590 Q411 591 428 591 Q460 591 484 586 Q508 581 524 568 Q538 557 548.5 542.5 Q559 528 559 506 Q559 470 536 444 Z M289 85 Q321 85 347.5 97 Q374 109 392.5 130 Q411 151 421.5 180 Q432 209 432 242 Q432 274 422 302.5 Q412 331 393.5 352 Q375 373 348.5 385.5 Q322 398 289 398 Q257 398 230.5 386 Q204 374 185.5 353 Q167 332 157 303.5 Q147 275 147 242 Q147 207 158.5 178.5 Q170 150 189.5 129 Q209 108 234.5 96.5 Q260 85 289 85 Z M127 654 Q130 709 154 745.5 Q178 782 229 782 Q251 782 267.5 774.5 Q284 767 304 752 Q341 724 364 724 Q376 724 384.5 734 Q393 744 394 773 L465 773 Q460 645 362 645 Q339 645 319.5 652.5 Q300 660 281 674 Q261 690 250 696.5 Q239 703 228 703 Q201 703 198 654 L127 654 Z " />
<glyph glyph-name="uni1EE2" unicode="&#x1ee2;" horiz-adv-x="793" d="M634 623 Q695 571 727.5 498 Q760 425 760 341 Q760 266 732.5 200 Q705 134 656.5 84.5 Q608 35 542 6.5 Q476 -22 399 -22 Q305 -22 237 11 Q169 44 124.5 96 Q80 148 58.5 213 Q37 278 37 341 Q37 414 64 480 Q91 546 139.5 595.5 Q188 645 254.5 674.5 Q321 704 400 704 Q498 704 574 664 Q603 669 615 677 Q630 689 630 704 Q630 712 628 718.5 Q626 725 618 730 Q613 733 603.5 735.5 Q594 738 575 738 Q546 738 533 735 L519 733 L519 791 L528 793 Q538 796 551 797 Q564 798 581 798 Q613 798 637 793 Q661 788 677 775 Q691 764 701.5 749.5 Q712 735 712 713 Q712 677 689 651 Q666 630 634 623 Z M398 84 Q449 84 493.5 103.5 Q538 123 570 157.5 Q602 192 620.5 239 Q639 286 639 341 Q639 395 621.5 442 Q604 489 572.5 523.5 Q541 558 497 578 Q453 598 399 598 Q348 598 304 578.5 Q260 559 227.5 525 Q195 491 176.5 443.5 Q158 396 158 341 Q158 286 176.5 239 Q195 192 227 157.5 Q259 123 303 103.5 Q347 84 398 84 Z M345 -82 L453 -82 L453 -186 L345 -186 L345 -82 Z " />
<glyph glyph-name="uni1EE3" unicode="&#x1ee3;" horiz-adv-x="577" d="M536 444 Q513 423 481 416 Q511 382 528 337.5 Q545 293 545 242 Q545 189 526 142.5 Q507 96 473 61 Q439 26 392 5.5 Q345 -15 289 -15 Q234 -15 187.5 5 Q141 25 106.5 59.5 Q72 94 52.5 141 Q33 188 33 242 Q33 297 52.5 344 Q72 391 106.5 425 Q141 459 188 478 Q235 497 289 497 Q331 497 366 487 Q401 477 430 459 Q440 461 448 463.5 Q456 466 462 470 Q477 482 477 497 Q477 505 475 511.5 Q473 518 465 523 Q460 526 450.5 528.5 Q441 531 422 531 Q393 531 380 528 L366 526 L366 584 L375 586 Q385 589 398 590 Q411 591 428 591 Q460 591 484 586 Q508 581 524 568 Q538 557 548.5 542.5 Q559 528 559 506 Q559 470 536 444 Z M289 85 Q321 85 347.5 97 Q374 109 392.5 130 Q411 151 421.5 180 Q432 209 432 242 Q432 274 422 302.5 Q412 331 393.5 352 Q375 373 348.5 385.5 Q322 398 289 398 Q257 398 230.5 386 Q204 374 185.5 353 Q167 332 157 303.5 Q147 275 147 242 Q147 207 158.5 178.5 Q170 150 189.5 129 Q209 108 234.5 96.5 Q260 85 289 85 Z M242 -80 L350 -80 L350 -184 L242 -184 L242 -80 Z " />
<glyph glyph-name="uni1EE4" unicode="&#x1ee4;" horiz-adv-x="631" d="M316 -22 Q265 -22 219 -6.5 Q173 9 137.5 43.5 Q102 78 81 134 Q60 190 60 271 L60 682 L178 682 L178 260 Q178 178 214 129 Q250 80 316 80 Q354 80 380 93.5 Q406 107 422.5 131 Q439 155 446 188 Q453 221 453 260 L453 682 L570 682 L570 273 Q570 193 550.5 136.5 Q531 80 497 45 Q463 10 416.5 -6 Q370 -22 316 -22 Z M261 -82 L369 -82 L369 -186 L261 -186 L261 -82 Z " />
<glyph glyph-name="uni1EE5" unicode="&#x1ee5;" horiz-adv-x="557" d="M493 0 L382 0 L382 59 L379 59 Q349 17 312 0.5 Q275 -16 237 -16 Q207 -16 175 -5.5 Q143 5 117.5 29.5 Q92 54 75.5 94.5 Q59 135 59 196 L59 479 L171 479 L171 209 Q171 148 197.5 115.5 Q224 83 269 83 Q320 83 350.5 118.5 Q381 154 381 224 L381 479 L493 479 L493 0 Z M222 -82 L330 -82 L330 -186 L222 -186 L222 -82 Z " />
<glyph glyph-name="uni1EE6" unicode="&#x1ee6;" horiz-adv-x="631" d="M316 -22 Q265 -22 219 -6.5 Q173 9 137.5 43.5 Q102 78 81 134 Q60 190 60 271 L60 682 L178 682 L178 260 Q178 178 214 129 Q250 80 316 80 Q354 80 380 93.5 Q406 107 422.5 131 Q439 155 446 188 Q453 221 453 260 L453 682 L570 682 L570 273 Q570 193 550.5 136.5 Q531 80 497 45 Q463 10 416.5 -6 Q370 -22 316 -22 Z M287 764 L280 844 L291 846 Q331 852 344 862 Q359 874 359 889 Q359 897 357 903.5 Q355 910 347 915 Q342 918 332.5 920.5 Q323 923 304 923 Q275 923 262 920 L248 918 L248 976 L257 978 Q267 981 280 982 Q293 983 310 983 Q342 983 366 978 Q390 973 406 960 Q420 949 430.5 934.5 Q441 920 441 898 Q441 862 418 836 Q398 816 363 807 L358 764 L287 764 Z " />
<glyph glyph-name="uni1EE7" unicode="&#x1ee7;" horiz-adv-x="557" d="M493 0 L382 0 L382 59 L379 59 Q349 17 312 0.5 Q275 -16 237 -16 Q207 -16 175 -5.5 Q143 5 117.5 29.5 Q92 54 75.5 94.5 Q59 135 59 196 L59 479 L171 479 L171 209 Q171 148 197.5 115.5 Q224 83 269 83 Q320 83 350.5 118.5 Q381 154 381 224 L381 479 L493 479 L493 0 Z M248 562 L241 642 L252 644 Q292 650 305 660 Q320 672 320 687 Q320 695 318 701.5 Q316 708 308 713 Q303 716 293.5 718.5 Q284 721 265 721 Q236 721 223 718 L209 716 L209 774 L218 776 Q228 779 241 780 Q254 781 271 781 Q303 781 327 776 Q351 771 367 758 Q381 747 391.5 732.5 Q402 718 402 696 Q402 660 379 634 Q359 614 324 605 L319 562 L248 562 Z " />
<glyph glyph-name="uni1EE8" unicode="&#x1ee8;" horiz-adv-x="631" d="M651 712 Q651 676 628 650 Q605 629 573 622 L573 272 Q573 192 553.5 135.5 Q534 79 500 44 Q466 9 419.5 -7 Q373 -23 319 -23 Q268 -23 222 -7.5 Q176 8 140.5 42.5 Q105 77 84 133 Q63 189 63 270 L63 681 L181 681 L181 259 Q181 177 217 128 Q253 79 319 79 Q357 79 383 92.5 Q409 106 425.5 130 Q442 154 449 187 Q456 220 456 259 L456 681 L560 681 Q564 686 566.5 692 Q569 698 569 703 Q569 711 567 717.5 Q565 724 557 729 Q552 732 542.5 734.5 Q533 737 514 737 Q485 737 472 734 L458 732 L458 790 L467 792 Q477 795 490 796 Q503 797 520 797 Q552 797 576 792 Q600 787 616 774 Q630 763 640.5 748.5 Q651 734 651 712 Z M400 965 L462 892 L302 763 L252 823 L400 965 Z " />
<glyph glyph-name="uni1EE9" unicode="&#x1ee9;" horiz-adv-x="557" d="M571 510 Q571 474 548 448 Q528 429 494 420 L494 0 L383 0 L383 59 L380 59 Q350 17 313 0.5 Q276 -16 238 -16 Q208 -16 176 -5.5 Q144 5 118.5 29.5 Q93 54 76.5 94.5 Q60 135 60 196 L60 479 L172 479 L172 209 Q172 148 198.5 115.5 Q225 83 270 83 Q321 83 351.5 118.5 Q382 154 382 224 L382 479 L480 479 Q489 488 489 501 Q489 509 487 515.5 Q485 522 477 527 Q472 530 462.5 532.5 Q453 535 434 535 Q405 535 392 532 L378 530 L378 588 L387 590 Q397 593 410 594 Q423 595 440 595 Q472 595 496 590 Q520 585 536 572 Q550 561 560.5 546.5 Q571 532 571 510 Z M359 764 L421 691 L261 562 L211 622 L359 764 Z " />
<glyph glyph-name="uni1EEA" unicode="&#x1eea;" horiz-adv-x="631" d="M651 712 Q651 676 628 650 Q605 629 573 622 L573 272 Q573 192 553.5 135.5 Q534 79 500 44 Q466 9 419.5 -7 Q373 -23 319 -23 Q268 -23 222 -7.5 Q176 8 140.5 42.5 Q105 77 84 133 Q63 189 63 270 L63 681 L181 681 L181 259 Q181 177 217 128 Q253 79 319 79 Q357 79 383 92.5 Q409 106 425.5 130 Q442 154 449 187 Q456 220 456 259 L456 681 L560 681 Q564 686 566.5 692 Q569 698 569 703 Q569 711 567 717.5 Q565 724 557 729 Q552 732 542.5 734.5 Q533 737 514 737 Q485 737 472 734 L458 732 L458 790 L467 792 Q477 795 490 796 Q503 797 520 797 Q552 797 576 792 Q600 787 616 774 Q630 763 640.5 748.5 Q651 734 651 712 Z M372 823 L322 763 L162 892 L224 965 L372 823 Z " />
<glyph glyph-name="uni1EEB" unicode="&#x1eeb;" horiz-adv-x="557" d="M571 510 Q571 474 548 448 Q528 429 494 420 L494 0 L383 0 L383 59 L380 59 Q350 17 313 0.5 Q276 -16 238 -16 Q208 -16 176 -5.5 Q144 5 118.5 29.5 Q93 54 76.5 94.5 Q60 135 60 196 L60 479 L172 479 L172 209 Q172 148 198.5 115.5 Q225 83 270 83 Q321 83 351.5 118.5 Q382 154 382 224 L382 479 L480 479 Q489 488 489 501 Q489 509 487 515.5 Q485 522 477 527 Q472 530 462.5 532.5 Q453 535 434 535 Q405 535 392 532 L378 530 L378 588 L387 590 Q397 593 410 594 Q423 595 440 595 Q472 595 496 590 Q520 585 536 572 Q550 561 560.5 546.5 Q571 532 571 510 Z M330 622 L280 562 L120 691 L182 764 L330 622 Z " />
<glyph glyph-name="uni1EEC" unicode="&#x1eec;" horiz-adv-x="631" d="M651 712 Q651 676 628 650 Q605 629 573 622 L573 272 Q573 192 553.5 135.5 Q534 79 500 44 Q466 9 419.5 -7 Q373 -23 319 -23 Q268 -23 222 -7.5 Q176 8 140.5 42.5 Q105 77 84 133 Q63 189 63 270 L63 681 L181 681 L181 259 Q181 177 217 128 Q253 79 319 79 Q357 79 383 92.5 Q409 106 425.5 130 Q442 154 449 187 Q456 220 456 259 L456 681 L560 681 Q564 686 566.5 692 Q569 698 569 703 Q569 711 567 717.5 Q565 724 557 729 Q552 732 542.5 734.5 Q533 737 514 737 Q485 737 472 734 L458 732 L458 790 L467 792 Q477 795 490 796 Q503 797 520 797 Q552 797 576 792 Q600 787 616 774 Q630 763 640.5 748.5 Q651 734 651 712 Z M289 763 L282 843 L293 845 Q333 851 346 861 Q361 873 361 888 Q361 896 359 902.5 Q357 909 349 914 Q344 917 334.5 919.5 Q325 922 306 922 Q277 922 264 919 L250 917 L250 975 L259 977 Q269 980 282 981 Q295 982 312 982 Q344 982 368 977 Q392 972 408 959 Q422 948 432.5 933.5 Q443 919 443 897 Q443 861 420 835 Q400 815 365 806 L360 763 L289 763 Z " />
<glyph glyph-name="uni1EED" unicode="&#x1eed;" horiz-adv-x="557" d="M228 562 L221 642 L232 644 Q272 650 285 660 Q300 672 300 687 Q300 695 298 701.5 Q296 708 288 713 Q283 716 273.5 718.5 Q264 721 245 721 Q216 721 203 718 L189 716 L189 774 L198 776 Q208 779 221 780 Q234 781 251 781 Q283 781 307 776 Q331 771 347 758 Q361 747 371.5 732.5 Q382 718 382 696 Q382 660 359 634 Q339 614 304 605 L299 562 L228 562 Z M571 510 Q571 474 548 448 Q528 429 494 420 L494 0 L383 0 L383 59 L380 59 Q350 17 313 0.5 Q276 -16 238 -16 Q208 -16 176 -5.5 Q144 5 118.5 29.5 Q93 54 76.5 94.5 Q60 135 60 196 L60 479 L172 479 L172 209 Q172 148 198.5 115.5 Q225 83 270 83 Q321 83 351.5 118.5 Q382 154 382 224 L382 479 L480 479 Q489 488 489 501 Q489 509 487 515.5 Q485 522 477 527 Q472 530 462.5 532.5 Q453 535 434 535 Q405 535 392 532 L378 530 L378 588 L387 590 Q397 593 410 594 Q423 595 440 595 Q472 595 496 590 Q520 585 536 572 Q550 561 560.5 546.5 Q571 532 571 510 Z " />
<glyph glyph-name="uni1EEE" unicode="&#x1eee;" horiz-adv-x="631" d="M651 712 Q651 676 628 650 Q605 629 573 622 L573 272 Q573 192 553.5 135.5 Q534 79 500 44 Q466 9 419.5 -7 Q373 -23 319 -23 Q268 -23 222 -7.5 Q176 8 140.5 42.5 Q105 77 84 133 Q63 189 63 270 L63 681 L181 681 L181 259 Q181 177 217 128 Q253 79 319 79 Q357 79 383 92.5 Q409 106 425.5 130 Q442 154 449 187 Q456 220 456 259 L456 681 L560 681 Q564 686 566.5 692 Q569 698 569 703 Q569 711 567 717.5 Q565 724 557 729 Q552 732 542.5 734.5 Q533 737 514 737 Q485 737 472 734 L458 732 L458 790 L467 792 Q477 795 490 796 Q503 797 520 797 Q552 797 576 792 Q600 787 616 774 Q630 763 640.5 748.5 Q651 734 651 712 Z M158 854 Q161 909 185 945.5 Q209 982 260 982 Q282 982 298.5 974.5 Q315 967 335 952 Q372 924 395 924 Q407 924 415.5 934 Q424 944 425 973 L496 973 Q491 845 393 845 Q370 845 350.5 852.5 Q331 860 312 874 Q292 890 281 896.5 Q270 903 259 903 Q232 903 229 854 L158 854 Z " />
<glyph glyph-name="uni1EEF" unicode="&#x1eef;" horiz-adv-x="557" d="M571 510 Q571 474 548 448 Q528 429 494 420 L494 0 L383 0 L383 59 L380 59 Q350 17 313 0.5 Q276 -16 238 -16 Q208 -16 176 -5.5 Q144 5 118.5 29.5 Q93 54 76.5 94.5 Q60 135 60 196 L60 479 L172 479 L172 209 Q172 148 198.5 115.5 Q225 83 270 83 Q321 83 351.5 118.5 Q382 154 382 224 L382 479 L480 479 Q489 488 489 501 Q489 509 487 515.5 Q485 522 477 527 Q472 530 462.5 532.5 Q453 535 434 535 Q405 535 392 532 L378 530 L378 588 L387 590 Q397 593 410 594 Q423 595 440 595 Q472 595 496 590 Q520 585 536 572 Q550 561 560.5 546.5 Q571 532 571 510 Z M92 653 Q95 708 119 744.5 Q143 781 194 781 Q216 781 232.5 773.5 Q249 766 269 751 Q306 723 329 723 Q341 723 349.5 733 Q358 743 359 772 L430 772 Q425 644 327 644 Q304 644 284.5 651.5 Q265 659 246 673 Q226 689 215 695.5 Q204 702 193 702 Q166 702 163 653 L92 653 Z " />
<glyph glyph-name="uni1EF0" unicode="&#x1ef0;" horiz-adv-x="631" d="M651 712 Q651 676 628 650 Q605 629 573 622 L573 272 Q573 192 553.5 135.5 Q534 79 500 44 Q466 9 419.5 -7 Q373 -23 319 -23 Q268 -23 222 -7.5 Q176 8 140.5 42.5 Q105 77 84 133 Q63 189 63 270 L63 681 L181 681 L181 259 Q181 177 217 128 Q253 79 319 79 Q357 79 383 92.5 Q409 106 425.5 130 Q442 154 449 187 Q456 220 456 259 L456 681 L560 681 Q564 686 566.5 692 Q569 698 569 703 Q569 711 567 717.5 Q565 724 557 729 Q552 732 542.5 734.5 Q533 737 514 737 Q485 737 472 734 L458 732 L458 790 L467 792 Q477 795 490 796 Q503 797 520 797 Q552 797 576 792 Q600 787 616 774 Q630 763 640.5 748.5 Q651 734 651 712 Z M273 -83 L381 -83 L381 -187 L273 -187 L273 -83 Z " />
<glyph glyph-name="uni1EF1" unicode="&#x1ef1;" horiz-adv-x="557" d="M571 510 Q571 474 548 448 Q528 429 494 420 L494 0 L383 0 L383 59 L380 59 Q350 17 313 0.5 Q276 -16 238 -16 Q208 -16 176 -5.5 Q144 5 118.5 29.5 Q93 54 76.5 94.5 Q60 135 60 196 L60 479 L172 479 L172 209 Q172 148 198.5 115.5 Q225 83 270 83 Q321 83 351.5 118.5 Q382 154 382 224 L382 479 L480 479 Q489 488 489 501 Q489 509 487 515.5 Q485 522 477 527 Q472 530 462.5 532.5 Q453 535 434 535 Q405 535 392 532 L378 530 L378 588 L387 590 Q397 593 410 594 Q423 595 440 595 Q472 595 496 590 Q520 585 536 572 Q550 561 560.5 546.5 Q571 532 571 510 Z M222 -81 L330 -81 L330 -185 L222 -185 L222 -81 Z " />
<glyph glyph-name="uni1EF4" unicode="&#x1ef4;" horiz-adv-x="570" d="M227 274 L9 682 L139 682 L254 459 Q265 437 274 417 Q283 397 290 377 L292 377 Q300 398 309 416.5 Q318 435 329 458 L439 682 L562 682 L345 275 L345 0 L227 0 L227 274 Z M232 -82 L340 -82 L340 -186 L232 -186 L232 -82 Z " />
<glyph glyph-name="uni1EF5" unicode="&#x1ef5;" horiz-adv-x="452" d="M193 -235 L86 -235 L174 2 L-1 479 L114 479 L197 241 Q205 218 214.5 187 Q224 156 229 131 L232 131 Q240 161 247 186.5 Q254 212 264 241 L345 479 L456 479 L193 -235 Z M318 -82 L426 -82 L426 -186 L318 -186 L318 -82 Z " />
<glyph glyph-name="uni1EF6" unicode="&#x1ef6;" horiz-adv-x="570" d="M227 274 L9 682 L139 682 L254 459 Q265 437 274 417 Q283 397 290 377 L292 377 Q300 398 309 416.5 Q318 435 329 458 L439 682 L562 682 L345 275 L345 0 L227 0 L227 274 Z M248 764 L241 844 L252 846 Q292 852 305 862 Q320 874 320 889 Q320 897 318 903.5 Q316 910 308 915 Q303 918 293.5 920.5 Q284 923 265 923 Q236 923 223 920 L209 918 L209 976 L218 978 Q228 981 241 982 Q254 983 271 983 Q303 983 327 978 Q351 973 367 960 Q381 949 391.5 934.5 Q402 920 402 898 Q402 862 379 836 Q359 816 324 807 L319 764 L248 764 Z " />
<glyph glyph-name="uni1EF7" unicode="&#x1ef7;" horiz-adv-x="452" d="M196 -234 L89 -234 L176 3 L-1 479 L114 480 L198 242 Q206 219 215.5 188 Q225 157 230 132 L233 132 Q241 162 248 187.5 Q255 213 265 242 L345 480 L456 481 L196 -234 Z M200 562 L193 642 L204 644 Q244 650 257 660 Q272 672 272 687 Q272 695 270 701.5 Q268 708 260 713 Q255 716 245.5 718.5 Q236 721 217 721 Q188 721 175 718 L161 716 L161 774 L170 776 Q180 779 193 780 Q206 781 223 781 Q255 781 279 776 Q303 771 319 758 Q333 747 343.5 732.5 Q354 718 354 696 Q354 660 331 634 Q311 614 276 605 L271 562 L200 562 Z " />
<glyph glyph-name="uni1EF8" unicode="&#x1ef8;" horiz-adv-x="570" d="M227 274 L9 682 L139 682 L254 459 Q265 437 274 417 Q283 397 290 377 L292 377 Q300 398 309 416.5 Q318 435 329 458 L439 682 L562 682 L345 275 L345 0 L227 0 L227 274 Z M117 773 Q120 828 144 864.5 Q168 901 219 901 Q241 901 257.5 893.5 Q274 886 294 871 Q331 843 354 843 Q366 843 374.5 853 Q383 863 384 892 L455 892 Q450 764 352 764 Q329 764 309.5 771.5 Q290 779 271 793 Q251 809 240 815.5 Q229 822 218 822 Q191 822 188 773 L117 773 Z " />
<glyph glyph-name="uni1EF9" unicode="&#x1ef9;" horiz-adv-x="452" d="M193 -234 L86 -234 L174 3 L-1 480 L114 480 L197 242 Q205 219 214.5 188 Q224 157 229 132 L232 132 Q240 162 247 187.5 Q254 213 264 242 L345 480 L456 480 L193 -234 Z M58 571 Q61 626 85 662.5 Q109 699 160 699 Q182 699 198.5 691.5 Q215 684 235 669 Q272 641 295 641 Q307 641 315.5 651 Q324 661 325 690 L396 690 Q391 562 293 562 Q270 562 250.5 569.5 Q231 577 212 591 Q192 607 181 613.5 Q170 620 159 620 Q132 620 129 571 L58 571 Z " />
<glyph glyph-name="quotedbl" unicode="&#x22;" horiz-adv-x="406" d="M161 721 L151 489 L65 489 L56 721 L161 721 Z M350 721 L340 489 L254 489 L246 721 L350 721 Z " />
<glyph glyph-name="exclam" unicode="&#x21;" horiz-adv-x="256" d="M69 112 L188 112 L188 0 L69 0 L69 112 Z M190 682 L178 202 L79 202 L67 682 L190 682 Z " />
<glyph glyph-name="NULL" d="" />
</font>
</svg>
