<svg width="24" height="25" viewBox="0 0 24 25" fill="none" xmlns="http://www.w3.org/2000/svg">
<path d="M12 13C12.2761 13 12.5 12.7761 12.5 12.5C12.5 12.2239 12.2761 12 12 12C11.7239 12 11.5 12.2239 11.5 12.5C11.5 12.7761 11.7239 13 12 13Z" fill="#C72528" stroke="#C72528" stroke-width="1.75" stroke-linecap="round" stroke-linejoin="round"/>
<path d="M12 19.5C15.866 19.5 19 16.366 19 12.5C19 8.63401 15.866 5.5 12 5.5C8.13401 5.5 5 8.63401 5 12.5C5 16.366 8.13401 19.5 12 19.5Z" stroke="#C72528" stroke-width="1.75" stroke-linecap="round" stroke-linejoin="round"/>
<path d="M12 3.5V5.5" stroke="#C72528" stroke-width="1.75" stroke-linecap="round" stroke-linejoin="round"/>
<path d="M3 12.5H5" stroke="#C72528" stroke-width="1.75" stroke-linecap="round" stroke-linejoin="round"/>
<path d="M12 19.5V21.5" stroke="#C72528" stroke-width="1.75" stroke-linecap="round" stroke-linejoin="round"/>
<path d="M19 12.5H21" stroke="#C72528" stroke-width="1.75" stroke-linecap="round" stroke-linejoin="round"/>
</svg>
